<svg width="60" height="60" viewBox="0 0 60 60" fill="none" xmlns="http://www.w3.org/2000/svg">
    <g clip-path="url(#clip0_4366_2019)">
        <mask id="mask0_4366_2019" style="mask-type:luminance" maskUnits="userSpaceOnUse" x="0" y="0" width="60" height="60">
            <path d="M60 0H0V60H60V0Z" fill="white"/>
        </mask>
        <g mask="url(#mask0_4366_2019)">
            <path d="M60 29.699C60 35.5729 58.2406 41.3149 54.9442 46.1989C51.6477 51.0829 46.9624 54.8895 41.4807 57.1373C35.9989 59.3852 29.967 59.9733 24.1476 58.8274C18.3282 57.6814 12.9827 54.8529 8.78718 50.6994C4.59163 46.5459 1.73443 41.254 0.576878 35.493C-0.580671 29.732 0.0134281 23.7605 2.28404 18.3337C4.55466 12.9069 8.39981 8.26855 13.3332 5.00519C18.2667 1.74182 24.0668 0 30.0002 0C37.9567 0 45.5872 3.12899 51.2133 8.69864C56.8394 14.2683 60 21.8223 60 29.699Z" fill="#3A76BB"/>
            <path d="M50.1899 46.1334H9.80929C9.19033 46.1317 8.59724 45.8875 8.15957 45.4542C7.7219 45.0209 7.47522 44.4337 7.47342 43.821V17.1088C7.47522 16.4961 7.7219 15.9089 8.15957 15.4757C8.59724 15.0424 9.19033 14.7982 9.80929 14.7964H50.1899C50.809 14.798 51.4023 15.0421 51.8401 15.4754C52.278 15.9087 52.5248 16.4959 52.5266 17.1088V43.8202C52.5248 44.433 52.2781 45.0201 51.8404 45.4534C51.4027 45.8867 50.8097 46.1309 50.1907 46.1327" fill="white"/>
            <path d="M50.1899 45.5364H10.2944C9.62281 45.5364 8.98539 45.5002 8.49747 44.9396C8.00956 44.379 8.07628 43.7062 8.07628 43.0298V21.6444C8.07628 20.1364 8.03609 18.6229 8.07628 17.1154C8.10482 16.0089 9.00066 15.3954 10.0364 15.3954H46.3135C47.5868 15.3954 48.862 15.3747 50.1352 15.3954C50.3769 15.3945 50.6161 15.4423 50.8385 15.5357C51.0609 15.6292 51.2619 15.7664 51.4291 15.939C51.5963 16.1116 51.7264 16.3161 51.8114 16.54C51.8965 16.7639 51.9347 17.0026 51.9237 17.2415C51.9277 17.8729 51.9237 18.5044 51.9237 19.1358V43.4659C51.9237 43.5852 51.9269 43.7006 51.9237 43.818C51.917 44.2713 51.7324 44.7043 51.409 45.0253C51.0855 45.3463 50.6486 45.5302 50.1907 45.538C49.4166 45.5603 49.4134 46.7539 50.1907 46.7316C50.588 46.7226 50.9796 46.6357 51.3428 46.476C51.7061 46.3164 52.0338 46.087 52.307 45.8013C52.5802 45.5156 52.7936 45.1791 52.9347 44.8113C53.0759 44.4435 53.1421 44.0517 53.1294 43.6584C53.1318 42.982 53.1294 42.3057 53.1294 41.6293V23.0131C53.1294 21.0941 53.1383 19.1752 53.1294 17.2562C53.1402 16.8642 53.0726 16.4739 52.9306 16.1079C52.7885 15.7418 52.5747 15.4071 52.3015 15.1231C52.0284 14.8391 51.7012 14.6114 51.3388 14.453C50.9764 14.2946 50.5859 14.2086 50.1899 14.2001C49.8913 14.1926 49.5915 14.2001 49.2928 14.2001H10.0199C9.3744 14.1721 8.73665 14.3482 8.19894 14.7028C7.66124 15.0575 7.25146 15.5723 7.02892 16.1728C6.86977 16.7866 6.81624 17.4226 6.87057 18.054V42.9733C6.80329 43.6879 6.90383 44.4083 7.16435 45.0781C7.43339 45.6021 7.85066 46.0374 8.36527 46.3307C8.87988 46.624 9.4696 46.7628 10.0625 46.73H50.1899C50.3498 46.73 50.5031 46.6672 50.6162 46.5552C50.7292 46.4433 50.7927 46.2915 50.7927 46.1332C50.7927 45.9749 50.7292 45.8231 50.6162 45.7112C50.5031 45.5993 50.3498 45.5364 50.1899 45.5364Z" fill="#071546"/>
            <path d="M31.3381 46.1333H27.9927V56.7844H31.3381V46.1333Z" fill="white"/>
            <path d="M31.3379 56.1873H27.9924L28.5953 56.7841V46.1329L27.9924 46.7298H31.3379L30.735 46.1329V56.7841C30.735 56.9424 30.7986 57.0942 30.9116 57.2061C31.0247 57.318 31.178 57.3809 31.3379 57.3809C31.4978 57.3809 31.6511 57.318 31.7642 57.2061C31.8772 57.0942 31.9408 56.9424 31.9408 56.7841V46.1329C31.9385 45.9754 31.8742 45.8249 31.7617 45.7134C31.6491 45.602 31.4971 45.5384 31.3379 45.5361H27.9924C27.8333 45.5384 27.6813 45.602 27.5687 45.7134C27.4561 45.8249 27.3919 45.9754 27.3896 46.1329V56.7841C27.3919 56.9416 27.4561 57.0921 27.5687 57.2036C27.6813 57.315 27.8333 57.3786 27.9924 57.3809H31.3379C31.4978 57.3809 31.6511 57.318 31.7642 57.2061C31.8772 57.0942 31.9408 56.9424 31.9408 56.7841C31.9408 56.6258 31.8772 56.474 31.7642 56.3621C31.6511 56.2501 31.4978 56.1873 31.3379 56.1873Z" fill="#071546"/>
            <path d="M19.9023 58.5708V56.9136C19.9023 56.805 19.924 56.6974 19.966 56.597C20.008 56.4966 20.0696 56.4054 20.1472 56.3286C20.2248 56.2517 20.317 56.1908 20.4184 56.1493C20.5199 56.1077 20.6285 56.0864 20.7383 56.0864H38.5921C38.7019 56.0864 38.8106 56.1077 38.912 56.1493C39.0134 56.1908 39.1056 56.2517 39.1832 56.3286C39.2609 56.4054 39.3224 56.4966 39.3645 56.597C39.4065 56.6974 39.4281 56.805 39.4281 56.9136V58.5708C39.4281 58.7902 39.34 59.0007 39.1833 59.1559C39.0265 59.3111 38.8138 59.3983 38.5921 59.3983H20.7383C20.6285 59.3983 20.5198 59.3769 20.4184 59.3353C20.317 59.2938 20.2248 59.2328 20.1472 59.1559C20.0696 59.0791 20.008 58.9879 19.966 58.8875C19.924 58.7871 19.9023 58.6794 19.9023 58.5708Z" fill="white"/>
            <path d="M20.5052 58.5709V57.4966C20.5052 57.2213 20.3967 56.7653 20.7387 56.683C20.9399 56.6613 21.1428 56.6613 21.344 56.683H37.8623C38.1028 56.6582 38.3452 56.6582 38.5857 56.683C38.8879 56.7514 38.8268 57.0243 38.8268 57.2722C38.8524 57.683 38.8524 58.0949 38.8268 58.5056C38.7806 58.8637 38.517 58.8024 38.2344 58.8024H23.6991C22.7398 58.8538 21.7784 58.8538 20.8191 58.8024C20.6672 58.7857 20.5217 58.7734 20.5052 58.5717C20.4433 57.8113 19.2368 57.8046 19.2995 58.5717C19.3088 58.7717 19.3586 58.9678 19.4458 59.1484C19.533 59.329 19.6559 59.4905 19.8072 59.6233C19.9586 59.7561 20.1353 59.8575 20.3269 59.9215C20.5185 59.9856 20.7211 60.0109 20.9228 59.9961C21.3592 60 21.7961 59.9961 22.2326 59.9961H37.9668C38.2473 60.0096 38.5285 60.0024 38.8079 59.9746C40.1857 59.7669 40.0309 58.3393 40.0309 57.3152C40.0634 57.0644 40.0427 56.8097 39.9701 56.5673C39.8975 56.3249 39.7746 56.1002 39.6094 55.9075C39.3221 55.638 38.9409 55.4887 38.5451 55.4905C38.2095 55.4782 37.8711 55.4905 37.5355 55.4905H21.7202C21.4027 55.4905 21.0823 55.4778 20.7648 55.4905C20.5378 55.491 20.3138 55.543 20.1102 55.6424C19.9066 55.7419 19.7286 55.8862 19.5901 56.0643C19.3376 56.4808 19.2352 56.9697 19.2995 57.4513V58.5717C19.2995 58.73 19.363 58.8818 19.4761 58.9937C19.5891 59.1056 19.7425 59.1685 19.9023 59.1685C20.0622 59.1685 20.2156 59.1056 20.3286 58.9937C20.4417 58.8818 20.5052 58.73 20.5052 58.5717" fill="#071546"/>
            <path d="M7.47342 45.3648V43.5891C7.47342 43.3853 7.55518 43.1899 7.70072 43.0458C7.84627 42.9017 8.04367 42.8208 8.2495 42.8208H51.7505C51.9563 42.8208 52.1537 42.9017 52.2993 43.0458C52.4448 43.1899 52.5266 43.3853 52.5266 43.5891V45.3648C52.5266 45.5686 52.4448 45.764 52.2993 45.9081C52.1537 46.0522 51.9563 46.1331 51.7505 46.1331H8.2495C8.04367 46.1331 7.84627 46.0522 7.70072 45.9081C7.55518 45.764 7.47342 45.5686 7.47342 45.3648Z" fill="white"/>
            <path d="M8.0763 45.3651V44.1397C8.0763 43.9093 7.97743 43.4975 8.25153 43.4179C8.37885 43.4024 8.50763 43.4024 8.63495 43.4179H49.9789C50.5538 43.3654 51.1323 43.3654 51.7071 43.4179C52.1171 43.4995 51.9241 44.4898 51.9241 44.8149C51.9241 45.1479 52.0202 45.5028 51.636 45.5366C50.9833 45.5935 50.2992 45.5366 49.6449 45.5366H8.49307C8.33914 45.5366 8.09399 45.58 8.0763 45.3651C8.01441 44.6048 6.80789 44.598 6.87059 45.3651C6.87753 45.5515 6.92151 45.7346 7.00003 45.9041C7.07855 46.0736 7.19006 46.2262 7.32818 46.3529C7.46629 46.4797 7.62831 46.5783 7.80496 46.6431C7.98161 46.7078 8.16941 46.7374 8.35763 46.7302C8.59878 46.7346 8.84193 46.7302 9.08387 46.7302H51.2035C51.3775 46.7302 51.5532 46.7374 51.726 46.7302C51.9299 46.7287 52.1312 46.6843 52.3165 46.5999C52.5018 46.5155 52.6668 46.3932 52.8007 46.2409C53.1588 45.8247 53.127 45.3218 53.127 44.8149C53.127 44.3884 53.1524 43.9531 53.1218 43.527C53.1 43.1785 52.9465 42.8509 52.6917 42.6095C52.4369 42.3681 52.0995 42.2305 51.7469 42.2243C51.6159 42.2179 51.4832 42.2243 51.3522 42.2243H9.29287C8.56944 42.2243 7.72544 42.1022 7.19693 42.7137C6.6419 43.3579 6.87059 44.5809 6.87059 45.3651C6.87059 45.5234 6.9341 45.6752 7.04716 45.7871C7.16021 45.8991 7.31356 45.9619 7.47344 45.9619C7.63333 45.9619 7.78667 45.8991 7.89973 45.7871C8.01278 45.6752 8.0763 45.5234 8.0763 45.3651Z" fill="#071546"/>
            <path d="M16.0232 37.0976C16.0232 37.6361 15.8618 38.1626 15.5596 38.6104C15.2573 39.0582 14.8278 39.4072 14.3251 39.6134C13.8225 39.8195 13.2695 39.8734 12.7359 39.7683C12.2023 39.6632 11.7122 39.4039 11.3275 39.0231C10.9428 38.6422 10.6809 38.157 10.5747 37.6288C10.4686 37.1006 10.5231 36.5531 10.7313 36.0555C10.9394 35.5579 11.292 35.1326 11.7443 34.8334C12.1967 34.5342 12.7285 34.3745 13.2725 34.3745C14.002 34.3745 14.7017 34.6614 15.2175 35.1721C15.7334 35.6828 16.0232 36.3754 16.0232 37.0976Z" fill="white"/>
            <path d="M15.4203 37.0977C15.4197 37.5335 15.2838 37.9586 15.031 38.3155C14.7782 38.6723 14.4207 38.9436 14.0069 39.0926C13.5932 39.2416 13.1432 39.261 12.7179 39.1484C12.2926 39.0357 11.9125 38.7964 11.6292 38.4627C11.3459 38.1291 11.173 37.7173 11.134 37.2832C11.095 36.8491 11.1917 36.4135 11.411 36.0356C11.6304 35.6577 11.9618 35.3557 12.3603 35.1705C12.7588 34.9852 13.2052 34.9257 13.6391 35.0001C14.1365 35.0891 14.5868 35.3476 14.9121 35.7306C15.2374 36.1137 15.4171 36.5972 15.4203 37.0977C15.4203 37.2559 15.4838 37.4077 15.5969 37.5197C15.7099 37.6316 15.8633 37.6945 16.0232 37.6945C16.1831 37.6945 16.3364 37.6316 16.4495 37.5197C16.5625 37.4077 16.626 37.2559 16.626 37.0977C16.6188 36.4183 16.4044 35.7569 16.0107 35.2003C15.6171 34.6437 15.0628 34.2179 14.4204 33.9787C13.7749 33.7475 13.0734 33.7176 12.4102 33.893C11.7471 34.0684 11.1541 34.4407 10.7112 34.9599C10.3641 35.3682 10.1216 35.8533 10.0042 36.3741C9.8869 36.895 9.89817 37.4362 10.0371 37.9518C10.176 38.4674 10.4385 38.9422 10.8023 39.336C11.1661 39.7298 11.6205 40.0309 12.1269 40.2138C12.6333 40.3967 13.1768 40.456 13.7112 40.3867C14.2457 40.3173 14.7554 40.1214 15.1971 39.8155C15.6388 39.5096 15.9995 39.1028 16.2485 38.6295C16.4975 38.1562 16.6276 37.6305 16.6276 37.0969C16.6276 36.9386 16.5641 36.7868 16.4511 36.6748C16.338 36.5629 16.1847 36.5 16.0248 36.5C15.8649 36.5 15.7116 36.5629 15.5985 36.6748C15.4854 36.7868 15.4219 36.9386 15.4219 37.0969" fill="#071546"/>
            <path d="M17.542 24.2633L14.1366 27.6349L13.6519 28.1143C13.5388 28.2262 13.4753 28.378 13.4752 28.5363C13.4752 28.6946 13.5387 28.8464 13.6517 28.9584C13.7648 29.0703 13.9181 29.1333 14.078 29.1333C14.2379 29.1333 14.3913 29.0705 14.5043 28.9586L17.9097 25.587L18.3944 25.1071C18.452 25.0521 18.4979 24.9862 18.5295 24.9134C18.5611 24.8406 18.5777 24.7623 18.5784 24.6831C18.5791 24.6038 18.5639 24.5252 18.5335 24.4519C18.5032 24.3785 18.4585 24.3119 18.4019 24.2559C18.3453 24.1998 18.2779 24.1555 18.2039 24.1255C18.1298 24.0955 18.0504 24.0804 17.9703 24.0811C17.8903 24.0818 17.8112 24.0982 17.7376 24.1295C17.6641 24.1608 17.5976 24.2063 17.542 24.2633Z" fill="#071546"/>
            <path d="M18.3948 28.1143L14.9895 24.7427L14.5048 24.2633C14.4488 24.2079 14.3823 24.1639 14.3092 24.1339C14.2361 24.1039 14.1577 24.0884 14.0785 24.0884C13.9993 24.0884 13.9209 24.1038 13.8477 24.1338C13.7746 24.1637 13.7081 24.2077 13.6521 24.2631C13.5961 24.3185 13.5517 24.3843 13.5214 24.4567C13.4911 24.5291 13.4755 24.6067 13.4754 24.6851C13.4754 24.7635 13.491 24.8411 13.5213 24.9135C13.5516 24.9859 13.596 25.0518 13.6519 25.1072L17.0577 28.4784L17.5424 28.9582C17.6561 29.0669 17.8083 29.1271 17.9664 29.1257C18.1245 29.1244 18.2757 29.0616 18.3875 28.951C18.4992 28.8403 18.5626 28.6906 18.564 28.5341C18.5654 28.3776 18.5046 28.2269 18.3948 28.1143Z" fill="#071546"/>
            <path d="M24.6287 18.7398L21.2234 22.1114L20.7387 22.5908C20.6827 22.6462 20.6383 22.712 20.608 22.7844C20.5776 22.8568 20.562 22.9345 20.562 23.0128C20.562 23.0912 20.5776 23.1688 20.6079 23.2413C20.6381 23.3137 20.6825 23.3795 20.7385 23.4349C20.7945 23.4904 20.8609 23.5343 20.9341 23.5644C21.0072 23.5944 21.0856 23.6098 21.1648 23.6098C21.244 23.6099 21.3224 23.5944 21.3955 23.5645C21.4687 23.5345 21.5351 23.4905 21.5911 23.4351L24.9965 20.0635L25.4812 19.5837C25.591 19.4711 25.6518 19.3204 25.6504 19.1639C25.649 19.0074 25.5856 18.8577 25.4738 18.7471C25.3621 18.6364 25.2109 18.5736 25.0528 18.5723C24.8947 18.5709 24.7424 18.6311 24.6287 18.7398Z" fill="#071546"/>
            <path d="M25.4816 22.5928L22.0763 19.2212L21.5916 18.7438C21.4785 18.6318 21.3252 18.5689 21.1653 18.5688C21.0054 18.5688 20.852 18.6317 20.7389 18.7436C20.6258 18.8555 20.5623 19.0073 20.5622 19.1656C20.5622 19.3239 20.6257 19.4757 20.7387 19.5877L24.1465 22.9573L24.6312 23.4371C24.7443 23.549 24.8976 23.6119 25.0575 23.6118C25.2174 23.6118 25.3708 23.5489 25.4838 23.4369C25.5968 23.3249 25.6603 23.1731 25.6603 23.0148C25.6603 22.8565 25.5967 22.7047 25.4836 22.5928" fill="#071546"/>
            <path d="M38.2509 34.75L34.8452 38.1212L34.3605 38.6011C34.3045 38.6565 34.26 38.7223 34.2297 38.7947C34.1994 38.8671 34.1838 38.9447 34.1838 39.0231C34.1838 39.1015 34.1993 39.1791 34.2296 39.2515C34.2599 39.3239 34.3043 39.3897 34.3603 39.4452C34.4162 39.5006 34.4827 39.5446 34.5558 39.5746C34.629 39.6046 34.7074 39.6201 34.7865 39.6201C34.8657 39.6201 34.9441 39.6047 35.0173 39.5747C35.0904 39.5447 35.1569 39.5008 35.2129 39.4454L38.6182 36.0738L39.1029 35.5939C39.2108 35.4811 39.27 35.331 39.2679 35.1756C39.2657 35.0202 39.2024 34.8717 39.0915 34.7618C38.9805 34.6519 38.8306 34.5892 38.6736 34.587C38.5166 34.5848 38.365 34.6433 38.2509 34.75Z" fill="#071546"/>
            <path d="M39.1034 38.6011L35.698 35.2299L35.2133 34.7501C35.1003 34.6381 34.9469 34.5752 34.787 34.5752C34.6271 34.5752 34.4738 34.638 34.3607 34.7499C34.2476 34.8618 34.184 35.0136 34.184 35.1719C34.184 35.3302 34.2474 35.482 34.3605 35.594L37.7662 38.9652L38.2509 39.445C38.3065 39.502 38.3731 39.5475 38.4466 39.5788C38.5202 39.6101 38.5993 39.6265 38.6793 39.6272C38.7594 39.6279 38.8387 39.6128 38.9128 39.5828C38.9869 39.5528 39.0542 39.5085 39.1108 39.4524C39.1674 39.3964 39.2122 39.3298 39.2425 39.2564C39.2728 39.1831 39.2881 39.1045 39.2874 39.0252C39.2867 38.946 39.2701 38.8677 39.2385 38.7949C39.2069 38.7221 39.1609 38.6562 39.1034 38.6011Z" fill="#071546"/>
            <path d="M45.9357 27.4932L42.5304 30.8644L42.0457 31.3443C41.9326 31.4562 41.8691 31.608 41.869 31.7663C41.869 31.9246 41.9325 32.0764 42.0455 32.1884C42.1585 32.3003 42.3119 32.3632 42.4718 32.3633C42.6317 32.3633 42.785 32.3005 42.8981 32.1886L46.3035 28.817L46.7882 28.3371C46.8458 28.2821 46.8917 28.2162 46.9233 28.1434C46.9549 28.0706 46.9715 27.9923 46.9722 27.913C46.9729 27.8338 46.9576 27.7552 46.9273 27.6819C46.897 27.6085 46.8523 27.5419 46.7957 27.4858C46.7391 27.4298 46.6717 27.3855 46.5977 27.3555C46.5236 27.3255 46.4442 27.3104 46.3641 27.3111C46.2841 27.3117 46.205 27.3282 46.1314 27.3595C46.0579 27.3908 45.9914 27.4362 45.9357 27.4932Z" fill="#071546"/>
            <path d="M46.7882 31.3455L43.3828 27.9743L42.8981 27.4933C42.7851 27.3813 42.6318 27.3184 42.4719 27.3184C42.312 27.3183 42.1586 27.3812 42.0455 27.4931C41.9324 27.605 41.8688 27.7568 41.8688 27.9151C41.8688 28.0734 41.9323 28.2252 42.0453 28.3372L45.451 31.7084L45.9357 32.1882C45.9914 32.2452 46.0579 32.2907 46.1314 32.322C46.205 32.3532 46.2841 32.3697 46.3641 32.3704C46.4442 32.3711 46.5236 32.356 46.5977 32.326C46.6717 32.296 46.739 32.2516 46.7956 32.1956C46.8523 32.1396 46.897 32.0729 46.9273 31.9996C46.9576 31.9262 46.9729 31.8477 46.9722 31.7684C46.9715 31.6892 46.9549 31.6108 46.9233 31.538C46.8917 31.4652 46.8458 31.3994 46.7882 31.3443" fill="#071546"/>
            <path d="M48.135 35.8907L44.7296 39.2623L44.2449 39.7417C44.1318 39.8536 44.0683 40.0054 44.0682 40.1637C44.0682 40.322 44.1317 40.4738 44.2447 40.5858C44.3578 40.6978 44.5111 40.7607 44.671 40.7607C44.8309 40.7608 44.9843 40.6979 45.0974 40.586L48.5027 37.2144L48.9874 36.7346C49.0972 36.622 49.158 36.4713 49.1566 36.3148C49.1552 36.1583 49.0918 36.0086 48.9801 35.8979C48.8683 35.7873 48.7171 35.7245 48.559 35.7232C48.401 35.7218 48.2487 35.782 48.135 35.8907Z" fill="#071546"/>
            <path d="M48.9874 39.7418L45.5821 36.3702L45.0974 35.8907C44.9843 35.7788 44.831 35.7159 44.6711 35.7158C44.5112 35.7158 44.3578 35.7786 44.2447 35.8905C44.1317 36.0024 44.0681 36.1542 44.0681 36.3125C44.068 36.4708 44.1315 36.6227 44.2445 36.7346L47.6503 40.1058L48.135 40.5857C48.1906 40.6427 48.2571 40.6881 48.3307 40.7194C48.4042 40.7507 48.4833 40.7672 48.5634 40.7678C48.6434 40.7685 48.7228 40.7534 48.7969 40.7234C48.871 40.6934 48.9383 40.6491 48.9949 40.5931C49.0515 40.537 49.0963 40.4704 49.1266 40.397C49.1569 40.3237 49.1721 40.2451 49.1714 40.1659C49.1707 40.0866 49.1541 40.0083 49.1225 39.9355C49.0909 39.8627 49.045 39.7968 48.9874 39.7418Z" fill="#071546"/>
            <path d="M43.546 18.1107L40.1423 21.4819L39.656 21.9629C39.5429 22.0748 39.4793 22.2266 39.4793 22.3849C39.4792 22.5432 39.5427 22.695 39.6558 22.807C39.7688 22.919 39.9221 22.9819 40.0821 22.9819C40.242 22.9819 40.3953 22.9191 40.5084 22.8072L43.9137 19.4356L44.3984 18.9558C44.5083 18.8432 44.569 18.6924 44.5677 18.536C44.5663 18.3795 44.5029 18.2298 44.3911 18.1191C44.2793 18.0085 44.1281 17.9457 43.9701 17.9444C43.812 17.943 43.6597 18.0032 43.546 18.1119" fill="#071546"/>
            <path d="M40.5084 21.9625L38.8056 20.2767L38.5644 20.038C38.4513 19.9261 38.298 19.8632 38.138 19.8633C37.9781 19.8633 37.8248 19.9262 37.7118 20.0382C37.5987 20.1502 37.5352 20.302 37.5353 20.4603C37.5353 20.6186 37.5989 20.7704 37.712 20.8823L39.4148 22.5677L39.656 22.8064C39.7116 22.8634 39.7781 22.9089 39.8517 22.9402C39.9252 22.9714 40.0043 22.9879 40.0844 22.9886C40.1644 22.9893 40.2438 22.9742 40.3179 22.9442C40.392 22.9142 40.4593 22.8698 40.5159 22.8138C40.5725 22.7578 40.6173 22.6911 40.6476 22.6178C40.6779 22.5444 40.6932 22.4659 40.6925 22.3866C40.6918 22.3074 40.6751 22.2291 40.6435 22.1562C40.6119 22.0834 40.566 22.0176 40.5084 21.9625Z" fill="#071546"/>
            <path d="M18.0182 35.7985C24.0465 34.7736 29.6915 32.1816 34.3757 28.2878C35.6963 27.1907 36.9294 25.9943 38.064 24.7094C38.5732 24.1336 37.7236 23.2862 37.2116 23.8655C33.2813 28.3047 28.221 31.6198 22.5573 33.4658C20.9698 33.9791 19.3458 34.3741 17.6987 34.6475C16.9351 34.7748 17.259 35.9255 18.0202 35.7985" fill="#071546"/>
            <path d="M34.7869 24.6287C35.5614 24.6438 36.3359 24.6498 37.1099 24.6609L37.3579 24.6645C37.4341 24.6776 37.5119 24.6791 37.5886 24.6689C37.4873 24.7087 37.3004 24.3844 37.3579 24.5758C37.3716 24.6168 37.3885 24.6567 37.4085 24.6951C37.4581 24.8161 37.5058 24.9377 37.5516 25.06C37.7453 25.5831 37.9014 26.1192 38.0186 26.6642C38.0622 26.8163 38.1644 26.9452 38.3032 27.0233C38.4421 27.1013 38.6063 27.1221 38.7605 27.0812C38.9127 27.0359 39.0413 26.9343 39.1197 26.7975C39.198 26.6607 39.2201 26.4992 39.1813 26.3467C39.0516 25.7437 38.8742 25.1517 38.6508 24.5762C38.568 24.2093 38.3754 23.8757 38.0982 23.6189C37.8645 23.4967 37.5996 23.4453 37.3366 23.4709C36.4866 23.4569 35.6365 23.4518 34.7869 23.4351C34.6275 23.4365 34.475 23.4999 34.3622 23.6115C34.2495 23.7231 34.1855 23.874 34.1841 24.0319C34.187 24.1892 34.2515 24.3393 34.3639 24.4506C34.4763 24.5619 34.628 24.6257 34.7869 24.6287Z" fill="#071546"/>
        </g>
    </g>
    <defs>
        <clipPath id="clip0_4366_2019">
            <rect width="60" height="60" fill="white"/>
        </clipPath>
    </defs>
</svg>
