<svg xmlns="http://www.w3.org/2000/svg" width="20" height="21" viewBox="0 0 20 21" fill="none">
    <path fill-rule="evenodd" clip-rule="evenodd" d="M8.38214 14.8011C8.42958 14.7772 8.47408 14.7454 8.51356 14.7058L15.5839 7.63543C15.7841 7.43523 15.7848 7.11032 15.5848 6.91025L15.2213 6.54682C15.022 6.34746 14.6966 6.34704 14.4961 6.54752L8.15043 12.8932L5.34115 10.0839C5.1397 9.8825 4.81576 9.88292 4.61572 10.083L4.25229 10.4464C4.05293 10.6458 4.05265 10.9712 4.25327 11.1718L7.78677 14.7054C7.94874 14.8674 8.19009 14.8988 8.38234 14.8009L8.38214 14.8011ZM0 10.5C0 4.97714 4.47607 0.5 10 0.5C15.5229 0.5 20 4.97607 20 10.5C20 16.0229 15.5239 20.5 10 20.5C4.47714 20.5 0 16.0239 0 10.5Z" fill="#3A76BB"/>
</svg>
