<svg width="29" height="29" viewBox="0 0 29 29" fill="none" xmlns="http://www.w3.org/2000/svg">
    <path d="M11.2418 4.20777C11.2418 5.31656 11.4911 7.82827 13.6839 9.243C14.7686 9.94748 15.6734 10.1553 16.4741 10.1553C17.1063 10.1553 17.669 10.0224 18.2026 9.8955C18.2084 9.8955 18.2142 9.8955 18.2201 9.8897L18.4985 10.6058L17.0657 11.2293C16.7697 11.3564 16.6364 11.6969 16.7641 11.9915C16.8569 12.2109 17.0715 12.338 17.2978 12.338C17.3733 12.338 17.4543 12.3206 17.5298 12.2919L18.9219 11.6855L19.212 12.4303L17.8779 12.9673C17.582 13.0887 17.4371 13.4236 17.5589 13.718C17.6517 13.9432 17.8663 14.0817 18.0984 14.0817C18.1739 14.0817 18.2433 14.0701 18.313 14.0413L19.6356 13.5101L19.9024 14.1914L18.6728 14.711C18.3768 14.8381 18.2436 15.1728 18.3654 15.4675C18.4582 15.6869 18.6728 15.8196 18.899 15.8196C18.9745 15.8196 19.0498 15.8022 19.1253 15.7734L20.3203 15.2652L20.6915 16.2123L19.5254 16.7493C19.2353 16.8822 19.1078 17.2286 19.2411 17.5173C19.3397 17.731 19.5485 17.8523 19.7689 17.8523C19.8502 17.8523 19.9313 17.8349 20.0127 17.8003L21.1148 17.2921L21.3758 17.9505C21.428 18.0834 21.5266 18.1931 21.6601 18.2564L27.5362 21.1608C27.7333 21.2589 27.8494 21.4609 27.8377 21.669C26.9443 21.9462 24.015 22.772 21.0509 22.5697C18.1042 22.3735 15.8187 20.8952 14.8617 19.515L14.6007 19.1397L14.5945 19.1307C13.3814 17.3628 11.3538 14.4079 8.74791 12.9035C8.42308 12.713 8.1041 12.4936 7.79646 12.2451C10.952 9.2368 9.48445 5.83006 8.65487 4.44422C9.43759 4.19071 10.2903 4.08065 11.2418 4.20777Z" fill="white"/>
    <path d="M7.58732 4.87768C8.24866 5.89391 9.73926 8.84469 6.93767 11.466C5.64998 10.2071 4.65223 8.73463 4.26932 8.13427C4.66965 7.47593 5.79492 5.83619 7.58732 4.87768Z" fill="white"/>
    <path d="M20.2734 24.8102C16.9729 24.5734 13.6836 22.8758 12.4543 20.7741C11.7119 19.5036 10.8998 18.5567 10.0703 17.8119C10.068 17.8097 10.0658 17.8083 10.0639 17.8072C10.0608 17.8053 10.0586 17.8039 10.0586 17.8003C8.80568 16.6802 7.50053 16.0161 6.29395 15.4039L5.82418 15.1613C3.52706 13.9776 2.29158 12.7245 1.82738 11.102C1.5142 10.0106 2.70332 9.23122 3.37628 8.88463C4.06068 9.94121 5.92853 12.5919 8.17929 13.8967C10.5633 15.2769 12.5009 18.1003 13.655 19.7864L13.916 20.1675C15.2733 22.1308 18.046 23.5224 20.9812 23.7186C22.9477 23.8457 24.8733 23.5743 26.2831 23.2681C24.6471 24.4349 22.5763 24.9777 20.2734 24.8102Z" fill="white"/>
    <path d="M1.97202 13.7352L0.579983 13.7355C0.26098 13.7355 0 13.9953 0 14.3128C0 14.6304 0.26098 14.8902 0.579983 14.8902H3.21359L1.97202 13.7352Z" fill="white"/>
    <path d="M7.9411 17.6389H0.580064C0.261061 17.6389 8.10824e-05 17.8987 8.10824e-05 18.2163C8.10824e-05 18.5339 0.261061 18.7936 0.580064 18.7936H9.43208L7.9411 17.6389Z" fill="white"/>
    <path fill-rule="evenodd" clip-rule="evenodd" d="M22.373 17.3156L28.052 20.1218C28.8699 20.5204 29.2126 21.4614 28.8649 22.293C28.862 22.2987 28.8605 22.3045 28.8591 22.3103L28.8585 22.3125C28.8572 22.3175 28.8558 22.3225 28.8533 22.3276C28.8515 22.3311 28.8502 22.3346 28.8492 22.3382C28.8486 22.3404 28.848 22.3426 28.8474 22.3448C28.846 22.3506 28.8445 22.3564 28.8416 22.3621C28.83 22.3853 28.8127 22.4083 28.7953 22.4315C28.7894 22.4489 28.7836 22.466 28.772 22.4776L28.7428 22.5066C26.9154 24.7759 24.2238 26 21.0915 26C20.7958 26 20.4941 25.9886 20.1925 25.9654C17.1878 25.746 14.2644 24.4639 12.5009 22.6913L11.5668 21.5366C11.5519 21.5119 11.5348 21.4871 11.5175 21.4619C11.4943 21.4283 11.4706 21.3939 11.4507 21.3575C10.8186 20.272 10.1398 19.452 9.43208 18.7936L7.9411 17.6389C7.24108 17.1836 6.53022 16.8214 5.82423 16.4618L5.76585 16.432L5.29027 16.1894C4.48399 15.7737 3.7994 15.3406 3.21359 14.8902L1.97202 13.7352C1.36873 13.0307 0.945356 12.2743 0.701611 11.414C0.0750151 9.23121 2.45902 8.00133 3.18419 7.68377C3.58431 7.01387 5.08101 4.73881 7.56358 3.62445C7.57536 3.62164 7.58707 3.61581 7.59878 3.60998C7.61025 3.60427 7.62173 3.59856 7.63326 3.59569C8.84543 3.0645 10.2958 2.8105 11.9604 3.16262C12.2564 3.22594 12.4535 3.49734 12.4188 3.79193L12.4181 3.80244C12.403 4.00046 12.1828 6.89467 14.3156 8.27276C14.3599 8.30323 14.4021 8.3258 14.4446 8.34856C14.4746 8.36462 14.5048 8.38078 14.5361 8.39988C15.0291 7.64924 16.1022 6.34421 17.6452 6.29805C17.889 6.29225 18.1152 6.44233 18.2022 6.66757L20.4993 12.5344L21.1781 14.2667L22.373 17.3156ZM17.292 7.5107L17.7967 8.80411C17.0601 8.97739 16.4047 9.0987 15.6156 8.87926C15.9577 8.38843 16.5435 7.71276 17.292 7.5107ZM11.2418 4.20777C11.2418 5.31656 11.4911 7.82827 13.6839 9.243C14.7686 9.94748 15.6734 10.1553 16.4741 10.1553C17.1063 10.1553 17.669 10.0224 18.2026 9.8955C18.2084 9.8955 18.2142 9.8955 18.2201 9.8897L18.4985 10.6058L17.0657 11.2293C16.7697 11.3564 16.6364 11.6969 16.7641 11.9915C16.8569 12.2109 17.0715 12.338 17.2978 12.338C17.3733 12.338 17.4543 12.3206 17.5298 12.2919L18.9219 11.6855L19.212 12.4303L17.8779 12.9673C17.582 13.0887 17.4371 13.4236 17.5589 13.718C17.6517 13.9432 17.8663 14.0817 18.0984 14.0817C18.1739 14.0817 18.2433 14.0701 18.313 14.0413L19.6356 13.5101L19.9024 14.1914L18.6728 14.711C18.3768 14.8381 18.2436 15.1728 18.3654 15.4675C18.4582 15.6869 18.6728 15.8196 18.899 15.8196C18.9745 15.8196 19.0498 15.8022 19.1253 15.7734L20.3203 15.2652L20.6915 16.2123L19.5254 16.7493C19.2353 16.8822 19.1078 17.2286 19.2411 17.5173C19.3397 17.731 19.5485 17.8523 19.7689 17.8523C19.8502 17.8523 19.9313 17.8349 20.0127 17.8003L21.1148 17.2921L21.3758 17.9505C21.428 18.0834 21.5266 18.1931 21.6601 18.2564L27.5362 21.1608C27.7333 21.2589 27.8494 21.4609 27.8377 21.669C26.9443 21.9462 24.015 22.772 21.0509 22.5697C18.1042 22.3735 15.8187 20.8952 14.8617 19.515L14.6007 19.1397L14.5945 19.1307C13.3814 17.3628 11.3538 14.4079 8.74791 12.9035C8.42308 12.713 8.1041 12.4936 7.79646 12.2451C10.952 9.2368 9.48445 5.83006 8.65487 4.44422C9.43759 4.19071 10.2903 4.08065 11.2418 4.20777ZM7.58732 4.87768C8.24866 5.89391 9.73926 8.84469 6.93767 11.466C5.64998 10.2071 4.65223 8.73463 4.26932 8.13427C4.66965 7.47593 5.79492 5.83619 7.58732 4.87768ZM20.2734 24.8102C16.9729 24.5734 13.6836 22.8758 12.4543 20.7741C11.7119 19.5036 10.8998 18.5567 10.0703 17.8119C10.068 17.8097 10.0658 17.8083 10.0639 17.8072C10.0608 17.8053 10.0586 17.8039 10.0586 17.8003C8.80568 16.6802 7.50053 16.0161 6.29395 15.4039L5.82418 15.1613C3.52706 13.9776 2.29158 12.7245 1.82738 11.102C1.5142 10.0106 2.70332 9.23122 3.37628 8.88463C4.06068 9.94121 5.92853 12.5919 8.17929 13.8967C10.5633 15.2769 12.5009 18.1003 13.655 19.7864L13.916 20.1675C15.2733 22.1308 18.046 23.5224 20.9812 23.7186C22.9477 23.8457 24.8733 23.5743 26.2831 23.2681C24.6471 24.4349 22.5763 24.9777 20.2734 24.8102Z" fill="#071546"/>
    <path d="M11.5668 21.5366H0.580511C0.261508 21.5366 0.000528221 21.7964 0.000528221 22.1139C0.000528221 22.4315 0.261508 22.6913 0.580511 22.6913H12.5009L11.5668 21.5366Z" fill="white"/>
</svg>
