<svg xmlns="http://www.w3.org/2000/svg" width="149.289" height="150.871" viewBox="0 0 149.289 150.871">
  <g id="Group_189" data-name="Group 189" transform="translate(0)">
    <path id="Path_391" data-name="Path 391" d="M324.131,419a74.645,74.645,0,1,1-74.644-74.644A74.644,74.644,0,0,1,324.131,419" transform="translate(-174.842 -344.356)" fill="#ffbd00"/>
    <path id="Path_392" data-name="Path 392" d="M295.345,486.479H203.468V434.152a5.316,5.316,0,0,1,5.315-5.315H290.03a5.315,5.315,0,0,1,5.315,5.315Z" transform="translate(-174.842 -344.356)" fill="#fff"/>
    <path id="Path_393" data-name="Path 393" d="M295.345,484.979H207.254a24.894,24.894,0,0,0-3.623,0,1.109,1.109,0,0,1-.163,0l1.5,1.5V435.718c0-.513-.014-1.028,0-1.541a3.877,3.877,0,0,1,3.841-3.84c3.937-.124,7.9,0,11.837,0H289c.337,0,.675-.009,1.012,0a3.875,3.875,0,0,1,3.836,3.854c.045,1.7,0,3.414,0,5.118v47.17a1.5,1.5,0,0,0,3,0V435.207a16.176,16.176,0,0,0-.045-1.748,6.9,6.9,0,0,0-6.77-6.122c-3.8-.1-7.611,0-11.409,0H209.555c-.315,0-.632-.008-.947.006A6.9,6.9,0,0,0,202,433.631c-.14,1.623-.028,3.294-.028,4.92v47.928a1.522,1.522,0,0,0,1.5,1.5h80.568c3.7,0,7.448.168,11.147,0,.054,0,.108,0,.162,0a1.5,1.5,0,0,0,0-3" transform="translate(-174.842 -344.356)" fill="#071546"/>
    <path id="Path_394" data-name="Path 394" d="M305.536,493.644h-112.1v-5.179a3.986,3.986,0,0,1,3.986-3.986H301.55a3.986,3.986,0,0,1,3.986,3.986Z" transform="translate(-174.842 -344.356)" fill="#fff"/>
    <path id="Path_395" data-name="Path 395" d="M305.536,492.144H198.024a34,34,0,0,0-4.4,0,1.459,1.459,0,0,1-.187,0l1.5,1.5v-2.952a9.044,9.044,0,0,1,.171-3.151,2.726,2.726,0,0,1,2.8-1.562c2-.009,4,0,6,0H300.2c.435,0,.875-.022,1.309,0,2.783.141,2.525,2.811,2.525,4.834v2.831a1.5,1.5,0,0,0,3,0c0-2.09.357-4.542-.182-6.584a5.6,5.6,0,0,0-5.481-4.081c-1.791-.026-3.584,0-5.374,0H198.263a9.7,9.7,0,0,0-1.918.111,5.532,5.532,0,0,0-4.226,3.97,14.215,14.215,0,0,0-.182,3.511v3.073a1.522,1.522,0,0,0,1.5,1.5h98.305c4.522,0,9.088.186,13.607,0,.062,0,.125,0,.187,0a1.5,1.5,0,0,0,0-3" transform="translate(-174.842 -344.356)" fill="#071546"/>
    <rect id="Rectangle_46" data-name="Rectangle 46" width="74.023" height="45.795" transform="translate(38.108 94.328)" fill="#fff"/>
    <path id="Path_396" data-name="Path 396" d="M286.973,482.979H212.95l1.5,1.5v-45.8l-1.5,1.5h74.023l-1.5-1.5v45.8a1.5,1.5,0,0,0,3,0v-45.8a1.522,1.522,0,0,0-1.5-1.5H212.95a1.522,1.522,0,0,0-1.5,1.5v45.8a1.522,1.522,0,0,0,1.5,1.5h74.023a1.5,1.5,0,0,0,0-3" transform="translate(-174.842 -344.356)" fill="#071546"/>
    <path id="Path_397" data-name="Path 397" d="M295.454,381.421H228.165a6.336,6.336,0,0,0-6.336,6.336v60.5h73.625a6.336,6.336,0,0,0,6.336-6.337V387.757a6.336,6.336,0,0,0-6.336-6.336" transform="translate(-174.842 -344.356)" fill="#fff"/>
    <path id="Path_398" data-name="Path 398" d="M295.454,379.921H236.7c-2.785,0-5.571-.025-8.356,0a7.953,7.953,0,0,0-7.371,4.766,10.441,10.441,0,0,0-.64,4.242v30.452c0,9.46-.157,18.935,0,28.395,0,.159,0,.32,0,.48a1.522,1.522,0,0,0,1.5,1.5h72.489a10.435,10.435,0,0,0,4.028-.565,7.99,7.99,0,0,0,4.944-7.545c.065-10.14,0-20.283,0-30.423V393.551c0-3.6.62-7.894-1.86-10.853a7.984,7.984,0,0,0-5.976-2.777c-1.931-.052-1.93,2.948,0,3a4.953,4.953,0,0,1,4.836,5.217c.006,1.3,0,2.593,0,3.889v48.508a6.754,6.754,0,0,1-.832,4.1,5.27,5.27,0,0,1-4.684,2.119H231.255c-2.974,0-6.04-.216-9.009,0-.137.01-.279,0-.417,0l1.5,1.5V391.375c0-1.1-.006-2.2,0-3.3a4.941,4.941,0,0,1,4.489-5.149c2.178-.155,4.414-.009,6.6-.009h34.592c8.666,0,17.352.179,26.017,0,.144,0,.288,0,.432,0a1.5,1.5,0,0,0,0-3" transform="translate(-174.842 -344.356)" fill="#071546"/>
    <path id="Path_399" data-name="Path 399" d="M245.519,398.007l-13.806,13.806-1.965,1.965a1.5,1.5,0,0,0,2.121,2.121l13.807-13.806,1.964-1.965a1.5,1.5,0,0,0-2.121-2.121" transform="translate(-174.842 -344.356)" fill="#071546"/>
    <path id="Path_400" data-name="Path 400" d="M247.64,429.548l-13.711-13.711-1.951-1.95a1.5,1.5,0,0,0-2.121,2.121q6.855,6.857,13.711,13.711.975.977,1.951,1.95a1.5,1.5,0,0,0,2.121-2.121" transform="translate(-174.842 -344.356)" fill="#071546"/>
    <path id="Path_401" data-name="Path 401" d="M269.275,394.025q-2.938,6.765-5.876,13.529-4.687,10.8-9.377,21.591-1.083,2.5-2.168,4.992c-.761,1.753,1.823,3.283,2.591,1.514q2.937-6.764,5.875-13.529,4.689-10.8,9.377-21.591,1.085-2.5,2.168-4.992c.762-1.753-1.822-3.282-2.59-1.514" transform="translate(-174.842 -344.356)" fill="#071546"/>
    <path id="Path_402" data-name="Path 402" d="M278.1,431.67l13.806-13.806,1.965-1.965a1.5,1.5,0,0,0-2.121-2.121l-13.807,13.806-1.964,1.965a1.5,1.5,0,0,0,2.121,2.121" transform="translate(-174.842 -344.356)" fill="#071546"/>
    <path id="Path_403" data-name="Path 403" d="M275.978,400.128l13.711,13.711,1.951,1.951a1.5,1.5,0,0,0,2.121-2.122l-13.711-13.71-1.951-1.951a1.5,1.5,0,0,0-2.121,2.121" transform="translate(-174.842 -344.356)" fill="#071546"/>
  </g>
</svg>
