<svg id="Group_190" data-name="Group 190" xmlns="http://www.w3.org/2000/svg" width="149.289" height="150.864" viewBox="0 0 149.289 150.864">
  <path id="Path_404" data-name="Path 404" d="M947.625,419a74.645,74.645,0,1,1-74.644-74.644A74.644,74.644,0,0,1,947.625,419" transform="translate(-798.336 -344.356)" fill="#ffbd00"/>
  <path id="Path_405" data-name="Path 405" d="M918.847,418.9h-4.58a42.5,42.5,0,0,0-3.813-9.192l3.243-3.243a3.478,3.478,0,0,0,0-4.918l-11.588-11.587a3.476,3.476,0,0,0-4.917,0l-3.243,3.243a42.577,42.577,0,0,0-9.192-3.814v-4.58a3.478,3.478,0,0,0-3.478-3.477H864.892a3.477,3.477,0,0,0-3.477,3.477v4.58a42.555,42.555,0,0,0-9.192,3.814l-3.243-3.243a3.476,3.476,0,0,0-4.917,0l-11.588,11.587a3.478,3.478,0,0,0,0,4.918l3.243,3.243a42.5,42.5,0,0,0-3.813,9.192h-4.58a3.478,3.478,0,0,0-3.478,3.477v16.387a3.477,3.477,0,0,0,3.478,3.477h4.58a42.5,42.5,0,0,0,3.813,9.192l-3.243,3.243a3.478,3.478,0,0,0,0,4.918l11.588,11.587a3.477,3.477,0,0,0,4.917,0l3.243-3.243a42.552,42.552,0,0,0,9.192,3.814v4.58a3.477,3.477,0,0,0,3.477,3.477h16.387a3.477,3.477,0,0,0,3.478-3.477v-4.58a42.574,42.574,0,0,0,9.192-3.814l3.243,3.243a3.477,3.477,0,0,0,4.917,0L913.7,459.6a3.478,3.478,0,0,0,0-4.918l-3.243-3.243a42.5,42.5,0,0,0,3.813-9.192h4.58a3.477,3.477,0,0,0,3.478-3.477V422.379a3.478,3.478,0,0,0-3.478-3.477m-45.761,28.615a16.945,16.945,0,1,1,16.944-16.944,16.944,16.944,0,0,1-16.944,16.944" transform="translate(-798.336 -344.356)" fill="#fff"/>
  <path id="Path_406" data-name="Path 406" d="M918.848,417.4h-4.58l1.446,1.1a46.257,46.257,0,0,0-3.965-9.55l-.234,1.818c1.865-1.865,4.7-3.866,4.7-6.763,0-2.553-2.073-4.135-3.714-5.776l-6.405-6.4c-1.364-1.364-2.875-3.385-4.739-4.076-3.689-1.369-6.195,2.118-8.469,4.392l1.817-.234a46.257,46.257,0,0,0-9.55-3.965l1.1,1.447c0-2.578.58-5.941-1.349-7.987-1.794-1.9-4.361-1.571-6.719-1.571h-9.157c-1.987,0-4.643-.391-6.466.578-3.334,1.774-2.65,5.829-2.65,8.98l1.1-1.447a46.256,46.256,0,0,0-9.55,3.965l1.817.234c-1.864-1.865-3.865-4.7-6.762-4.7-2.553,0-4.135,2.073-5.776,3.714l-6.4,6.4c-1.364,1.364-3.385,2.875-4.077,4.739-1.368,3.69,2.119,6.2,4.393,8.47l-.234-1.818a46.257,46.257,0,0,0-3.965,9.55l1.446-1.1c-2.577,0-5.94-.58-7.986,1.349-1.9,1.794-1.571,4.361-1.571,6.72v9.156c0,1.988-.391,4.643.578,6.466,1.773,3.334,5.829,2.651,8.979,2.651l-1.446-1.1a46.266,46.266,0,0,0,3.965,9.551l.234-1.818c-1.865,1.865-4.7,3.865-4.7,6.762,0,2.554,2.073,4.135,3.714,5.776l6.4,6.4c1.364,1.364,2.875,3.384,4.739,4.076,3.689,1.369,6.2-2.119,8.469-4.393l-1.817.235a46.254,46.254,0,0,0,9.55,3.964l-1.1-1.446c0,2.578-.58,5.941,1.349,7.986,1.794,1.9,4.361,1.572,6.719,1.572h9.157c1.987,0,4.643.391,6.466-.579,3.334-1.773,2.65-5.828,2.65-8.979l-1.1,1.446a46.255,46.255,0,0,0,9.55-3.964L892.889,469c1.864,1.865,3.865,4.7,6.762,4.7,2.553,0,4.135-2.073,5.776-3.714l6.4-6.4c1.364-1.364,3.385-2.875,4.077-4.739,1.368-3.69-2.119-6.2-4.393-8.47l.234,1.818a46.265,46.265,0,0,0,3.965-9.551l-1.446,1.1c2.065,0,4.683.416,6.617-.448,2.416-1.079,2.94-3.372,2.94-5.744V423.394a9.175,9.175,0,0,0-.154-2.232,5.07,5.07,0,0,0-4.823-3.76c-1.93-.092-1.925,2.908,0,3,2.02.1,1.977,1.922,1.977,3.4v12.717c0,1.168.3,2.9-.692,3.749-.763.655-1.919.471-2.85.471h-3.015a1.532,1.532,0,0,0-1.447,1.1,42.6,42.6,0,0,1-3.662,8.833,1.536,1.536,0,0,0,.235,1.818l2.134,2.135c.762.762,1.848,1.552,1.678,2.772-.193,1.377-2.219,2.782-3.117,3.68L904.37,466.8c-1.095,1.1-2.144,2.308-3.319,3.319-1.346,1.158-2.5.3-3.514-.714l-2.527-2.527a1.537,1.537,0,0,0-1.818-.235,42.6,42.6,0,0,1-8.833,3.663,1.531,1.531,0,0,0-1.1,1.446v3.13c0,1.075.184,2.293-.791,3.03-1.107.837-3.518.4-4.788.4h-8.2c-1.515,0-3.072.1-4.584,0-1.715-.119-1.977-1.484-1.977-2.886v-3.672a1.532,1.532,0,0,0-1.1-1.446,42.6,42.6,0,0,1-8.833-3.663,1.538,1.538,0,0,0-1.818.235q-1.066,1.068-2.135,2.135c-.762.762-1.552,1.848-2.771,1.677-1.378-.193-2.783-2.219-3.68-3.116l-5.72-5.72c-1.095-1.1-2.308-2.143-3.319-3.319-1.157-1.346-.3-2.5.715-3.514l2.526-2.527a1.535,1.535,0,0,0,.235-1.818,42.6,42.6,0,0,1-3.662-8.833,1.533,1.533,0,0,0-1.447-1.1h-3.13c-1.074,0-2.293.184-3.03-.791-.837-1.108-.4-3.519-.4-4.789v-8.2c0-1.515-.105-3.072,0-4.584.118-1.714,1.483-1.977,2.885-1.977h3.672a1.532,1.532,0,0,0,1.447-1.1,42.629,42.629,0,0,1,3.662-8.834,1.537,1.537,0,0,0-.235-1.818l-2.134-2.134c-.762-.762-1.848-1.553-1.678-2.772.193-1.378,2.219-2.782,3.117-3.68l5.719-5.719c1.1-1.1,2.144-2.309,3.319-3.32,1.346-1.157,2.5-.3,3.514.715q1.265,1.263,2.527,2.527a1.536,1.536,0,0,0,1.818.234,42.649,42.649,0,0,1,8.833-3.662,1.533,1.533,0,0,0,1.1-1.446v-3.13c0-1.075-.184-2.293.791-3.03,1.107-.838,3.518-.4,4.788-.4h8.2c1.515,0,3.072-.1,4.584,0,1.715.118,1.977,1.483,1.977,2.885v3.673a1.532,1.532,0,0,0,1.1,1.446,42.65,42.65,0,0,1,8.833,3.662,1.537,1.537,0,0,0,1.818-.234q1.066-1.068,2.135-2.135c.762-.762,1.552-1.848,2.771-1.677,1.378.192,2.783,2.218,3.68,3.116l5.72,5.719c1.1,1.1,2.308,2.144,3.319,3.319,1.157,1.346.3,2.5-.715,3.515l-2.526,2.526a1.535,1.535,0,0,0-.235,1.818,42.625,42.625,0,0,1,3.662,8.834,1.533,1.533,0,0,0,1.447,1.1h4.58a1.5,1.5,0,0,0,0-3" transform="translate(-798.336 -344.356)" fill="#071546"/>
  <path id="Path_407" data-name="Path 407" d="M873.086,446.017a15.444,15.444,0,1,1,15.154-12.428,15.6,15.6,0,0,1-15.154,12.428,1.5,1.5,0,0,0,0,3,18.446,18.446,0,1,0-18.079-14.8,18.689,18.689,0,0,0,18.079,14.8,1.5,1.5,0,0,0,0-3" transform="translate(-798.336 -344.356)" fill="#071546"/>
  <rect id="Rectangle_47" data-name="Rectangle 47" width="92.82" height="56.282" transform="translate(18.595 93.007)" fill="#fff"/>
  <path id="Path_408" data-name="Path 408" d="M909.751,492.144H820.744a25.289,25.289,0,0,0-3.652,0,1.081,1.081,0,0,1-.161,0l1.5,1.5V437.362l-1.5,1.5h89.008a25.136,25.136,0,0,0,3.651,0,1.081,1.081,0,0,1,.161,0l-1.5-1.5v56.282a1.5,1.5,0,0,0,3,0V437.362a1.522,1.522,0,0,0-1.5-1.5H828.34c-3.735,0-7.515-.169-11.248,0-.053,0-.107,0-.161,0a1.522,1.522,0,0,0-1.5,1.5v56.282a1.522,1.522,0,0,0,1.5,1.5h81.412c3.735,0,7.515.17,11.247,0,.053,0,.107,0,.161,0a1.5,1.5,0,0,0,0-3" transform="translate(-798.336 -344.356)" fill="#071546"/>
  <path id="Path_409" data-name="Path 409" d="M826.243,444.054a1.99,1.99,0,1,1-1.99-1.99,1.99,1.99,0,0,1,1.99,1.99" transform="translate(-798.336 -344.356)" fill="#fff"/>
  <path id="Path_410" data-name="Path 410" d="M824.743,444.054a2.3,2.3,0,0,1-.019.275l.054-.4a2.181,2.181,0,0,1-.143.512l.151-.358a2.165,2.165,0,0,1-.266.446l.234-.3a2.134,2.134,0,0,1-.329.329l.3-.234a2.166,2.166,0,0,1-.446.266l.358-.151a2.178,2.178,0,0,1-.512.143l.4-.054a2.191,2.191,0,0,1-.549,0l.4.054a2.179,2.179,0,0,1-.512-.143l.358.151a2.166,2.166,0,0,1-.446-.266l.3.234a2.224,2.224,0,0,1-.329-.329l.235.3a2.168,2.168,0,0,1-.266-.446c.05.119.1.239.151.358a2.178,2.178,0,0,1-.143-.512l.054.4a2.2,2.2,0,0,1,0-.55l-.054.4a2.179,2.179,0,0,1,.143-.512c-.051.119-.1.239-.151.358a2.168,2.168,0,0,1,.266-.446l-.235.3a2.224,2.224,0,0,1,.329-.329l-.3.234a2.166,2.166,0,0,1,.446-.266l-.358.151a2.179,2.179,0,0,1,.512-.143l-.4.054a2.191,2.191,0,0,1,.549,0l-.4-.054a2.178,2.178,0,0,1,.512.143l-.358-.151a2.166,2.166,0,0,1,.446.266l-.3-.234a2.134,2.134,0,0,1,.329.329l-.234-.3a2.165,2.165,0,0,1,.266.446l-.151-.358a2.182,2.182,0,0,1,.143.512l-.054-.4a2.3,2.3,0,0,1,.019.275,1.5,1.5,0,0,0,3,0,3.442,3.442,0,0,0-.586-1.928,3.727,3.727,0,0,0-1.792-1.377,3.465,3.465,0,0,0-3.719.991,3.96,3.96,0,0,0-.668,1.128,3.493,3.493,0,0,0-.206.993,3.463,3.463,0,0,0,1.913,3.306,3.742,3.742,0,0,0,2.321.292,3.313,3.313,0,0,0,1.837-1.071,3.629,3.629,0,0,0,.9-2.334,1.5,1.5,0,0,0-3,0" transform="translate(-798.336 -344.356)" fill="#071546"/>
  <path id="Path_411" data-name="Path 411" d="M834.916,444.054a1.99,1.99,0,1,1-1.99-1.99,1.99,1.99,0,0,1,1.99,1.99" transform="translate(-798.336 -344.356)" fill="#fff"/>
  <path id="Path_412" data-name="Path 412" d="M833.416,444.054a2.313,2.313,0,0,1-.019.275l.054-.4a2.175,2.175,0,0,1-.143.512l.151-.358a2.165,2.165,0,0,1-.266.446l.234-.3a2.136,2.136,0,0,1-.329.329l.3-.234a2.145,2.145,0,0,1-.447.266l.359-.151a2.179,2.179,0,0,1-.512.143l.4-.054a2.192,2.192,0,0,1-.549,0l.4.054a2.178,2.178,0,0,1-.512-.143l.358.151a2.166,2.166,0,0,1-.446-.266l.3.234a2.226,2.226,0,0,1-.329-.329l.235.3a2.165,2.165,0,0,1-.266-.446c.05.119.1.239.151.358a2.175,2.175,0,0,1-.143-.512l.054.4a2.2,2.2,0,0,1,0-.55l-.054.4a2.176,2.176,0,0,1,.143-.512c-.051.119-.1.239-.151.358a2.165,2.165,0,0,1,.266-.446l-.235.3a2.226,2.226,0,0,1,.329-.329l-.3.234a2.166,2.166,0,0,1,.446-.266l-.358.151a2.178,2.178,0,0,1,.512-.143l-.4.054a2.192,2.192,0,0,1,.549,0l-.4-.054a2.179,2.179,0,0,1,.512.143l-.359-.151a2.145,2.145,0,0,1,.447.266l-.3-.234a2.136,2.136,0,0,1,.329.329l-.234-.3a2.165,2.165,0,0,1,.266.446l-.151-.358a2.176,2.176,0,0,1,.143.512l-.054-.4a2.313,2.313,0,0,1,.019.275,1.5,1.5,0,0,0,3,0,3.442,3.442,0,0,0-.586-1.928,3.727,3.727,0,0,0-1.792-1.377,3.463,3.463,0,0,0-3.719.991,3.962,3.962,0,0,0-.668,1.128,3.493,3.493,0,0,0-.206.993,3.373,3.373,0,0,0,.476,1.969,3.407,3.407,0,0,0,1.437,1.337,3.742,3.742,0,0,0,2.321.292,3.313,3.313,0,0,0,1.837-1.071,3.629,3.629,0,0,0,.9-2.334,1.5,1.5,0,0,0-3,0" transform="translate(-798.336 -344.356)" fill="#071546"/>
  <path id="Path_413" data-name="Path 413" d="M843.589,444.054a1.99,1.99,0,1,1-1.99-1.99,1.99,1.99,0,0,1,1.99,1.99" transform="translate(-798.336 -344.356)" fill="#fff"/>
  <path id="Path_414" data-name="Path 414" d="M842.089,444.054a2.313,2.313,0,0,1-.019.275l.054-.4a2.181,2.181,0,0,1-.143.512l.151-.358a2.168,2.168,0,0,1-.266.446l.234-.3a2.131,2.131,0,0,1-.329.329l.3-.234a2.167,2.167,0,0,1-.446.266l.358-.151a2.179,2.179,0,0,1-.512.143l.4-.054a2.192,2.192,0,0,1-.549,0l.4.054a2.179,2.179,0,0,1-.512-.143l.358.151a2.167,2.167,0,0,1-.446-.266l.3.234a2.224,2.224,0,0,1-.329-.329l.235.3a2.168,2.168,0,0,1-.266-.446c.05.119.1.239.151.358a2.181,2.181,0,0,1-.143-.512l.054.4a2.2,2.2,0,0,1,0-.55l-.054.4a2.182,2.182,0,0,1,.143-.512c-.051.119-.1.239-.151.358a2.168,2.168,0,0,1,.266-.446l-.235.3a2.224,2.224,0,0,1,.329-.329l-.3.234a2.167,2.167,0,0,1,.446-.266l-.358.151a2.179,2.179,0,0,1,.512-.143l-.4.054a2.192,2.192,0,0,1,.549,0l-.4-.054a2.179,2.179,0,0,1,.512.143l-.358-.151a2.167,2.167,0,0,1,.446.266l-.3-.234a2.131,2.131,0,0,1,.329.329l-.234-.3a2.168,2.168,0,0,1,.266.446l-.151-.358a2.182,2.182,0,0,1,.143.512l-.054-.4a2.313,2.313,0,0,1,.019.275,1.5,1.5,0,0,0,3,0,3.442,3.442,0,0,0-.586-1.928,3.727,3.727,0,0,0-1.792-1.377,3.463,3.463,0,0,0-3.719.991,3.962,3.962,0,0,0-.668,1.128,3.5,3.5,0,0,0-.206.993,3.463,3.463,0,0,0,1.913,3.306,3.742,3.742,0,0,0,2.321.292,3.313,3.313,0,0,0,1.837-1.071,3.629,3.629,0,0,0,.9-2.334,1.5,1.5,0,0,0-3,0" transform="translate(-798.336 -344.356)" fill="#071546"/>
  <line id="Line_9" data-name="Line 9" x2="92.82" transform="translate(18.595 106.62)" fill="#fff"/>
  <path id="Path_415" data-name="Path 415" d="M816.931,452.476h81.411c3.735,0,7.515.17,11.247,0,.054,0,.108,0,.162,0a1.5,1.5,0,0,0,0-3H828.339c-3.735,0-7.515-.17-11.247,0-.053,0-.107,0-.161,0a1.5,1.5,0,0,0,0,3" transform="translate(-798.336 -344.356)" fill="#071546"/>
  <rect id="Rectangle_48" data-name="Rectangle 48" width="92.82" height="56.282" transform="translate(37.874 79.174)" fill="#fff"/>
  <path id="Path_416" data-name="Path 416" d="M929.03,478.312H840.023a25.275,25.275,0,0,0-3.651,0,1.1,1.1,0,0,1-.162,0l1.5,1.5V423.53l-1.5,1.5h89.008a25.136,25.136,0,0,0,3.651,0,1.082,1.082,0,0,1,.161,0l-1.5-1.5v56.282a1.5,1.5,0,0,0,3,0V423.53a1.522,1.522,0,0,0-1.5-1.5H847.619c-3.735,0-7.515-.169-11.247,0-.054,0-.108,0-.162,0a1.522,1.522,0,0,0-1.5,1.5v56.282a1.522,1.522,0,0,0,1.5,1.5h81.412c3.735,0,7.515.17,11.247,0,.053,0,.107,0,.161,0a1.5,1.5,0,0,0,0-3" transform="translate(-798.336 -344.356)" fill="#071546"/>
  <path id="Path_417" data-name="Path 417" d="M845.523,430.221a1.99,1.99,0,1,1-1.99-1.99,1.99,1.99,0,0,1,1.99,1.99" transform="translate(-798.336 -344.356)" fill="#fff"/>
  <path id="Path_418" data-name="Path 418" d="M844.023,430.221a2.326,2.326,0,0,1-.019.275l.054-.4a2.176,2.176,0,0,1-.143.512l.151-.358a2.163,2.163,0,0,1-.266.446l.234-.3a2.132,2.132,0,0,1-.329.329l.3-.234a2.144,2.144,0,0,1-.447.266l.359-.151a2.179,2.179,0,0,1-.512.143l.4-.054a2.192,2.192,0,0,1-.549,0l.4.054a2.178,2.178,0,0,1-.512-.143l.358.151a2.164,2.164,0,0,1-.446-.266l.3.234a2.225,2.225,0,0,1-.329-.329l.235.3a2.163,2.163,0,0,1-.266-.446c.05.119.1.239.151.358a2.176,2.176,0,0,1-.143-.512l.054.4a2.2,2.2,0,0,1,0-.55l-.054.4a2.175,2.175,0,0,1,.143-.512c-.051.119-.1.239-.151.358a2.164,2.164,0,0,1,.266-.446l-.235.3a2.225,2.225,0,0,1,.329-.329l-.3.234a2.164,2.164,0,0,1,.446-.266l-.358.151a2.176,2.176,0,0,1,.512-.143l-.4.054a2.192,2.192,0,0,1,.549,0l-.4-.054a2.177,2.177,0,0,1,.512.143l-.359-.151a2.144,2.144,0,0,1,.447.266l-.3-.234a2.132,2.132,0,0,1,.329.329l-.234-.3a2.164,2.164,0,0,1,.266.446l-.151-.358a2.175,2.175,0,0,1,.143.512l-.054-.4a2.325,2.325,0,0,1,.019.275,1.5,1.5,0,1,0,3,0,3.442,3.442,0,0,0-.586-1.928,3.727,3.727,0,0,0-1.792-1.377,3.463,3.463,0,0,0-3.719.991,3.961,3.961,0,0,0-.668,1.128,3.5,3.5,0,0,0-.206.993,3.373,3.373,0,0,0,.476,1.969,3.408,3.408,0,0,0,1.437,1.337,3.742,3.742,0,0,0,2.321.292,3.313,3.313,0,0,0,1.837-1.071,3.629,3.629,0,0,0,.9-2.334,1.5,1.5,0,0,0-3,0" transform="translate(-798.336 -344.356)" fill="#071546"/>
  <path id="Path_419" data-name="Path 419" d="M854.2,430.221a1.99,1.99,0,1,1-1.99-1.99,1.99,1.99,0,0,1,1.99,1.99" transform="translate(-798.336 -344.356)" fill="#fff"/>
  <path id="Path_420" data-name="Path 420" d="M852.7,430.221a2.3,2.3,0,0,1-.019.275l.054-.4a2.182,2.182,0,0,1-.143.512l.151-.358a2.163,2.163,0,0,1-.266.446l.234-.3a2.129,2.129,0,0,1-.329.329l.3-.234a2.164,2.164,0,0,1-.446.266l.358-.151a2.179,2.179,0,0,1-.512.143l.4-.054a2.191,2.191,0,0,1-.549,0l.4.054a2.179,2.179,0,0,1-.512-.143l.358.151a2.165,2.165,0,0,1-.446-.266l.3.234a2.222,2.222,0,0,1-.329-.329l.235.3a2.164,2.164,0,0,1-.266-.446c.05.119.1.239.151.358a2.179,2.179,0,0,1-.143-.512l.054.4a2.2,2.2,0,0,1,0-.55l-.054.4a2.178,2.178,0,0,1,.143-.512c-.051.119-.1.239-.151.358a2.165,2.165,0,0,1,.266-.446l-.235.3a2.222,2.222,0,0,1,.329-.329l-.3.234a2.165,2.165,0,0,1,.446-.266l-.358.151a2.177,2.177,0,0,1,.512-.143l-.4.054a2.191,2.191,0,0,1,.549,0l-.4-.054a2.177,2.177,0,0,1,.512.143l-.358-.151a2.164,2.164,0,0,1,.446.266l-.3-.234a2.129,2.129,0,0,1,.329.329l-.234-.3a2.164,2.164,0,0,1,.266.446l-.151-.358a2.181,2.181,0,0,1,.143.512l-.054-.4a2.3,2.3,0,0,1,.019.275,1.5,1.5,0,1,0,3,0,3.442,3.442,0,0,0-.586-1.928,3.727,3.727,0,0,0-1.792-1.377,3.463,3.463,0,0,0-3.719.991,3.961,3.961,0,0,0-.668,1.128,3.493,3.493,0,0,0-.206.993,3.463,3.463,0,0,0,1.913,3.306,3.742,3.742,0,0,0,2.321.292,3.313,3.313,0,0,0,1.837-1.071,3.629,3.629,0,0,0,.9-2.334,1.5,1.5,0,0,0-3,0" transform="translate(-798.336 -344.356)" fill="#071546"/>
  <path id="Path_421" data-name="Path 421" d="M862.869,430.221a1.99,1.99,0,1,1-1.99-1.99,1.99,1.99,0,0,1,1.99,1.99" transform="translate(-798.336 -344.356)" fill="#fff"/>
  <path id="Path_422" data-name="Path 422" d="M861.369,430.221a2.313,2.313,0,0,1-.019.275l.054-.4a2.176,2.176,0,0,1-.143.512l.151-.358a2.163,2.163,0,0,1-.266.446l.234-.3a2.135,2.135,0,0,1-.329.329l.3-.234a2.146,2.146,0,0,1-.447.266l.359-.151a2.179,2.179,0,0,1-.512.143l.4-.054a2.192,2.192,0,0,1-.549,0l.4.054a2.178,2.178,0,0,1-.512-.143l.358.151a2.164,2.164,0,0,1-.446-.266l.3.234a2.225,2.225,0,0,1-.329-.329l.235.3a2.163,2.163,0,0,1-.266-.446c.05.119.1.239.151.358a2.176,2.176,0,0,1-.143-.512l.054.4a2.2,2.2,0,0,1,0-.55l-.054.4a2.175,2.175,0,0,1,.143-.512c-.051.119-.1.239-.151.358a2.164,2.164,0,0,1,.266-.446l-.235.3a2.225,2.225,0,0,1,.329-.329l-.3.234a2.164,2.164,0,0,1,.446-.266l-.358.151A2.176,2.176,0,0,1,861,429.7l-.4.054a2.192,2.192,0,0,1,.549,0l-.4-.054a2.177,2.177,0,0,1,.512.143l-.359-.151a2.146,2.146,0,0,1,.447.266l-.3-.234a2.135,2.135,0,0,1,.329.329l-.234-.3a2.164,2.164,0,0,1,.266.446l-.151-.358a2.175,2.175,0,0,1,.143.512l-.054-.4a2.313,2.313,0,0,1,.019.275,1.5,1.5,0,1,0,3,0,3.442,3.442,0,0,0-.586-1.928,3.727,3.727,0,0,0-1.792-1.377,3.463,3.463,0,0,0-3.719.991,3.962,3.962,0,0,0-.668,1.128,3.493,3.493,0,0,0-.206.993,3.373,3.373,0,0,0,.476,1.969,3.408,3.408,0,0,0,1.437,1.337,3.742,3.742,0,0,0,2.321.292,3.313,3.313,0,0,0,1.837-1.071,3.629,3.629,0,0,0,.9-2.334,1.5,1.5,0,0,0-3,0" transform="translate(-798.336 -344.356)" fill="#071546"/>
  <line id="Line_10" data-name="Line 10" x2="92.82" transform="translate(37.874 92.788)" fill="#fff"/>
  <path id="Path_423" data-name="Path 423" d="M836.21,438.643h81.411c3.735,0,7.515.171,11.248,0,.053,0,.107,0,.161,0a1.5,1.5,0,0,0,0-3H847.618c-3.735,0-7.515-.17-11.247,0-.053,0-.107,0-.161,0a1.5,1.5,0,0,0,0,3" transform="translate(-798.336 -344.356)" fill="#071546"/>
  <path id="Path_424" data-name="Path 424" d="M870.905,446.369l-9.659,9.659-1.374,1.374a1.5,1.5,0,0,0,2.121,2.122l9.659-9.659,1.374-1.375a1.5,1.5,0,0,0-2.121-2.121" transform="translate(-798.336 -344.356)" fill="#071546"/>
  <path id="Path_425" data-name="Path 425" d="M873.026,468.436l-9.592-9.592-1.365-1.365a1.5,1.5,0,0,0-2.121,2.121q4.8,4.8,9.592,9.592l1.365,1.365a1.5,1.5,0,0,0,2.121-2.121" transform="translate(-798.336 -344.356)" fill="#071546"/>
  <path id="Path_426" data-name="Path 426" d="M887.454,443.675l-10.676,24.582-1.512,3.481c-.761,1.753,1.823,3.282,2.591,1.514q5.337-12.291,10.676-24.582.756-1.74,1.511-3.481c.762-1.753-1.822-3.282-2.59-1.514" transform="translate(-798.336 -344.356)" fill="#071546"/>
  <path id="Path_427" data-name="Path 427" d="M894.336,470.557l9.659-9.659,1.374-1.374a1.5,1.5,0,0,0-2.121-2.122l-9.659,9.659-1.374,1.375a1.5,1.5,0,0,0,2.121,2.121" transform="translate(-798.336 -344.356)" fill="#071546"/>
  <path id="Path_428" data-name="Path 428" d="M892.215,448.491l9.592,9.592,1.365,1.365a1.5,1.5,0,0,0,2.121-2.121l-9.592-9.592-1.365-1.365a1.5,1.5,0,0,0-2.121,2.121" transform="translate(-798.336 -344.356)" fill="#071546"/>
</svg>
