<svg width="29" height="29" viewBox="0 0 29 29" fill="none" xmlns="http://www.w3.org/2000/svg">
    <path d="M14.5 29C22.5081 29 29 22.5081 29 14.5C29 6.49187 22.5081 0 14.5 0C6.49187 0 0 6.49187 0 14.5C0 22.5081 6.49187 29 14.5 29Z" fill="white"/>
    <path d="M11.3852 8.12094C8.43928 7.58444 6.10999 8.14598 5.18165 9.75389C4.48893 10.9538 4.68695 12.5446 5.66196 14.245C5.68121 14.2804 5.70733 14.3115 5.73877 14.3366C5.7702 14.3617 5.80634 14.3802 5.84504 14.3912C5.88375 14.4021 5.92425 14.4052 5.96418 14.4003C6.0041 14.3954 6.04264 14.3825 6.07753 14.3625C6.11242 14.3425 6.14297 14.3157 6.16738 14.2838C6.19178 14.2518 6.20956 14.2153 6.21966 14.1763C6.22977 14.1374 6.23199 14.0968 6.22621 14.057C6.22043 14.0172 6.20676 13.979 6.186 13.9445C5.30784 12.4127 5.1369 11.0399 5.7049 10.056C6.47611 8.72032 8.55369 8.21938 11.2769 8.71533C11.3551 8.72836 11.4354 8.71009 11.5002 8.66446C11.5651 8.61883 11.6095 8.54951 11.6237 8.47147C11.6379 8.39342 11.6209 8.31292 11.5762 8.24733C11.5316 8.18175 11.463 8.13635 11.3852 8.12094ZM7.19386 16.312C8.38502 17.6209 9.93255 18.8488 11.6975 19.8676C15.9708 22.3349 20.5202 22.9943 22.7622 21.4656C22.7958 21.4436 22.8246 21.4151 22.847 21.3818C22.8694 21.3485 22.8849 21.3111 22.8927 21.2718C22.9005 21.2324 22.9004 21.1919 22.8924 21.1526C22.8844 21.1133 22.8686 21.076 22.846 21.0428C22.8234 21.0097 22.7944 20.9814 22.7607 20.9595C22.7271 20.9377 22.6894 20.9228 22.6499 20.9157C22.6104 20.9086 22.5699 20.9094 22.5307 20.9181C22.4916 20.9269 22.4546 20.9433 22.4218 20.9665C20.4151 22.3347 16.0937 21.7082 11.9996 19.3445C10.2875 18.356 8.78886 17.167 7.64076 15.9053C7.6141 15.8758 7.58188 15.8518 7.54594 15.8348C7.51 15.8177 7.47105 15.808 7.43133 15.806C7.3916 15.8041 7.35188 15.81 7.31444 15.8234C7.27701 15.8368 7.2426 15.8575 7.21318 15.8843C7.18376 15.9111 7.15992 15.9434 7.14302 15.9794C7.12612 16.0154 7.1165 16.0544 7.11471 16.0941C7.11291 16.1339 7.11898 16.1736 7.13256 16.2109C7.14615 16.2483 7.16698 16.2827 7.19386 16.312Z" fill="#071546"/>
    <path d="M22.0468 15.9447C23.9758 13.6659 24.6493 11.374 23.7228 9.76947C23.0412 8.58874 21.6002 7.96535 19.6849 7.94043C19.6056 7.94055 19.5294 7.97189 19.473 8.0277C19.4165 8.0835 19.3843 8.15927 19.3833 8.23864C19.3823 8.31801 19.4125 8.39459 19.4675 8.45184C19.5225 8.50908 19.5978 8.54239 19.6771 8.54456C21.3996 8.56699 22.6411 9.10405 23.1997 10.0716C23.9691 11.4043 23.3685 13.4482 21.5857 15.5543C21.5595 15.5845 21.5396 15.6196 21.5271 15.6576C21.5146 15.6955 21.5098 15.7356 21.5129 15.7754C21.5159 15.8152 21.5269 15.8541 21.5451 15.8897C21.5633 15.9252 21.5884 15.9568 21.6189 15.9827C21.6494 16.0085 21.6847 16.028 21.7228 16.0401C21.7609 16.0521 21.801 16.0565 21.8408 16.053C21.8806 16.0495 21.9193 16.0381 21.9547 16.0195C21.99 16.0009 22.0214 15.9754 22.0468 15.9447ZM17.0895 8.22171C15.3455 8.59542 13.489 9.32609 11.7062 10.3554C7.2948 12.9023 4.41712 16.6579 4.81677 19.381C4.8221 19.4207 4.83524 19.4588 4.85544 19.4934C4.87563 19.5279 4.90247 19.558 4.93441 19.5821C4.96634 19.6061 5.00274 19.6236 5.04148 19.6335C5.08022 19.6434 5.12054 19.6455 5.1601 19.6397C5.19966 19.6339 5.23767 19.6203 5.27193 19.5997C5.3062 19.5791 5.33603 19.5519 5.3597 19.5196C5.38337 19.4874 5.4004 19.4508 5.40982 19.4119C5.41924 19.3731 5.42085 19.3327 5.41456 19.2932C5.05965 16.8754 7.78746 13.3155 12.0083 10.8786C13.7378 9.88003 15.5353 9.17259 17.2161 8.81247C17.2554 8.80472 17.2928 8.78921 17.3261 8.76686C17.3594 8.74451 17.3879 8.71575 17.4099 8.68227C17.432 8.6488 17.4472 8.61126 17.4546 8.57186C17.462 8.53246 17.4615 8.49198 17.4531 8.45277C17.4447 8.41357 17.4286 8.37643 17.4057 8.34352C17.3828 8.31061 17.3536 8.28258 17.3197 8.26108C17.2859 8.23957 17.2481 8.22501 17.2086 8.21825C17.1691 8.2115 17.1286 8.21267 17.0895 8.22171Z" fill="#071546"/>
    <path d="M9.94274 21.2689C10.9514 24.085 12.6013 25.819 14.4567 25.819C15.8098 25.819 17.0617 24.8966 18.0379 23.2727C18.0591 23.2387 18.0732 23.2008 18.0796 23.1613C18.0859 23.1217 18.0844 23.0813 18.075 23.0424C18.0656 23.0035 18.0485 22.9668 18.0248 22.9345C18.0011 22.9022 17.9713 22.875 17.937 22.8543C17.9026 22.8337 17.8646 22.8201 17.8249 22.8143C17.7853 22.8085 17.7449 22.8107 17.7061 22.8207C17.6674 22.8306 17.6309 22.8482 17.599 22.8723C17.5671 22.8965 17.5403 22.9268 17.5201 22.9614C16.6428 24.4208 15.5651 25.2148 14.4567 25.2148C12.9155 25.2148 11.4438 23.6683 10.5116 21.0653C10.4989 21.0272 10.4786 20.992 10.4521 20.9618C10.4256 20.9316 10.3933 20.907 10.3571 20.8895C10.3209 20.8719 10.2816 20.8618 10.2415 20.8596C10.2014 20.8574 10.1612 20.8633 10.1234 20.8768C10.0855 20.8904 10.0508 20.9113 10.0211 20.9385C9.99147 20.9656 9.96754 20.9984 9.95073 21.0349C9.93392 21.0714 9.92456 21.1109 9.92321 21.1511C9.92186 21.1913 9.92854 21.2313 9.94285 21.2689H9.94274ZM19.155 20.718C19.6772 19.0496 19.9576 17.1249 19.9576 15.1193C19.9576 10.1146 18.2059 5.80042 15.711 4.69265C15.6381 4.66212 15.5562 4.66136 15.4828 4.69054C15.4093 4.71971 15.3502 4.77649 15.3182 4.84871C15.2861 4.92093 15.2836 5.00284 15.3112 5.07688C15.3388 5.15092 15.3944 5.21119 15.4659 5.24478C17.6911 6.23293 19.3534 10.3273 19.3534 15.1193C19.3534 17.0651 19.0818 18.9289 18.5785 20.5375C18.566 20.5756 18.5612 20.6157 18.5643 20.6556C18.5675 20.6955 18.5785 20.7344 18.5968 20.77C18.6151 20.8056 18.6404 20.8372 18.671 20.863C18.7016 20.8888 18.7371 20.9082 18.7753 20.9202C18.8135 20.9322 18.8537 20.9364 18.8936 20.9327C18.9334 20.929 18.9722 20.9174 19.0075 20.8985C19.0428 20.8797 19.0741 20.8541 19.0994 20.8231C19.1248 20.7921 19.1437 20.7564 19.1551 20.718H19.155ZM24.8444 20.4221C24.8444 19.6236 24.1971 18.9763 23.3986 18.9763C22.6001 18.9763 21.9528 19.6236 21.9528 20.4221C21.9528 21.2206 22.6001 21.8679 23.3986 21.8679C24.1971 21.8679 24.8444 21.2206 24.8444 20.4221ZM24.2403 20.4221C24.2403 20.5326 24.2185 20.6421 24.1762 20.7442C24.1339 20.8463 24.0719 20.9391 23.9938 21.0172C23.9156 21.0954 23.8228 21.1574 23.7207 21.1997C23.6186 21.242 23.5092 21.2638 23.3986 21.2638C23.2881 21.2638 23.1786 21.242 23.0765 21.1997C22.9744 21.1574 22.8816 21.0954 22.8035 21.0172C22.7253 20.9391 22.6633 20.8463 22.621 20.7442C22.5787 20.6421 22.5569 20.5326 22.5569 20.4221C22.5569 20.1989 22.6456 19.9848 22.8035 19.8269C22.9613 19.6691 23.1754 19.5804 23.3986 19.5804C23.6219 19.5804 23.8359 19.6691 23.9938 19.8269C24.1516 19.9848 24.2403 20.1989 24.2403 20.4221ZM5.49384 21.8679C6.29248 21.8679 6.93977 21.2206 6.93977 20.4221C6.93977 19.6236 6.29236 18.9763 5.49384 18.9763C4.69544 18.9763 4.04803 19.6236 4.04803 20.4221C4.04803 21.2206 4.69544 21.8679 5.49384 21.8679ZM5.49384 21.2638C5.27062 21.2638 5.05653 21.1751 4.89869 21.0172C4.74084 20.8594 4.65216 20.6453 4.65216 20.4221C4.65216 20.1989 4.74084 19.9848 4.89869 19.8269C5.05653 19.6691 5.27062 19.5804 5.49384 19.5804C5.71707 19.5804 5.93116 19.6691 6.089 19.8269C6.24685 19.9848 6.33552 20.1989 6.33552 20.4221C6.33552 20.6453 6.24685 20.8594 6.089 21.0172C5.93116 21.1751 5.71707 21.2638 5.49384 21.2638Z" fill="#071546"/>
    <path d="M14.4567 6.1675C15.2552 6.1675 15.9025 5.52021 15.9025 4.72169C15.9025 3.92317 15.2552 3.27588 14.4567 3.27588C13.6582 3.27588 13.0109 3.92317 13.0109 4.72169C13.0109 5.52021 13.6582 6.1675 14.4567 6.1675ZM14.4567 5.56337C14.2335 5.56337 14.0194 5.47469 13.8615 5.31684C13.7037 5.159 13.615 4.94491 13.615 4.72169C13.615 4.49846 13.7037 4.28438 13.8615 4.12653C14.0194 3.96868 14.2335 3.88001 14.4567 3.88001C14.6799 3.88001 14.894 3.96868 15.0519 4.12653C15.2097 4.28438 15.2984 4.49846 15.2984 4.72169C15.2984 4.94491 15.2097 5.159 15.0519 5.31684C14.894 5.47469 14.6799 5.56337 14.4567 5.56337ZM14.6775 16.1418C14.1128 16.2638 13.5565 15.9049 13.4342 15.3402C13.3757 15.069 13.4273 14.7857 13.5776 14.5526C13.7279 14.3194 13.9647 14.1555 14.2358 14.0968C14.8005 13.9748 15.3568 14.3337 15.4792 14.8984C15.6012 15.4631 15.2423 16.0196 14.6775 16.1418Z" fill="#071546"/>
</svg>
