<svg width="60" height="60" viewBox="0 0 60 60" fill="none" xmlns="http://www.w3.org/2000/svg">
<g id="developers 1" clip-path="url(#clip0_922_413)">
<g id="Group 189">
<path id="Path 391" d="M59.9999 29.6852C60 35.5565 58.2406 41.296 54.9441 46.1778C51.6477 51.0597 46.9623 54.8646 41.4805 57.1115C35.9987 59.3584 29.9666 59.9463 24.1471 58.8009C18.3276 57.6555 12.982 54.8282 8.78638 50.6765C4.59075 46.5249 1.7335 41.2354 0.575951 35.4769C-0.581601 29.7184 0.0125377 23.7496 2.28323 18.3252C4.55393 12.9009 8.39919 8.26464 13.3328 5.00277C18.2663 1.74091 24.0666 -7.86531e-05 30.0001 2.66506e-09C33.9398 2.66506e-09 37.8408 0.767835 41.4806 2.25966C45.1203 3.75148 48.4274 5.93808 51.2132 8.69461C53.9989 11.4511 56.2087 14.7236 57.7163 18.3252C59.224 21.9268 59.9999 25.7869 59.9999 29.6852Z" fill="#FFBD00"/>
<path id="Path 392" d="M48.4307 56.521H11.5049V35.711C11.505 35.1505 11.7301 34.6129 12.1307 34.2165C12.5312 33.8201 13.0745 33.5974 13.641 33.5973H46.2946C46.8611 33.5973 47.4045 33.82 47.8051 34.2164C48.2057 34.6128 48.4307 35.1504 48.4307 35.711V56.521Z" fill="white"/>
<path id="Path 393" d="M48.4308 55.9245H13.0266C12.5419 55.8895 12.0552 55.8895 11.5705 55.9245C11.5487 55.9261 11.5268 55.9261 11.505 55.9245L12.1079 56.5211V36.3339C12.1079 36.1299 12.1022 35.925 12.1079 35.721C12.1118 35.3171 12.2756 34.9309 12.5643 34.6453C12.853 34.3597 13.2434 34.1976 13.6516 34.1939C15.2339 34.1446 16.8266 34.1939 18.4089 34.1939H45.8808C46.0162 34.1939 46.152 34.1903 46.2875 34.1939C46.6963 34.198 47.0872 34.361 47.3756 34.6477C47.6641 34.9345 47.827 35.322 47.8292 35.7266C47.8473 36.4027 47.8292 37.0843 47.8292 37.762V56.5211C47.8292 56.6793 47.8927 56.831 48.0058 56.9429C48.1188 57.0547 48.2722 57.1176 48.432 57.1176C48.5919 57.1176 48.7453 57.0547 48.8583 56.9429C48.9714 56.831 49.0349 56.6793 49.0349 56.5211V36.1307C49.0415 35.8988 49.0355 35.6667 49.0168 35.4355C48.9407 34.7714 48.6223 34.1576 48.1213 33.7094C47.6204 33.2611 46.9713 33.0092 46.2959 33.0008C44.7687 32.9611 43.237 33.0008 41.7106 33.0008H13.9514C13.8248 33.0008 13.6974 32.9976 13.5708 33.0032C12.8964 33.0289 12.2547 33.297 11.7658 33.7574C11.2769 34.2177 10.9744 34.8387 10.915 35.5039C10.8588 36.1493 10.9038 36.8139 10.9038 37.4605V56.5211C10.906 56.6786 10.9703 56.829 11.0829 56.9404C11.1954 57.0518 11.3474 57.1153 11.5066 57.1176H43.8873C45.3744 57.1176 46.8807 57.1844 48.3673 57.1176C48.389 57.1176 48.4107 57.1176 48.4324 57.1176C48.5923 57.1176 48.7457 57.0547 48.8587 56.9429C48.9718 56.831 49.0353 56.6793 49.0353 56.5211C49.0353 56.3628 48.9718 56.2111 48.8587 56.0992C48.7457 55.9874 48.5923 55.9245 48.4324 55.9245" fill="#071546"/>
<path id="Path 394" d="M52.5267 59.3704H7.47314V57.3108C7.47314 56.8904 7.64192 56.4872 7.94235 56.1899C8.24279 55.8926 8.65026 55.7256 9.07513 55.7256H50.9247C51.3496 55.7256 51.757 55.8926 52.0575 56.1899C52.3579 56.4872 52.5267 56.8904 52.5267 57.3108V59.3704Z" fill="white"/>
<path id="Path 395" d="M52.5264 58.7739H9.31675C8.7279 58.7362 8.1372 58.7362 7.54836 58.7739C7.52333 58.7755 7.49823 58.7755 7.47321 58.7739L8.07606 59.3705V58.1965C8.02458 57.778 8.04784 57.3539 8.14479 56.9434C8.24198 56.7355 8.40323 56.5634 8.6054 56.4518C8.80758 56.3402 9.04028 56.2948 9.27013 56.3222C10.0739 56.3186 10.8777 56.3222 11.6816 56.3222H50.3818C50.5566 56.3222 50.7335 56.3134 50.9079 56.3222C52.0264 56.3783 51.9227 57.4401 51.9227 58.2446V59.3705C51.9227 59.5287 51.9862 59.6804 52.0993 59.7923C52.2123 59.9042 52.3657 59.967 52.5256 59.967C52.6854 59.967 52.8388 59.9042 52.9518 59.7923C53.0649 59.6804 53.1284 59.5287 53.1284 59.3705C53.1284 58.5393 53.2719 57.5642 53.0553 56.7521C52.9206 56.2789 52.6315 55.8631 52.233 55.5696C51.8346 55.276 51.3491 55.1211 50.8524 55.1291C50.1326 55.1188 49.412 55.1291 48.6926 55.1291H9.4128C9.15501 55.1185 8.89679 55.1333 8.64195 55.1732C8.23893 55.2551 7.86679 55.4461 7.56693 55.7248C7.26707 56.0036 7.05125 56.3592 6.9435 56.7521C6.86082 57.2127 6.83625 57.6817 6.87035 58.1484V59.3705C6.87263 59.528 6.93688 59.6784 7.04945 59.7898C7.16202 59.9012 7.31403 59.9648 7.47321 59.967H46.9825C48.7999 59.967 50.635 60.041 52.4512 59.967C52.4761 59.967 52.5014 59.967 52.5264 59.967C52.6862 59.967 52.8396 59.9042 52.9526 59.7923C53.0657 59.6804 53.1292 59.5287 53.1292 59.3705C53.1292 59.2123 53.0657 59.0605 52.9526 58.9487C52.8396 58.8368 52.6862 58.7739 52.5264 58.7739Z" fill="#071546"/>
<path id="Rectangle 46" d="M45.0661 37.5134H15.3159V55.7257H45.0661V37.5134Z" fill="white"/>
<path id="Path 396" d="M45.066 55.129H15.3157L15.9186 55.7256V37.5113L15.3157 38.1079H45.066L44.4631 37.5113V55.7256C44.4631 55.8838 44.5266 56.0355 44.6397 56.1474C44.7527 56.2593 44.9061 56.3221 45.066 56.3221C45.2258 56.3221 45.3792 56.2593 45.4923 56.1474C45.6053 56.0355 45.6688 55.8838 45.6688 55.7256V37.5113C45.6665 37.3538 45.6023 37.2034 45.4897 37.092C45.3772 36.9806 45.2251 36.9171 45.066 36.9148H15.3157C15.1566 36.9171 15.0046 36.9806 14.892 37.092C14.7794 37.2034 14.7152 37.3538 14.7129 37.5113V55.7256C14.7152 55.8831 14.7794 56.0335 14.892 56.1449C15.0046 56.2563 15.1566 56.3198 15.3157 56.3221H45.066C45.2258 56.3221 45.3792 56.2593 45.4923 56.1474C45.6053 56.0355 45.6688 55.8838 45.6688 55.7256C45.6688 55.5674 45.6053 55.4156 45.4923 55.3038C45.3792 55.1919 45.2258 55.129 45.066 55.129Z" fill="#071546"/>
<path id="Path 397" d="M48.4745 14.7404H21.4307C20.7554 14.7404 20.1077 15.0058 19.6301 15.4784C19.1526 15.9509 18.8843 16.5918 18.8843 17.2601V41.3204H48.4745C48.809 41.3204 49.1401 41.2552 49.4491 41.1286C49.7581 41.0019 50.0388 40.8163 50.2753 40.5823C50.5118 40.3482 50.6993 40.0704 50.8273 39.7647C50.9552 39.4589 51.0211 39.1312 51.021 38.8003V17.2601C51.021 16.5918 50.7527 15.9509 50.2752 15.4784C49.7976 15.0058 49.1499 14.7404 48.4745 14.7404Z" fill="white"/>
<path id="Path 398" d="M48.4744 14.1438H24.8609C23.7416 14.1438 22.6219 14.1339 21.5026 14.1438C20.8753 14.1372 20.26 14.3135 19.7332 14.6505C19.2064 14.9875 18.7915 15.4705 18.5402 16.0392C18.3373 16.5779 18.2497 17.1523 18.2829 17.7262V29.8367C18.2829 33.5989 18.2198 37.367 18.2829 41.1291C18.2829 41.1924 18.2829 41.2564 18.2829 41.32C18.2852 41.4775 18.3495 41.6279 18.462 41.7393C18.5746 41.8507 18.7266 41.9143 18.8858 41.9166H48.0195C48.5688 41.9475 49.1188 41.8711 49.6384 41.6919C50.2365 41.448 50.7462 41.031 51.1007 40.4956C51.4553 39.9602 51.6381 39.3313 51.6254 38.6913C51.6515 34.6587 51.6254 30.6249 51.6254 26.5923V19.5643C51.6254 18.1327 51.8745 16.425 50.8778 15.2482C50.58 14.9056 50.2116 14.6298 49.7975 14.4394C49.3833 14.2489 48.9328 14.1482 48.476 14.1438C47.7 14.1231 47.7004 15.3162 48.476 15.3369C48.7427 15.3427 49.0053 15.4016 49.2485 15.5098C49.4917 15.6181 49.7105 15.7736 49.8918 15.9671C50.0731 16.1606 50.2132 16.3882 50.3039 16.6364C50.3946 16.8845 50.4339 17.1482 50.4197 17.4117C50.4221 17.9287 50.4197 18.4429 50.4197 18.9583V38.2495C50.4854 38.8143 50.3683 39.3852 50.0853 39.88C49.8703 40.1678 49.5844 40.3964 49.2549 40.5439C48.9254 40.6914 48.5631 40.753 48.2028 40.7227H22.6725C21.4773 40.7227 20.245 40.6368 19.0518 40.7227C18.9967 40.7267 18.9396 40.7227 18.8842 40.7227L19.487 41.3192V18.699C19.487 18.2615 19.4846 17.8241 19.487 17.3866C19.4634 16.8811 19.6378 16.386 19.9739 16.0045C20.31 15.6231 20.7818 15.3846 21.2912 15.3389C22.1665 15.2772 23.0652 15.3353 23.9438 15.3353H37.8465C41.3294 15.3353 44.8203 15.4065 48.3028 15.3353C48.3607 15.3353 48.4186 15.3353 48.4764 15.3353C48.6363 15.3353 48.7897 15.2725 48.9027 15.1606C49.0158 15.0487 49.0793 14.897 49.0793 14.7388C49.0793 14.5806 49.0158 14.4288 48.9027 14.317C48.7897 14.2051 48.6363 14.1422 48.4764 14.1422" fill="#071546"/>
<path id="Path 399" d="M28.4056 21.3365L22.8569 26.827L22.0672 27.6085C21.9574 27.721 21.8966 27.8717 21.898 28.0281C21.8993 28.1845 21.9627 28.3341 22.0745 28.4447C22.1863 28.5553 22.3375 28.6181 22.4956 28.6194C22.6536 28.6208 22.8059 28.5607 22.9196 28.452L28.4687 22.9615L29.2581 22.18C29.3679 22.0675 29.4286 21.9168 29.4273 21.7604C29.4259 21.604 29.3625 21.4544 29.2507 21.3438C29.1389 21.2332 28.9877 21.1704 28.8297 21.1691C28.6716 21.1677 28.5193 21.2278 28.4056 21.3365Z" fill="#071546"/>
<path id="Path 400" d="M29.2577 33.8801L23.7472 28.4273L22.9631 27.6518C22.8494 27.5432 22.6971 27.483 22.539 27.4844C22.381 27.4858 22.2298 27.5485 22.118 27.6591C22.0062 27.7697 21.9428 27.9193 21.9414 28.0757C21.9401 28.2321 22.0008 28.3828 22.1106 28.4953C23.9473 30.3133 25.7842 32.1309 27.6212 33.9481C27.8824 34.2071 28.1438 34.4656 28.4053 34.7236C28.519 34.8322 28.6713 34.8923 28.8293 34.891C28.9874 34.8896 29.1386 34.8269 29.2504 34.7163C29.3621 34.6057 29.4255 34.4561 29.4269 34.2997C29.4283 34.1432 29.3675 33.9926 29.2577 33.8801Z" fill="#071546"/>
<path id="Path 401" d="M37.9533 19.7529C37.1661 21.5465 36.3789 23.3399 35.5917 25.1332C34.3359 27.9966 33.0797 30.8588 31.8231 33.7198C31.5329 34.3826 31.2424 35.0444 30.9517 35.7051C30.6459 36.4022 31.6844 37.0107 31.9931 36.3072C32.78 34.5138 33.5671 32.7204 34.3543 30.9268C35.6106 28.0634 36.8668 25.2013 38.1229 22.3403C38.4136 21.6775 38.7041 21.0157 38.9942 20.355C39.3005 19.6578 38.262 19.0498 37.9533 19.7529Z" fill="#071546"/>
<path id="Path 402" d="M41.4997 34.724L47.0484 29.2335L47.8381 28.452C47.948 28.3395 48.0087 28.1888 48.0074 28.0324C48.006 27.876 47.9426 27.7264 47.8308 27.6158C47.719 27.5052 47.5678 27.4424 47.4098 27.4411C47.2517 27.4397 47.0994 27.4998 46.9857 27.6085L41.4366 33.099L40.6473 33.8805C40.5374 33.993 40.4767 34.1437 40.4781 34.3001C40.4794 34.4565 40.5428 34.6061 40.6546 34.7167C40.7664 34.8273 40.9176 34.89 41.0756 34.8914C41.2337 34.8928 41.386 34.8326 41.4997 34.724Z" fill="#071546"/>
<path id="Path 403" d="M40.6473 22.18L46.1578 27.6328L46.9419 28.4087C47.055 28.5205 47.2084 28.5833 47.3683 28.5833C47.5282 28.5833 47.6815 28.5204 47.7945 28.4085C47.9076 28.2965 47.9711 28.1448 47.971 27.9866C47.971 27.8283 47.9074 27.6766 47.7943 27.5648L42.2838 22.1124L41.4997 21.3365C41.386 21.2278 41.2337 21.1677 41.0756 21.1691C40.9176 21.1704 40.7664 21.2332 40.6546 21.3438C40.5428 21.4544 40.4794 21.604 40.4781 21.7604C40.4767 21.9168 40.5374 22.0675 40.6473 22.18Z" fill="#071546"/>
</g>
</g>
<defs>
<clipPath id="clip0_922_413">
<rect width="60" height="60" fill="white"/>
</clipPath>
</defs>
</svg>
