<svg width="29" height="29" viewBox="0 0 29 29" fill="none" xmlns="http://www.w3.org/2000/svg">
    <path fill-rule="evenodd" clip-rule="evenodd" d="M28.9836 6.56056C28.9944 6.59922 28.9999 6.63908 29 6.67913V12.9039C29 12.9838 28.9783 13.0623 28.9371 13.1314C28.8958 13.2005 28.8366 13.2579 28.7652 13.2976L23.3868 16.3056V22.2677C23.3868 22.43 23.298 22.5798 23.1532 22.6615L11.9261 28.9396C11.9004 28.9537 11.8724 28.9628 11.8444 28.9725C11.8339 28.9759 11.8239 28.9821 11.8128 28.9849C11.7343 29.005 11.6518 29.005 11.5734 28.9849C11.5605 28.9815 11.5488 28.9747 11.5366 28.9702C11.5109 28.9611 11.484 28.9532 11.4595 28.9396L0.234785 22.6615C0.163478 22.6217 0.104228 22.5643 0.0630091 22.4952C0.0217897 22.4261 5.64998e-05 22.3476 0 22.2677L0 3.59341C0 3.55256 0.00584042 3.51285 0.0163532 3.47427C0.0198574 3.46122 0.028034 3.44931 0.0327063 3.43626C0.041467 3.41243 0.0496435 3.38804 0.0624925 3.36591C0.0712531 3.35116 0.084102 3.33925 0.0946147 3.32563C0.108048 3.30748 0.120313 3.28875 0.136082 3.27287C0.149515 3.25982 0.167036 3.25017 0.182221 3.23883C0.199158 3.22521 0.214343 3.21046 0.233617 3.19968L5.84684 0.0606315C5.91791 0.0209072 5.99846 0 6.08046 0C6.16245 0 6.24301 0.0209072 6.31407 0.0606315L11.9267 3.19968C11.9454 3.21103 11.9623 3.22521 11.9793 3.23826C11.9945 3.24961 12.0114 3.25982 12.0248 3.2723C12.0412 3.28875 12.0529 3.30748 12.0669 3.32563C12.0768 3.33925 12.0902 3.35116 12.0984 3.36591C12.1119 3.3886 12.1194 3.41243 12.1288 3.43626C12.1335 3.44931 12.1416 3.46122 12.1451 3.47484C12.1559 3.5135 12.1614 3.55336 12.1615 3.59341V15.2572L16.8385 12.6412V6.67857C16.8385 6.63885 16.8443 6.59857 16.8549 6.56056C16.8589 6.54694 16.8665 6.53503 16.8712 6.52198C16.8806 6.49815 16.8887 6.47376 16.9016 6.45163C16.9103 6.43688 16.9232 6.42497 16.9331 6.41135C16.9471 6.3932 16.9588 6.37448 16.9752 6.35859C16.9886 6.34554 17.0055 6.3359 17.0207 6.32455C17.0382 6.31093 17.0534 6.29618 17.0721 6.2854L22.6859 3.14635C22.757 3.10657 22.8375 3.08563 22.9195 3.08563C23.0015 3.08563 23.0821 3.10657 23.1532 3.14635L28.7658 6.2854C28.7857 6.29675 28.8008 6.31093 28.8184 6.32398C28.833 6.33533 28.8499 6.34554 28.8633 6.35802C28.8797 6.37448 28.8914 6.3932 28.9054 6.41135C28.9159 6.42497 28.9288 6.43688 28.9369 6.45163C28.9504 6.47376 28.958 6.49815 28.9673 6.52198C28.9726 6.53503 28.9801 6.54694 28.9836 6.56056ZM28.0644 12.6412V7.46489L26.1002 8.56324L23.3868 10.0809V15.2572L28.0644 12.6412ZM22.4517 22.0051V16.8253L19.7827 18.306L12.1609 22.5315V27.7601L22.4517 22.0051ZM0.935635 4.37917V22.0051L11.2253 27.7595V22.5321L5.84976 19.5769L5.84801 19.5757L5.84567 19.5746C5.82757 19.5644 5.81238 19.5496 5.79544 19.5372C5.78084 19.5258 5.76391 19.5167 5.75106 19.5043L5.74989 19.5025C5.7347 19.4884 5.72419 19.4708 5.71134 19.4549C5.69966 19.4396 5.68564 19.4265 5.6763 19.4106L5.67572 19.4089C5.6652 19.3919 5.65878 19.3715 5.65119 19.3522C5.64359 19.3352 5.63367 19.3193 5.62899 19.3011C5.62315 19.2796 5.62198 19.2563 5.61965 19.2342C5.61731 19.2172 5.61264 19.2002 5.61264 19.1831V6.99514L2.89977 5.47695L0.935635 4.37917ZM6.08104 0.978576L1.40462 3.59341L6.07987 6.20825L10.7557 3.59284L6.08104 0.978576ZM8.51299 17.2973L11.2259 15.7803V4.37917L9.26173 5.47752L6.54827 6.99514V18.3962L8.51299 17.2973ZM22.9195 4.0643L18.2437 6.67913L22.9195 9.29397L27.5948 6.67857L22.9195 4.0643ZM22.4517 10.0809L19.7383 8.56324L17.7741 7.46489V12.6412L20.487 14.1583L22.4517 15.2572V10.0809ZM11.6925 21.7458L18.5509 17.9424L21.9792 16.0418L17.3069 13.4287L11.9273 16.4373L7.02427 19.1792L11.6925 21.7458Z" fill="#071546"/>
    <path d="M0.935635 4.37917V22.0051L11.2253 27.7595V22.5321L5.84976 19.5769L5.84801 19.5757L5.84567 19.5746C5.82757 19.5644 5.81238 19.5496 5.79544 19.5372C5.78084 19.5258 5.76391 19.5167 5.75106 19.5043L5.74989 19.5025C5.7347 19.4884 5.72419 19.4708 5.71134 19.4549C5.69966 19.4396 5.68564 19.4265 5.6763 19.4106L5.67572 19.4089C5.6652 19.3919 5.65878 19.3715 5.65119 19.3522C5.64359 19.3352 5.63367 19.3193 5.62899 19.3011C5.62315 19.2796 5.62198 19.2563 5.61965 19.2342C5.61731 19.2172 5.61264 19.2002 5.61264 19.1831V6.99514L2.89977 5.47695L0.935635 4.37917Z" fill="white"/>
    <path d="M8.51299 17.2973L11.2259 15.7803V4.37917L9.26173 5.47752L6.54827 6.99514V18.3962L8.51299 17.2973Z" fill="white"/>
    <path d="M11.6925 21.7458L18.5509 17.9424L21.9792 16.0418L17.3069 13.4287L11.9273 16.4373L7.02427 19.1792L11.6925 21.7458Z" fill="white"/>
    <path d="M22.4517 22.0051V16.8253L19.7827 18.306L12.1609 22.5315V27.7601L22.4517 22.0051Z" fill="white"/>
    <path d="M6.08104 0.978576L1.40462 3.59341L6.07987 6.20825L10.7557 3.59284L6.08104 0.978576Z" fill="white"/>
    <path d="M22.9195 4.0643L18.2437 6.67913L22.9195 9.29397L27.5948 6.67857L22.9195 4.0643Z" fill="white"/>
    <path d="M28.0644 12.6412V7.46489L26.1002 8.56324L23.3868 10.0809V15.2572L28.0644 12.6412Z" fill="white"/>
    <path d="M22.4517 10.0809L19.7383 8.56324L17.7741 7.46489V12.6412L20.487 14.1583L22.4517 15.2572V10.0809Z" fill="white"/>
</svg>
