<svg width="60" height="60" viewBox="0 0 60 60" fill="none" xmlns="http://www.w3.org/2000/svg">
<g id="business-strategists 1" clip-path="url(#clip0_922_294)">
<g id="Clip path group">
<mask id="mask0_922_294" style="mask-type:luminance" maskUnits="userSpaceOnUse" x="0" y="0" width="60" height="60">
<g id="clip-path">
<path id="Vector" d="M60 0H0V60H60V0Z" fill="white"/>
</g>
</mask>
<g mask="url(#mask0_922_294)">
<g id="Repeat Grid 1">
<g id="Group 186">
<path id="Path 335" d="M60.0001 29.699C60.0001 35.5729 58.2406 41.3149 54.9442 46.1989C51.6478 51.0829 46.9625 54.8895 41.4807 57.1373C35.999 59.3852 29.967 59.9733 24.1476 58.8274C18.3282 57.6814 12.9828 54.8529 8.78724 50.6994C4.59169 46.5459 1.73449 41.254 0.576939 35.493C-0.58061 29.732 0.0134892 23.7605 2.2841 18.3337C4.55472 12.9069 8.39987 8.26855 13.3333 5.00519C18.2667 1.74182 24.0669 0 30.0003 0C37.9567 0 45.5873 3.12899 51.2134 8.69864C56.8394 14.2683 60.0001 21.8223 60.0001 29.699Z" fill="#FFBD00"/>
<path id="Path 336" d="M50.1901 46.1332H9.8095C9.19055 46.1314 8.59745 45.8872 8.15978 45.4539C7.72211 45.0206 7.47544 44.4335 7.47363 43.8208V17.1086C7.47544 16.4958 7.72211 15.9087 8.15978 15.4754C8.59745 15.0421 9.19055 14.7979 9.8095 14.7961H50.1901C50.8092 14.7977 51.4025 15.0418 51.8403 15.4751C52.2782 15.9084 52.525 16.4957 52.5268 17.1086V43.82C52.525 44.4327 52.2783 45.0199 51.8406 45.4531C51.403 45.8864 50.8099 46.1306 50.1909 46.1324" fill="white"/>
<path id="Path 337" d="M50.19 45.5364H10.2945C9.6229 45.5364 8.98548 45.5002 8.49756 44.9396C8.00965 44.379 8.07637 43.7062 8.07637 43.0298V21.6444C8.07637 20.1364 8.03618 18.6229 8.07637 17.1154C8.10491 16.0089 9.00075 15.3954 10.0365 15.3954H46.3136C47.5868 15.3954 48.8621 15.3747 50.1353 15.3954C50.3769 15.3945 50.6162 15.4423 50.8386 15.5357C51.061 15.6292 51.2619 15.7664 51.4292 15.939C51.5964 16.1116 51.7265 16.3161 51.8115 16.54C51.8965 16.7639 51.9347 17.0026 51.9238 17.2415C51.9278 17.8729 51.9238 18.5044 51.9238 19.1358V43.4659C51.9238 43.5852 51.927 43.7006 51.9238 43.818C51.9171 44.2713 51.7325 44.7043 51.409 45.0253C51.0856 45.3463 50.6487 45.5302 50.1908 45.538C49.4167 45.5603 49.4135 46.7539 50.1908 46.7316C50.5881 46.7226 50.9797 46.6357 51.3429 46.476C51.7062 46.3164 52.0338 46.087 52.3071 45.8013C52.5803 45.5156 52.7937 45.1791 52.9348 44.8113C53.076 44.4435 53.1421 44.0517 53.1295 43.6584C53.1319 42.982 53.1295 42.3057 53.1295 41.6293V23.0131C53.1295 21.0941 53.1384 19.1752 53.1295 17.2562C53.1403 16.8642 53.0727 16.4739 52.9306 16.1079C52.7886 15.7418 52.5748 15.4071 52.3016 15.1231C52.0284 14.8391 51.7012 14.6114 51.3389 14.453C50.9765 14.2946 50.586 14.2086 50.19 14.2001C49.8914 14.1926 49.5915 14.2001 49.2929 14.2001H10.02C9.37449 14.1721 8.73675 14.3482 8.19904 14.7028C7.66133 15.0575 7.25155 15.5723 7.02901 16.1728C6.86986 16.7866 6.81633 17.4226 6.87066 18.054V42.9733C6.80338 43.6879 6.90393 44.4083 7.16445 45.0781C7.43348 45.6021 7.85075 46.0374 8.36536 46.3307C8.87997 46.624 9.46969 46.7628 10.0626 46.73H50.19C50.3499 46.73 50.5032 46.6672 50.6163 46.5552C50.7293 46.4433 50.7928 46.2915 50.7928 46.1332C50.7928 45.9749 50.7293 45.8231 50.6163 45.7112C50.5032 45.5993 50.3499 45.5364 50.19 45.5364Z" fill="#071546"/>
<path id="Rectangle 40" d="M31.3381 46.1333H27.9927V56.7844H31.3381V46.1333Z" fill="white"/>
<path id="Path 338" d="M31.338 56.1875H27.9925L28.5954 56.7843V46.1332L27.9925 46.73H31.338L30.7351 46.1332V56.7843C30.7351 56.9426 30.7986 57.0944 30.9117 57.2063C31.0247 57.3182 31.1781 57.3811 31.338 57.3811C31.4979 57.3811 31.6512 57.3182 31.7642 57.2063C31.8773 57.0944 31.9408 56.9426 31.9408 56.7843V46.1332C31.9385 45.9756 31.8743 45.8251 31.7617 45.7137C31.6492 45.6022 31.4971 45.5386 31.338 45.5364H27.9925C27.8333 45.5386 27.6813 45.6022 27.5688 45.7137C27.4562 45.8251 27.3919 45.9756 27.3896 46.1332V56.7843C27.3919 56.9419 27.4562 57.0924 27.5688 57.2038C27.6813 57.3153 27.8333 57.3789 27.9925 57.3811H31.338C31.4979 57.3811 31.6512 57.3182 31.7642 57.2063C31.8773 57.0944 31.9408 56.9426 31.9408 56.7843C31.9408 56.626 31.8773 56.4742 31.7642 56.3623C31.6512 56.2504 31.4979 56.1875 31.338 56.1875Z" fill="#071546"/>
<path id="Path 339" d="M19.9023 58.5708V56.9136C19.9023 56.805 19.924 56.6974 19.966 56.597C20.008 56.4966 20.0696 56.4054 20.1472 56.3286C20.2248 56.2517 20.317 56.1908 20.4184 56.1493C20.5199 56.1077 20.6285 56.0864 20.7383 56.0864H38.5921C38.7019 56.0864 38.8106 56.1077 38.912 56.1493C39.0134 56.1908 39.1056 56.2517 39.1832 56.3286C39.2609 56.4054 39.3224 56.4966 39.3645 56.597C39.4065 56.6974 39.4281 56.805 39.4281 56.9136V58.5708C39.4281 58.7902 39.34 59.0007 39.1833 59.1559C39.0265 59.3111 38.8138 59.3983 38.5921 59.3983H20.7383C20.6285 59.3983 20.5198 59.3769 20.4184 59.3353C20.317 59.2938 20.2248 59.2328 20.1472 59.1559C20.0696 59.0791 20.008 58.9879 19.966 58.8875C19.924 58.7871 19.9023 58.6794 19.9023 58.5708Z" fill="white"/>
<path id="Path 340" d="M20.5052 58.5709V57.4966C20.5052 57.2213 20.3967 56.7653 20.7387 56.683C20.9399 56.6613 21.1428 56.6613 21.344 56.683H37.8623C38.1028 56.6582 38.3452 56.6582 38.5857 56.683C38.8879 56.7514 38.8268 57.0243 38.8268 57.2722C38.8524 57.683 38.8524 58.0949 38.8268 58.5056C38.7806 58.8637 38.517 58.8024 38.2344 58.8024H23.6991C22.7398 58.8538 21.7784 58.8538 20.8191 58.8024C20.6672 58.7857 20.5217 58.7734 20.5052 58.5717C20.4433 57.8113 19.2368 57.8046 19.2995 58.5717C19.3088 58.7717 19.3586 58.9678 19.4458 59.1484C19.533 59.329 19.6559 59.4905 19.8072 59.6233C19.9586 59.7561 20.1353 59.8575 20.3269 59.9215C20.5185 59.9856 20.7211 60.0109 20.9228 59.9961C21.3592 60 21.7961 59.9961 22.2326 59.9961H37.9668C38.2473 60.0096 38.5285 60.0024 38.8079 59.9746C40.1857 59.7669 40.0309 58.3393 40.0309 57.3152C40.0634 57.0644 40.0427 56.8097 39.9701 56.5673C39.8975 56.3249 39.7746 56.1002 39.6094 55.9075C39.3221 55.638 38.9409 55.4887 38.5451 55.4905C38.2095 55.4782 37.8711 55.4905 37.5355 55.4905H21.7202C21.4027 55.4905 21.0823 55.4778 20.7648 55.4905C20.5378 55.491 20.3138 55.543 20.1102 55.6424C19.9066 55.7419 19.7286 55.8862 19.5901 56.0643C19.3376 56.4808 19.2352 56.9697 19.2995 57.4513V58.5717C19.2995 58.73 19.363 58.8818 19.4761 58.9937C19.5891 59.1056 19.7425 59.1685 19.9023 59.1685C20.0622 59.1685 20.2156 59.1056 20.3286 58.9937C20.4417 58.8818 20.5052 58.73 20.5052 58.5717" fill="#071546"/>
<path id="Path 341" d="M7.47363 45.3651V43.5893C7.47363 43.3856 7.55539 43.1902 7.70094 43.0461C7.84648 42.902 8.04388 42.821 8.24971 42.821H51.7507C51.9565 42.821 52.1539 42.902 52.2995 43.0461C52.445 43.1902 52.5268 43.3856 52.5268 43.5893V45.3651C52.5268 45.5688 52.445 45.7642 52.2995 45.9083C52.1539 46.0524 51.9565 46.1334 51.7507 46.1334H8.24971C8.04388 46.1334 7.84648 46.0524 7.70094 45.9083C7.55539 45.7642 7.47363 45.5688 7.47363 45.3651Z" fill="white"/>
<path id="Path 342" d="M8.07612 45.3649V44.1394C8.07612 43.9091 7.97725 43.4973 8.25135 43.4177C8.37867 43.4022 8.50744 43.4022 8.63477 43.4177H49.9787C50.5536 43.3651 51.1321 43.3651 51.7069 43.4177C52.1169 43.4993 51.924 44.4896 51.924 44.8146C51.924 45.1477 52.02 45.5026 51.6358 45.5364C50.9831 45.5933 50.2991 45.5364 49.6448 45.5364H8.49289C8.33896 45.5364 8.0938 45.5797 8.07612 45.3649C8.01423 44.6046 6.80771 44.5978 6.8704 45.3649C6.87734 45.5512 6.92133 45.7344 6.99985 45.9039C7.07837 46.0734 7.18987 46.2259 7.32799 46.3527C7.46611 46.4795 7.62813 46.5781 7.80478 46.6428C7.98142 46.7076 8.16923 46.7372 8.35745 46.73C8.59859 46.7344 8.84174 46.73 9.08369 46.73H51.2033C51.3774 46.73 51.553 46.7372 51.7258 46.73C51.9297 46.7285 52.131 46.684 52.3163 46.5997C52.5016 46.5153 52.6666 46.3929 52.8005 46.2406C53.1586 45.8244 53.1269 45.3215 53.1269 44.8146C53.1269 44.3881 53.1522 43.9528 53.1216 43.5267C53.0999 43.1782 52.9463 42.8506 52.6915 42.6092C52.4367 42.3678 52.0993 42.2303 51.7467 42.2241C51.6157 42.2177 51.4831 42.2241 51.352 42.2241H9.29268C8.56925 42.2241 7.72525 42.1019 7.19675 42.7134C6.64172 43.3576 6.8704 44.5807 6.8704 45.3649C6.8704 45.5232 6.93392 45.675 7.04697 45.7869C7.16003 45.8988 7.31337 45.9617 7.47326 45.9617C7.63315 45.9617 7.78649 45.8988 7.89954 45.7869C8.0126 45.675 8.07612 45.5232 8.07612 45.3649Z" fill="#071546"/>
<path id="Path 343" d="M16.0232 37.0976C16.0232 37.6361 15.8619 38.1626 15.5597 38.6104C15.2574 39.0582 14.8278 39.4072 14.3252 39.6134C13.8226 39.8195 13.2696 39.8734 12.736 39.7683C12.2024 39.6632 11.7123 39.4039 11.3276 39.0231C10.9429 38.6422 10.681 38.157 10.5748 37.6288C10.4687 37.1006 10.5232 36.5531 10.7313 36.0555C10.9395 35.5579 11.2921 35.1326 11.7444 34.8334C12.1968 34.5342 12.7286 34.3745 13.2726 34.3745C14.0021 34.3745 14.7018 34.6614 15.2176 35.1721C15.7334 35.6828 16.0232 36.3754 16.0232 37.0976Z" fill="white"/>
<path id="Path 344" d="M15.4203 37.0974C15.4197 37.5333 15.2838 37.9584 15.031 38.3152C14.7782 38.6721 14.4207 38.9433 14.0069 39.0923C13.5932 39.2413 13.1432 39.2608 12.7178 39.1481C12.2925 39.0355 11.9125 38.7961 11.6292 38.4625C11.3459 38.1289 11.173 37.7171 11.134 37.283C11.095 36.8488 11.1917 36.4133 11.411 36.0354C11.6304 35.6575 11.9617 35.3555 12.3603 35.1702C12.7588 34.985 13.2052 34.9255 13.639 34.9998C14.1365 35.0889 14.5868 35.3473 14.912 35.7304C15.2373 36.1134 15.4171 36.597 15.4203 37.0974C15.4203 37.2557 15.4838 37.4075 15.5969 37.5194C15.7099 37.6313 15.8633 37.6942 16.0231 37.6942C16.183 37.6942 16.3364 37.6313 16.4494 37.5194C16.5625 37.4075 16.626 37.2557 16.626 37.0974C16.6188 36.418 16.4043 35.7566 16.0107 35.2C15.6171 34.6434 15.0627 34.2176 14.4203 33.9785C13.7749 33.7472 13.0734 33.7173 12.4102 33.8927C11.747 34.0682 11.1541 34.4405 10.7112 34.9596C10.3641 35.3679 10.1216 35.8531 10.0042 36.3739C9.88687 36.8947 9.89814 37.4359 10.0371 37.9515C10.176 38.4671 10.4385 38.942 10.8023 39.3357C11.1661 39.7295 11.6205 40.0306 12.1269 40.2135C12.6332 40.3965 13.1767 40.4558 13.7112 40.3864C14.2457 40.3171 14.7554 40.1212 15.1971 39.8153C15.6388 39.5094 15.9994 39.1026 16.2485 38.6293C16.4975 38.156 16.6275 37.6303 16.6276 37.0966C16.6276 36.9383 16.5641 36.7865 16.451 36.6746C16.338 36.5627 16.1846 36.4998 16.0247 36.4998C15.8649 36.4998 15.7115 36.5627 15.5985 36.6746C15.4854 36.7865 15.4219 36.9383 15.4219 37.0966" fill="#071546"/>
<path id="Path 345" d="M17.5418 24.2633L14.1365 27.6349L13.6518 28.1143C13.5387 28.2262 13.4751 28.378 13.4751 28.5363C13.4751 28.6946 13.5385 28.8464 13.6516 28.9584C13.7646 29.0703 13.918 29.1333 14.0779 29.1333C14.2378 29.1333 14.3911 29.0705 14.5042 28.9586L17.9096 25.587L18.3943 25.1071C18.4518 25.0521 18.4978 24.9862 18.5294 24.9134C18.561 24.8406 18.5776 24.7623 18.5783 24.6831C18.579 24.6038 18.5637 24.5252 18.5334 24.4519C18.5031 24.3785 18.4583 24.3119 18.4017 24.2559C18.3451 24.1998 18.2778 24.1555 18.2037 24.1255C18.1296 24.0955 18.0503 24.0804 17.9702 24.0811C17.8902 24.0818 17.8111 24.0982 17.7375 24.1295C17.664 24.1608 17.5974 24.2063 17.5418 24.2633Z" fill="#071546"/>
<path id="Path 346" d="M18.395 28.1143L14.9896 24.7427L14.5049 24.2633C14.4489 24.2079 14.3825 24.1639 14.3093 24.1339C14.2362 24.1039 14.1578 24.0884 14.0786 24.0884C13.9995 24.0884 13.9211 24.1038 13.8479 24.1338C13.7747 24.1637 13.7083 24.2077 13.6523 24.2631C13.5963 24.3185 13.5518 24.3843 13.5215 24.4567C13.4912 24.5291 13.4756 24.6067 13.4756 24.6851C13.4756 24.7635 13.4911 24.8411 13.5214 24.9135C13.5517 24.9859 13.5961 25.0518 13.6521 25.1072L17.0578 28.4784L17.5425 28.9582C17.6562 29.0669 17.8085 29.1271 17.9666 29.1257C18.1246 29.1244 18.2758 29.0616 18.3876 28.951C18.4994 28.8403 18.5628 28.6906 18.5642 28.5341C18.5655 28.3776 18.5048 28.2269 18.395 28.1143Z" fill="#071546"/>
<path id="Path 347" d="M24.6287 18.74L21.2234 22.1116L20.7387 22.5911C20.6827 22.6465 20.6383 22.7123 20.608 22.7847C20.5776 22.8571 20.562 22.9347 20.562 23.0131C20.562 23.0915 20.5776 23.1691 20.6079 23.2415C20.6381 23.3139 20.6825 23.3797 20.7385 23.4352C20.7945 23.4906 20.8609 23.5346 20.9341 23.5646C21.0072 23.5946 21.0856 23.6101 21.1648 23.6101C21.244 23.6101 21.3224 23.5947 21.3955 23.5647C21.4687 23.5347 21.5351 23.4908 21.5911 23.4354L24.9965 20.0638L25.4812 19.5839C25.591 19.4714 25.6518 19.3206 25.6504 19.1641C25.649 19.0077 25.5856 18.858 25.4738 18.7473C25.3621 18.6367 25.2109 18.5739 25.0528 18.5725C24.8947 18.5712 24.7424 18.6313 24.6287 18.74Z" fill="#071546"/>
<path id="Path 348" d="M25.4819 22.5931L22.0765 19.2215L21.5918 18.744C21.4788 18.632 21.3255 18.5691 21.1656 18.5691C21.0057 18.5691 20.8523 18.6319 20.7392 18.7438C20.6261 18.8557 20.5625 19.0075 20.5625 19.1658C20.5625 19.3241 20.6259 19.4759 20.739 19.5879L24.1467 22.9575L24.6314 23.4373C24.7445 23.5493 24.8979 23.6121 25.0578 23.6121C25.2177 23.612 25.371 23.5491 25.4841 23.4371C25.5971 23.3252 25.6606 23.1734 25.6606 23.0151C25.6605 22.8568 25.597 22.705 25.4839 22.5931" fill="#071546"/>
<path id="Path 349" d="M38.2512 34.75L34.8455 38.1212L34.3608 38.6011C34.3048 38.6565 34.2603 38.7223 34.23 38.7947C34.1997 38.8671 34.1841 38.9447 34.1841 39.0231C34.1841 39.1015 34.1996 39.1791 34.2299 39.2515C34.2602 39.3239 34.3046 39.3897 34.3606 39.4452C34.4165 39.5006 34.483 39.5446 34.5561 39.5746C34.6293 39.6046 34.7077 39.6201 34.7869 39.6201C34.866 39.6201 34.9444 39.6047 35.0176 39.5747C35.0907 39.5447 35.1572 39.5008 35.2132 39.4454L38.6186 36.0738L39.1032 35.5939C39.2112 35.4811 39.2703 35.331 39.2682 35.1756C39.266 35.0202 39.2027 34.8717 39.0918 34.7618C38.9808 34.6519 38.8309 34.5892 38.6739 34.587C38.5169 34.5848 38.3653 34.6433 38.2512 34.75Z" fill="#071546"/>
<path id="Path 350" d="M39.1035 38.6011L35.6981 35.2299L35.2134 34.7501C35.1004 34.6381 34.947 34.5752 34.7871 34.5752C34.6272 34.5752 34.4739 34.638 34.3608 34.7499C34.2477 34.8618 34.1841 35.0136 34.1841 35.1719C34.184 35.3302 34.2475 35.482 34.3606 35.594L37.7663 38.9652L38.251 39.445C38.3066 39.502 38.3732 39.5475 38.4467 39.5788C38.5203 39.6101 38.5994 39.6265 38.6794 39.6272C38.7594 39.6279 38.8388 39.6128 38.9129 39.5828C38.987 39.5528 39.0543 39.5085 39.1109 39.4524C39.1675 39.3964 39.2123 39.3298 39.2426 39.2564C39.2729 39.1831 39.2882 39.1045 39.2875 39.0252C39.2868 38.946 39.2702 38.8677 39.2386 38.7949C39.207 38.7221 39.161 38.6562 39.1035 38.6011Z" fill="#071546"/>
<path id="Path 351" d="M45.9359 27.4932L42.5305 30.8644L42.0458 31.3443C41.9327 31.4562 41.8692 31.608 41.8691 31.7663C41.8691 31.9246 41.9326 32.0764 42.0456 32.1884C42.1587 32.3003 42.312 32.3632 42.4719 32.3633C42.6318 32.3633 42.7852 32.3005 42.8983 32.1886L46.3036 28.817L46.7883 28.3371C46.8459 28.2821 46.8918 28.2162 46.9234 28.1434C46.955 28.0706 46.9716 27.9923 46.9723 27.913C46.973 27.8338 46.9578 27.7552 46.9275 27.6819C46.8971 27.6085 46.8524 27.5419 46.7958 27.4858C46.7392 27.4298 46.6719 27.3855 46.5978 27.3555C46.5237 27.3255 46.4443 27.3104 46.3643 27.3111C46.2842 27.3117 46.2051 27.3282 46.1315 27.3595C46.058 27.3908 45.9915 27.4362 45.9359 27.4932Z" fill="#071546"/>
<path id="Path 352" d="M46.788 31.3455L43.3827 27.9743L42.898 27.4933C42.7849 27.3813 42.6316 27.3184 42.4717 27.3184C42.3118 27.3183 42.1584 27.3812 42.0453 27.4931C41.9323 27.605 41.8687 27.7568 41.8687 27.9151C41.8686 28.0734 41.9321 28.2252 42.0451 28.3372L45.4509 31.7084L45.9356 32.1882C45.9912 32.2452 46.0577 32.2907 46.1313 32.322C46.2048 32.3532 46.2839 32.3697 46.364 32.3704C46.444 32.3711 46.5234 32.356 46.5975 32.326C46.6716 32.296 46.7389 32.2516 46.7955 32.1956C46.8521 32.1396 46.8969 32.0729 46.9272 31.9996C46.9575 31.9262 46.9727 31.8477 46.9721 31.7684C46.9714 31.6892 46.9547 31.6108 46.9231 31.538C46.8915 31.4652 46.8456 31.3994 46.788 31.3443" fill="#071546"/>
<path id="Path 353" d="M48.1351 35.8907L44.7297 39.2623L44.2451 39.7417C44.132 39.8536 44.0684 40.0054 44.0684 40.1637C44.0683 40.322 44.1318 40.4738 44.2449 40.5858C44.3579 40.6978 44.5112 40.7607 44.6711 40.7607C44.831 40.7608 44.9844 40.6979 45.0975 40.586L48.5028 37.2144L48.9875 36.7346C49.0973 36.622 49.1581 36.4713 49.1567 36.3148C49.1554 36.1583 49.092 36.0086 48.9802 35.8979C48.8684 35.7873 48.7172 35.7245 48.5591 35.7232C48.4011 35.7218 48.2488 35.782 48.1351 35.8907Z" fill="#071546"/>
<path id="Path 354" d="M48.9872 39.7418L45.5819 36.3702L45.0972 35.8907C44.9842 35.7788 44.8308 35.7159 44.6709 35.7158C44.511 35.7158 44.3577 35.7786 44.2446 35.8905C44.1315 36.0024 44.0679 36.1542 44.0679 36.3125C44.0678 36.4708 44.1313 36.6227 44.2444 36.7346L47.6501 40.1058L48.1348 40.5857C48.1904 40.6427 48.2569 40.6881 48.3305 40.7194C48.404 40.7507 48.4831 40.7672 48.5632 40.7678C48.6432 40.7685 48.7226 40.7534 48.7967 40.7234C48.8708 40.6934 48.9381 40.6491 48.9947 40.5931C49.0513 40.537 49.0961 40.4704 49.1264 40.397C49.1567 40.3237 49.172 40.2451 49.1713 40.1659C49.1706 40.0866 49.1539 40.0083 49.1223 39.9355C49.0907 39.8627 49.0448 39.7968 48.9872 39.7418Z" fill="#071546"/>
<path id="Path 355" d="M43.5462 18.1104L40.1425 21.4816L39.6562 21.9627C39.5431 22.0746 39.4795 22.2264 39.4795 22.3847C39.4795 22.543 39.5429 22.6948 39.656 22.8068C39.769 22.9187 39.9224 22.9816 40.0823 22.9817C40.2422 22.9817 40.3955 22.9189 40.5086 22.8069L43.914 19.4354L44.3987 18.9555C44.5085 18.843 44.5692 18.6922 44.5679 18.5357C44.5665 18.3792 44.5031 18.2295 44.3913 18.1189C44.2795 18.0082 44.1283 17.9455 43.9703 17.9441C43.8122 17.9428 43.6599 18.0029 43.5462 18.1116" fill="#071546"/>
<path id="Path 356" d="M40.5083 21.9628L38.8054 20.277L38.5643 20.0382C38.4512 19.9263 38.2978 19.8635 38.1379 19.8635C37.978 19.8636 37.8247 19.9265 37.7117 20.0384C37.5986 20.1504 37.5351 20.3022 37.5352 20.4605C37.5352 20.6188 37.5988 20.7706 37.7118 20.8825L39.4147 22.5679L39.6559 22.8067C39.7115 22.8637 39.778 22.9091 39.8515 22.9404C39.9251 22.9717 40.0042 22.9881 40.0843 22.9888C40.1643 22.9895 40.2437 22.9744 40.3178 22.9444C40.3919 22.9144 40.4592 22.8701 40.5158 22.8141C40.5724 22.758 40.6171 22.6914 40.6475 22.618C40.6778 22.5447 40.693 22.4661 40.6923 22.3869C40.6916 22.3076 40.675 22.2293 40.6434 22.1565C40.6118 22.0837 40.5659 22.0178 40.5083 21.9628Z" fill="#071546"/>
<path id="Path 357" d="M18.0182 35.7985C24.0464 34.7736 29.6914 32.1816 34.3757 28.2878C35.6963 27.1907 36.9294 25.9943 38.064 24.7094C38.5732 24.1336 37.7236 23.2862 37.2115 23.8655C33.2813 28.3047 28.2209 31.6198 22.5573 33.4658C20.9698 33.9791 19.3457 34.3741 17.6986 34.6475C16.935 34.7748 17.2589 35.9255 18.0202 35.7985" fill="#071546"/>
<path id="Path 358" d="M34.7869 24.6284C35.5614 24.6436 36.3359 24.6495 37.11 24.6607L37.3579 24.6642C37.4341 24.6774 37.5119 24.6789 37.5886 24.6686C37.4873 24.7084 37.3004 24.3841 37.3579 24.5755C37.3716 24.6166 37.3885 24.6565 37.4086 24.6949C37.4581 24.8158 37.5058 24.9375 37.5516 25.0597C37.7454 25.5829 37.9014 26.119 38.0187 26.664C38.0622 26.816 38.1644 26.945 38.3033 27.023C38.4421 27.101 38.6064 27.1219 38.7606 27.0809C38.9127 27.0356 39.0413 26.934 39.1197 26.7972C39.1981 26.6604 39.2202 26.499 39.1814 26.3465C39.0516 25.7434 38.8742 25.1514 38.6508 24.5759C38.568 24.2091 38.3754 23.8755 38.0982 23.6186C37.8645 23.4965 37.5997 23.445 37.3366 23.4706C36.4866 23.4567 35.6366 23.4515 34.7869 23.4348C34.6275 23.4363 34.475 23.4996 34.3623 23.6112C34.2495 23.7228 34.1855 23.8738 34.1841 24.0316C34.1871 24.189 34.2515 24.3391 34.364 24.4504C34.4764 24.5617 34.628 24.6255 34.7869 24.6284Z" fill="#071546"/>
</g>
</g>
</g>
</g>
</g>
<defs>
<clipPath id="clip0_922_294">
<rect width="60" height="60" fill="white"/>
</clipPath>
</defs>
</svg>
