<svg width="29" height="30" viewBox="0 0 29 30" fill="none" xmlns="http://www.w3.org/2000/svg">
    <path d="M21.2273 0.0400414H7.63313C6.18088 0.0400414 5 1.22092 5 2.67317V26.5284C5 27.9807 6.18088 29.1616 7.63313 29.1616H21.2273C22.6796 29.1616 23.8605 27.9807 23.8605 26.5284V2.67317C23.8605 1.22092 22.6796 0.0400414 21.2273 0.0400414ZM5.97936 5H22.8804V24.2016H5.97936V5ZM7.63313 1.0194H21.2273C22.1389 1.0194 22.8804 1.76098 22.8804 2.6725V4.01997H5.97936V2.67317C5.97936 1.76098 6.72094 1.0194 7.63313 1.0194ZM21.2273 28.1815H7.63313C6.72161 28.1815 5.98003 27.4399 5.98003 26.5284V25.181H22.8811V26.5284C22.8811 27.4399 22.1395 28.1815 21.2273 28.1815Z" fill="#071546"/>
    <path d="M5.97936 5H22.8804V24.2016H5.97936V5Z" fill="white"/>
    <path d="M7.63313 1.0194H21.2273C22.1389 1.0194 22.8804 1.76098 22.8804 2.6725V4.01997H5.97936V2.67317C5.97936 1.76098 6.72094 1.0194 7.63313 1.0194Z" fill="white"/>
    <path d="M21.2273 28.1815H7.63313C6.72161 28.1815 5.98003 27.4399 5.98003 26.5284V25.181H22.8811V26.5284C22.8811 27.4399 22.1395 28.1815 21.2273 28.1815Z" fill="white"/>
    <path d="M13.2055 2.97936H15.6553C15.926 2.97936 16.1449 2.76038 16.1449 2.48968C16.1449 2.21898 15.926 2 15.6553 2H13.2055C12.9348 2 12.7158 2.21898 12.7158 2.48968C12.7152 2.76038 12.9348 2.97936 13.2055 2.97936Z" fill="#071546"/>
    <path d="M14.4302 25.7136C13.8929 25.7136 13.4569 26.1496 13.4569 26.6869C13.4569 27.2243 13.8929 27.6596 14.4302 27.6596C14.9676 27.6596 15.4035 27.2236 15.4035 26.6863C15.4035 26.1489 14.9676 25.7136 14.4302 25.7136Z" fill="#071546"/>
    <path d="M13.4502 8.34082H9.25128C8.98058 8.34082 8.7616 8.5598 8.7616 8.8305V13.0294C8.7616 13.3001 8.98058 13.5191 9.25128 13.5191H13.4502C13.7209 13.5191 13.9399 13.3001 13.9399 13.0294V8.8305C13.9405 8.5598 13.7216 8.34082 13.4502 8.34082ZM12.9605 12.5397H9.74163V9.32086H12.9605V12.5397Z" fill="#071546"/>
    <path d="M19.6091 8.34082H15.4102C15.1395 8.34082 14.9205 8.5598 14.9205 8.8305V13.0294C14.9205 13.3001 15.1395 13.5191 15.4102 13.5191H19.6091C19.8798 13.5191 20.0988 13.3001 20.0988 13.0294V8.8305C20.0988 8.5598 19.8798 8.34082 19.6091 8.34082ZM19.1188 12.5397H15.8999V9.32086H19.1188V12.5397Z" fill="#071546"/>
    <path d="M13.4502 14.4993H9.25128C8.98058 14.4993 8.7616 14.7182 8.7616 14.9889V19.1879C8.7616 19.4586 8.98058 19.6775 9.25128 19.6775H13.4502C13.7209 19.6775 13.9399 19.4586 13.9399 19.1879V14.9889C13.9405 14.7182 13.7216 14.4993 13.4502 14.4993ZM12.9605 18.6982H9.74163V15.4793H12.9605V18.6982Z" fill="#071546"/>
    <path d="M19.6091 14.4993H15.4102C15.1395 14.4993 14.9205 14.7182 14.9205 14.9889V19.1879C14.9205 19.4586 15.1395 19.6775 15.4102 19.6775H19.6091C19.8798 19.6775 20.0988 19.4586 20.0988 19.1879V14.9889C20.0988 14.7182 19.8798 14.4993 19.6091 14.4993ZM19.1188 18.6982H15.8999V15.4793H19.1188V18.6982Z" fill="#071546"/>
</svg>
