<svg width="29" height="29" viewBox="0 0 29 29" fill="none" xmlns="http://www.w3.org/2000/svg">
    <path d="M17.6581 14.4436C17.5342 14.4436 17.4103 14.3984 17.3129 14.3062C17.113 14.1162 17.1055 13.8011 17.2963 13.602L18.9302 11.8958L17.2963 10.1896C17.1055 9.99047 17.113 9.67539 17.3129 9.48535C17.5127 9.29531 17.8291 9.30271 18.0199 9.5018L19.9833 11.5519C20.1675 11.7444 20.1675 12.0472 19.9833 12.2388L18.0199 14.2889C17.9216 14.3918 17.7903 14.4436 17.6581 14.4436Z" fill="#071546"/>
    <path d="M9.71688 14.4436C9.58471 14.4436 9.45338 14.3918 9.35508 14.2898L7.39166 12.2397C7.20746 12.0472 7.20746 11.7444 7.39166 11.5527L9.35508 9.50262C9.54589 9.30354 9.86225 9.29613 10.0621 9.48617C10.262 9.67621 10.2695 9.99129 10.0787 10.1904L8.44482 11.8966L10.0787 13.6028C10.2695 13.8019 10.262 14.117 10.0621 14.307C9.96468 14.3975 9.84078 14.4436 9.71688 14.4436Z" fill="#071546"/>
    <path d="M12.821 14.8887C12.7665 14.8887 12.712 14.8796 12.6575 14.8615C12.3964 14.7719 12.2585 14.488 12.3485 14.2281L14.0815 9.23855C14.1715 8.97858 14.4565 8.8412 14.7175 8.93087C14.9786 9.02054 15.1165 9.30436 15.0265 9.56432L13.2935 14.5538C13.2216 14.7595 13.0283 14.8887 12.821 14.8887Z" fill="#071546"/>
    <path d="M14.0575 24.0483C13.861 24.0483 13.6825 23.9331 13.6016 23.7546L11.943 20.0789C11.8298 19.828 11.9421 19.5335 12.1941 19.4208C12.446 19.3081 12.7417 19.42 12.8549 19.6709L14.0575 22.3363L15.2602 19.6709C15.3734 19.42 15.6691 19.3081 15.921 19.4208C16.173 19.5335 16.2853 19.828 16.1721 20.0789L14.5135 23.7546C14.4334 23.9331 14.255 24.0483 14.0575 24.0483Z" fill="#071546"/>
    <path d="M10.8353 24.0483C10.5594 24.0483 10.3356 23.8254 10.3356 23.5506V21.6724L9.69787 22.7304C9.60784 22.8801 9.44511 22.9723 9.26917 22.9723C9.09324 22.9723 8.93051 22.8801 8.84048 22.7304L8.2028 21.6724V23.5506C8.2028 23.8254 7.97895 24.0483 7.70306 24.0483C7.42717 24.0483 7.20333 23.8254 7.20333 23.5506V19.8749C7.20333 19.6511 7.35283 19.4545 7.57007 19.3953C7.78649 19.3352 8.01694 19.4274 8.13176 19.619L9.26917 21.5071L10.4066 19.619C10.5222 19.4274 10.7519 19.336 10.9683 19.3953C11.1847 19.4553 11.335 19.6511 11.335 19.8749V23.5506C11.3358 23.8254 11.112 24.0483 10.8353 24.0483Z" fill="#071546"/>
    <path d="M4.04715 25.9882V28.0046H23.3279V25.9882H4.04715Z" fill="white"/>
    <path fill-rule="evenodd" clip-rule="evenodd" d="M23.3279 6.4793H18.2272C17.9514 6.4793 17.7275 6.25635 17.7275 5.98158V0.996175H4.04715V17.3114H23.3279V6.4793ZM17.3129 14.3062C17.4103 14.3984 17.5342 14.4436 17.6581 14.4436C17.7903 14.4436 17.9216 14.3918 18.0199 14.2889L19.9833 12.2388C20.1675 12.0472 20.1675 11.7444 19.9833 11.5519L18.0199 9.5018C17.8291 9.30271 17.5127 9.29531 17.3129 9.48535C17.113 9.67539 17.1055 9.99047 17.2963 10.1896L18.9302 11.8958L17.2963 13.602C17.1055 13.8011 17.113 14.1162 17.3129 14.3062ZM9.35508 14.2898C9.45338 14.3918 9.58471 14.4436 9.71688 14.4436C9.84078 14.4436 9.96468 14.3975 10.0621 14.307C10.262 14.117 10.2695 13.8019 10.0787 13.6028L8.44482 11.8966L10.0787 10.1904C10.2695 9.99129 10.262 9.67621 10.0621 9.48617C9.86225 9.29613 9.54589 9.30354 9.35508 9.50262L7.39166 11.5527C7.20746 11.7444 7.20746 12.0472 7.39166 12.2397L9.35508 14.2898ZM12.6575 14.8615C12.712 14.8796 12.7665 14.8887 12.821 14.8887C13.0283 14.8887 13.2216 14.7595 13.2935 14.5538L15.0265 9.56432C15.1165 9.30436 14.9786 9.02054 14.7175 8.93087C14.4565 8.8412 14.1715 8.97858 14.0815 9.23855L12.3485 14.2281C12.2585 14.488 12.3964 14.7719 12.6575 14.8615Z" fill="white"/>
    <path d="M18.727 1.6852V5.48304H22.606L18.727 1.6852Z" fill="white"/>
    <path fill-rule="evenodd" clip-rule="evenodd" d="M23.8276 18.3085H23.8265H2.04242C2.0193 18.3085 2.0003 18.3274 2.0003 18.3505V24.9508C2.0003 24.9738 2.0193 24.9928 2.04242 24.9928H25.3326C25.3557 24.9928 25.3747 24.9738 25.3747 24.9508V18.3505C25.3747 18.3274 25.3557 18.3085 25.3326 18.3085H23.8287H23.8276ZM13.6016 23.7546C13.6825 23.9331 13.861 24.0483 14.0575 24.0483C14.255 24.0483 14.4334 23.9331 14.5135 23.7546L16.1721 20.0789C16.2853 19.828 16.173 19.5335 15.921 19.4208C15.6691 19.3081 15.3734 19.42 15.2602 19.6709L14.0575 22.3363L12.8549 19.6709C12.7417 19.42 12.446 19.3081 12.1941 19.4208C11.9421 19.5335 11.8298 19.828 11.943 20.0789L13.6016 23.7546ZM10.3356 23.5506C10.3356 23.8254 10.5594 24.0483 10.8353 24.0483C11.112 24.0483 11.3358 23.8254 11.335 23.5506V19.8749C11.335 19.6511 11.1847 19.4553 10.9683 19.3953C10.7519 19.336 10.5222 19.4274 10.4066 19.619L9.26917 21.5071L8.13176 19.619C8.01694 19.4274 7.78649 19.3352 7.57007 19.3953C7.35283 19.4545 7.20333 19.6511 7.20333 19.8749V23.5506C7.20333 23.8254 7.42717 24.0483 7.70306 24.0483C7.97895 24.0483 8.2028 23.8254 8.2028 23.5506V21.6724L8.84048 22.7304C8.93051 22.8801 9.09324 22.9723 9.26917 22.9723C9.44511 22.9723 9.60784 22.8801 9.69787 22.7304L10.3356 21.6724V23.5506ZM17.3575 23.9241C17.0816 23.9241 16.8577 23.7012 16.8577 23.4264L16.8577 21.6486L16.8577 19.7507C16.8577 19.4759 17.0816 19.253 17.3575 19.253C17.3673 19.253 17.3771 19.2532 17.3869 19.2538H18.7187C19.52 19.2538 20.1717 19.9029 20.1717 20.7009C20.1708 21.4972 19.5191 22.1463 18.7187 22.1463H17.8572V23.4264C17.8572 23.7012 17.6333 23.9241 17.3575 23.9241Z" fill="white"/>
    <path d="M18.727 0.498457C18.727 0.223684 18.5031 0.000739552 18.2272 0.000739552H18.2004C18.0802 0.00725131 17.9621 0.0567543 17.8712 0.148821C17.6771 0.34544 17.6804 0.660524 17.877 0.85303L18.727 1.6852V0.498457Z" fill="#071546"/>
    <path fill-rule="evenodd" clip-rule="evenodd" d="M16.8577 23.4264C16.8577 23.7012 17.0816 23.9241 17.3575 23.9241C17.6333 23.9241 17.8572 23.7012 17.8572 23.4264V22.1463H18.7187C19.5191 22.1463 20.1708 21.4972 20.1717 20.7009C20.1717 19.9029 19.52 19.2538 18.7187 19.2538H17.3869C17.3771 19.2532 17.3673 19.253 17.3575 19.253C17.0816 19.253 16.8577 19.4759 16.8577 19.7507L16.8577 21.6486L16.8577 23.4264ZM17.8572 20.2492V19.7507C17.8572 19.4857 17.6491 19.269 17.3869 19.2538L17.3575 19.253C17.0816 19.253 16.8577 19.4759 16.8577 19.7507C16.8577 20.0254 17.0816 20.2492 17.3575 20.2492H17.8572ZM17.8572 20.2492H18.7187C18.9682 20.2492 19.1714 20.4516 19.1714 20.7001C19.1714 20.9485 18.9682 21.1509 18.7187 21.1509H17.8572V20.2492Z" fill="#071546"/>
    <path d="M16.8577 19.7507C16.8577 20.0254 17.0816 20.2492 17.3575 20.2492H17.8572V19.7507C17.8572 19.4857 17.6491 19.269 17.3869 19.2538L17.3575 19.253C17.0816 19.253 16.8577 19.4759 16.8577 19.7507Z" fill="#071546"/>
    <path d="M23.8276 24.9936C23.5517 24.9936 23.3279 25.2165 23.3279 25.4913V25.9882H24.3273V25.4913C24.3273 25.2165 24.1035 24.9936 23.8276 24.9936Z" fill="#071546"/>
    <path fill-rule="evenodd" clip-rule="evenodd" d="M24.1786 5.62619C24.2851 5.7304 24.3349 5.87054 24.3273 6.00836V17.3114H23.3279V6.4793H18.2272C17.9514 6.4793 17.7275 6.25635 17.7275 5.98158V0.996175H4.04715V17.3114H23.3279V17.8108C23.3279 18.0852 23.5511 18.3079 23.8265 18.3085H2.04242C2.0193 18.3085 2.0003 18.3274 2.0003 18.3505V24.9508C2.0003 24.9738 2.0193 24.9928 2.04242 24.9928H25.3326C25.3557 24.9928 25.3747 24.9738 25.3747 24.9508V18.3505C25.3747 18.3274 25.3557 18.3085 25.3326 18.3085H23.8287C24.1041 18.3079 24.3273 18.0852 24.3273 17.81V17.3114H25.3326C25.9075 17.3114 26.375 17.7771 26.375 18.3497V24.95C26.3742 25.5226 25.9067 25.9882 25.3326 25.9882H24.3273V25.4913C24.3273 25.2165 24.1035 24.9936 23.8276 24.9936C23.5517 24.9936 23.3279 25.2165 23.3279 25.4913V25.9882H4.04715V28.0046H23.3279V25.9882H24.3273V28.5023C24.3273 28.7771 24.1035 29 23.8276 29H3.54741C3.27152 29 3.04768 28.7771 3.04768 28.5023V25.9882H2.04242C1.46752 25.9882 1 25.5226 1 24.95V18.3497C1 17.7771 1.46752 17.3114 2.04242 17.3114H3.04768V0.498457C3.04768 0.223684 3.27152 0.000739552 3.54741 0.000739552H18.2004C18.0802 0.00725131 17.9621 0.0567543 17.8712 0.148821C17.6771 0.34544 17.6804 0.660524 17.877 0.85303L18.727 1.6852V5.48304H22.606L18.727 1.6852V0.498457C18.727 0.223684 18.5031 0.000739552 18.2272 0.000739552H18.2004C18.3357 -0.00659713 18.4737 0.0406399 18.5783 0.143062L24.1786 5.62619Z" fill="#071546"/>
    <path d="M23.3279 17.3114V17.8108C23.3279 18.0852 23.5511 18.3079 23.8265 18.3085H23.8276H23.8287C24.1041 18.3079 24.3273 18.0852 24.3273 17.81V17.3114H23.3279Z" fill="#071546"/>
    <path d="M18.7187 21.1509C18.9682 21.1509 19.1714 20.9485 19.1714 20.7001C19.1714 20.4516 18.9682 20.2492 18.7187 20.2492H17.8572V21.1509H18.7187Z" fill="white"/>
</svg>
