<svg width="29" height="29" viewBox="0 0 29 29" fill="none" xmlns="http://www.w3.org/2000/svg">
    <path d="M13.6509 0.660502C13.9603 0.481869 14.3415 0.481869 14.6509 0.660501L25.9059 7.15858C26.2153 7.33721 26.4059 7.66734 26.4059 8.0246V21.0208C26.4059 21.378 26.2153 21.7082 25.9059 21.8868L14.6509 28.3849C14.3415 28.5635 13.9603 28.5635 13.6509 28.3849L2.39586 21.8868C2.08645 21.7082 1.89585 21.378 1.89585 21.0208V8.02461C1.89585 7.66734 2.08645 7.33721 2.39585 7.15858L13.6509 0.660502Z" fill="white"/>
    <mask id="path-2-inside-1_3067_771" fill="white">
        <path d="M26.623 8.67218C26.8991 8.19389 26.7353 7.58229 26.257 7.30615L14.4683 0.499953C13.99 0.223811 13.3784 0.387686 13.1023 0.865978L1.74464 20.5379C1.4685 21.0162 1.63238 21.6278 2.11067 21.904L13.8994 28.7102C14.3776 28.9863 14.9892 28.8224 15.2654 28.3441L26.623 8.67218Z"/>
    </mask>
    <path d="M26.623 8.67218C26.8991 8.19389 26.7353 7.58229 26.257 7.30615L14.4683 0.499953C13.99 0.223811 13.3784 0.387686 13.1023 0.865978L1.74464 20.5379C1.4685 21.0162 1.63238 21.6278 2.11067 21.904L13.8994 28.7102C14.3776 28.9863 14.9892 28.8224 15.2654 28.3441L26.623 8.67218Z" fill="white"/>
    <path d="M27.123 7.80615L13.6023 -4.72069e-05L27.123 7.80615ZM1.24464 21.404L14.7654 29.2102L1.24464 21.404ZM13.8994 28.7102C14.8559 29.2624 16.0791 28.9347 16.6314 27.9781L26.989 10.0382C27.5413 9.08162 27.2135 7.85844 26.257 7.30615C26.257 7.30615 26.0331 7.69389 25.757 8.17218L14.3994 27.8441C14.1232 28.3224 13.8994 28.7102 13.8994 28.7102ZM14.4683 0.499953C13.5117 -0.0523319 12.2885 0.275418 11.7362 1.232L1.37862 19.1719C0.826332 20.1285 1.15408 21.3517 2.11067 21.904C2.11067 21.904 2.33453 21.5162 2.61067 21.0379L13.9683 1.36598C14.2444 0.887686 14.4683 0.499953 14.4683 0.499953Z" fill="#071546" mask="url(#path-2-inside-1_3067_771)"/>
    <mask id="path-4-inside-2_3067_771" fill="white">
        <path d="M1.75061 8.68268C1.47447 8.20438 1.63834 7.59279 2.11664 7.31665L13.9053 0.510451C14.3836 0.234309 14.9952 0.398184 15.2713 0.876476L26.6229 20.538C26.8991 21.0163 26.7352 21.6279 26.2569 21.904L14.4682 28.7102C13.9899 28.9863 13.3783 28.8225 13.1022 28.3442L1.75061 8.68268Z"/>
    </mask>
    <path d="M1.75061 8.68268C1.47447 8.20438 1.63834 7.59279 2.11664 7.31665L13.9053 0.510451C14.3836 0.234309 14.9952 0.398184 15.2713 0.876476L26.6229 20.538C26.8991 21.0163 26.7352 21.6279 26.2569 21.904L14.4682 28.7102C13.9899 28.9863 13.3783 28.8225 13.1022 28.3442L1.75061 8.68268Z" fill="white"/>
    <path d="M1.25061 7.81665L14.7713 0.0104508L1.25061 7.81665ZM27.1229 21.404L13.6022 29.2102L27.1229 21.404ZM14.4682 28.7102C13.5116 29.2625 12.2884 28.9347 11.7362 27.9782L1.38458 10.0487C0.8323 9.09212 1.16005 7.86894 2.11664 7.31665C2.11664 7.31665 2.34049 7.70438 2.61664 8.18268L13.9682 27.8442C14.2444 28.3225 14.4682 28.7102 14.4682 28.7102ZM13.9053 0.510451C14.8619 -0.0418339 16.0851 0.285916 16.6374 1.2425L26.9889 19.172C27.5412 20.1285 27.2135 21.3517 26.2569 21.904C26.2569 21.904 26.033 21.5163 25.7569 21.038L14.4053 1.37648C14.1292 0.898184 13.9053 0.510451 13.9053 0.510451Z" fill="#071546" mask="url(#path-4-inside-2_3067_771)"/>
</svg>
