<svg width="24" height="24" viewBox="0 0 24 24" fill="none" xmlns="http://www.w3.org/2000/svg">
<g id="phone_in_talk_FILL0_wght300_GRAD0_opsz24 1">
<path id="Vector" d="M19.0385 11.7307C18.9808 9.81278 18.2824 8.18425 16.9433 6.84515C15.6042 5.50605 13.9757 4.80765 12.0577 4.74995V3.25C13.2244 3.27563 14.3167 3.51473 15.3346 3.9673C16.3526 4.41987 17.2417 5.02628 18.0019 5.78653C18.7622 6.54678 19.3686 7.43588 19.8211 8.45383C20.2737 9.47176 20.5128 10.5641 20.5384 11.7307H19.0385ZM15.0385 11.7307C14.9808 10.9294 14.6699 10.2452 14.1058 9.67785C13.5417 9.11053 12.859 8.80124 12.0577 8.74995V7.25C13.2744 7.30128 14.3109 7.75673 15.1673 8.61633C16.0237 9.47594 16.4807 10.5141 16.5384 11.7307H15.0385ZM19.4404 20.5C17.5558 20.5 15.6625 20.0618 13.7606 19.1855C11.8587 18.3092 10.1096 17.073 8.51348 15.4769C6.92375 13.8807 5.69074 12.1333 4.81446 10.2346C3.93817 8.33588 3.50003 6.44423 3.50003 4.55963C3.50003 4.25963 3.60003 4.00802 3.80003 3.80482C4.00003 3.60161 4.25003 3.5 4.55003 3.5H7.81153C8.0641 3.5 8.28686 3.58238 8.4798 3.74713C8.67276 3.91188 8.79551 4.1154 8.84806 4.3577L9.42113 7.29998C9.46088 7.57306 9.45255 7.80768 9.39613 8.00383C9.33973 8.19998 9.23845 8.36472 9.09228 8.49805L6.78268 10.7461C7.15448 11.4269 7.57916 12.0708 8.05673 12.6779C8.5343 13.2849 9.05128 13.8647 9.60768 14.4173C10.1564 14.966 10.7398 15.4756 11.3577 15.9462C11.9757 16.4167 12.643 16.8545 13.3596 17.2596L15.6039 14.9962C15.7603 14.8333 15.9497 14.7192 16.1721 14.6539C16.3946 14.5885 16.6257 14.5724 16.8654 14.6058L19.6423 15.1712C19.8948 15.2378 20.1009 15.3667 20.2606 15.5577C20.4202 15.7487 20.5 15.9654 20.5 16.2077V19.45C20.5 19.75 20.3984 20 20.1952 20.2C19.992 20.4 19.7404 20.5 19.4404 20.5ZM6.07308 9.32693L7.85771 7.61923C7.88976 7.59358 7.91059 7.55832 7.92021 7.51345C7.92982 7.46857 7.92822 7.4269 7.91541 7.38845L7.48078 5.15383C7.46796 5.10254 7.44553 5.06408 7.41348 5.03845C7.38143 5.0128 7.33976 4.99998 7.28848 4.99998H5.15001C5.11156 4.99998 5.07951 5.0128 5.05386 5.03845C5.02821 5.06408 5.01538 5.09613 5.01538 5.1346C5.06666 5.81793 5.17852 6.51217 5.35096 7.2173C5.52341 7.92243 5.76411 8.62564 6.07308 9.32693ZM14.7731 17.9692C15.4359 18.2782 16.1272 18.5144 16.8471 18.6779C17.567 18.8413 18.2397 18.9384 18.8654 18.9692C18.9038 18.9692 18.9359 18.9564 18.9615 18.9308C18.9872 18.9051 19 18.873 19 18.8346V16.7308C19 16.6795 18.9872 16.6378 18.9615 16.6057C18.9359 16.5737 18.8974 16.5512 18.8462 16.5384L16.7462 16.1115C16.7077 16.0987 16.6741 16.0971 16.6452 16.1067C16.6164 16.1163 16.5859 16.1372 16.5539 16.1692L14.7731 17.9692Z" fill="#2AB398"/>
</g>
</svg>
