<svg width="533" height="517" viewBox="0 0 533 517" fill="none" xmlns="http://www.w3.org/2000/svg">
<rect width="510" height="500.852" fill="white"/>
<g clip-path="url(#clip0_922_505)">
<mask id="mask0_922_505" style="mask-type:luminance" maskUnits="userSpaceOnUse" x="328" y="311" width="182" height="167">
<path d="M510 311.031H328.184V477.982H510V311.031Z" fill="white"/>
</mask>
<g mask="url(#mask0_922_505)">
<path d="M510 321.718L509.802 321.813L490.053 312.388C489.184 311.973 488.319 311.486 487.422 311.132C486.483 310.761 485.438 311.51 484.59 311.914L472.798 317.544L463.853 321.813L444.278 312.469C443.36 312.029 442.441 311.528 441.499 311.142C440.581 310.769 439.712 311.408 438.892 311.807L427.26 317.482L418.378 321.811L398.635 312.388C397.766 311.973 396.903 311.485 396.004 311.132C395.065 310.761 394.02 311.51 393.172 311.914L381.38 317.544L372.434 321.813L352.686 312.388C351.817 311.973 350.952 311.485 350.055 311.132C349.116 310.761 348.071 311.51 347.223 311.914L335.431 317.544L328.184 321.002V323.535C328.368 323.437 328.549 323.341 328.719 323.26L340.515 317.63L349.458 313.361L369.207 322.786C370.077 323.2 370.942 323.688 371.84 324.042C372.778 324.413 373.823 323.664 374.671 323.26L386.464 317.63L395.409 313.361L414.983 322.703L417.804 324.049C417.973 324.131 418.16 324.172 418.348 324.169C418.559 324.185 418.771 324.144 418.96 324.049L438.651 314.452L440.884 313.364L460.628 322.786C461.498 323.2 462.363 323.688 463.26 324.042C464.198 324.413 465.244 323.664 466.092 323.26L477.887 317.63L486.832 313.361L506.58 322.786C507.45 323.2 508.315 323.688 509.212 324.042C509.465 324.136 509.739 324.162 510.005 324.117L510 321.718Z" fill="#D2DBE5"/>
<path d="M510 347.353L509.802 347.448L490.053 338.023C489.184 337.608 488.319 337.121 487.422 336.767C486.483 336.396 485.438 337.145 484.59 337.549L472.795 343.179L463.849 347.448L444.278 338.106C443.36 337.666 442.441 337.165 441.499 336.78C440.581 336.406 439.712 337.045 438.892 337.445L427.26 343.119L418.377 347.445L398.634 338.023C397.764 337.608 396.9 337.121 396.002 336.767C395.064 336.396 394.018 337.145 393.171 337.549L381.38 343.179L372.434 347.448L352.686 338.023C351.817 337.608 350.952 337.121 350.055 336.767C349.116 336.396 348.071 337.145 347.223 337.549L335.431 343.179L328.184 346.638V349.17C328.368 349.072 328.549 348.976 328.719 348.894L340.515 343.261L349.458 338.996L369.207 348.421C370.077 348.835 370.942 349.323 371.84 349.677C372.778 350.047 373.823 349.298 374.671 348.894L386.464 343.261L395.409 338.992L414.983 348.338L417.804 349.684C417.973 349.766 418.16 349.807 418.348 349.804C418.559 349.82 418.771 349.778 418.96 349.684L438.651 340.083L440.884 338.995L460.628 348.417C461.498 348.832 462.363 349.319 463.26 349.673C464.198 350.044 465.244 349.295 466.092 348.891L477.882 343.261L486.827 338.992L506.574 348.421C507.445 348.835 508.309 349.323 509.207 349.677C509.46 349.771 509.733 349.797 510 349.752V347.353Z" fill="#D2DBE5"/>
<path d="M510 372.988L509.802 373.083L490.053 363.657C489.184 363.243 488.319 362.756 487.422 362.401C486.483 362.031 485.438 362.78 484.59 363.184L472.795 368.813L463.849 373.083L444.278 363.741C443.36 363.301 442.441 362.8 441.499 362.414C440.581 362.041 439.712 362.68 438.892 363.079L427.26 368.754L418.378 373.083L398.634 363.661C397.765 363.247 396.9 362.759 396.003 362.405C395.065 362.035 394.019 362.784 393.171 363.188L381.38 368.813L372.434 373.083L352.686 363.657C351.817 363.243 350.952 362.756 350.055 362.401C349.116 362.031 348.071 362.78 347.223 363.184L335.431 368.813L328.184 372.272V374.805C328.368 374.707 328.549 374.611 328.719 374.529L340.515 368.9L349.458 364.63L369.207 374.053C370.077 374.468 370.942 374.955 371.84 375.31C372.778 375.68 373.823 374.932 374.671 374.527L386.467 368.897L395.412 364.628L414.986 373.971L417.807 375.317C417.976 375.399 418.163 375.44 418.351 375.436C418.563 375.452 418.774 375.411 418.963 375.317L438.652 365.72L440.885 364.631L460.629 374.053C461.499 374.468 462.363 374.955 463.261 375.31C464.199 375.68 465.245 374.932 466.092 374.527L477.888 368.897L486.833 364.628L506.574 374.053C507.445 374.468 508.309 374.955 509.207 375.31C509.46 375.404 509.733 375.43 510 375.386V372.988Z" fill="#D2DBE5"/>
<path d="M510 398.624L509.802 398.718L490.053 389.293C489.184 388.878 488.319 388.391 487.422 388.037C486.483 387.667 485.438 388.415 484.59 388.819L472.795 394.449L463.853 398.717L444.278 389.375C443.36 388.936 442.442 388.435 441.499 388.049C440.581 387.675 439.712 388.315 438.892 388.714L427.26 394.388L418.377 398.717L398.634 389.295C397.764 388.881 396.9 388.393 396.002 388.039C395.064 387.669 394.018 388.418 393.171 388.822L381.375 394.451L372.434 398.717L352.686 389.293C351.817 388.878 350.952 388.391 350.055 388.037C349.116 387.667 348.071 388.415 347.223 388.819L335.431 394.449L328.184 397.908V400.44C328.368 400.343 328.549 400.246 328.719 400.165L340.515 394.535L349.458 390.266L369.205 399.691C370.075 400.106 370.94 400.593 371.838 400.947C372.776 401.318 373.821 400.569 374.669 400.165L386.465 394.535L395.41 390.266L414.984 399.609L417.805 400.955C417.974 401.037 418.161 401.078 418.349 401.074C418.56 401.09 418.772 401.049 418.961 400.955L438.65 391.358L440.883 390.269L460.626 399.691C461.496 400.106 462.361 400.593 463.259 400.947C464.197 401.318 465.242 400.569 466.09 400.165L477.886 394.535L486.831 390.266L506.578 399.691C507.448 400.106 508.313 400.593 509.211 400.947C509.464 401.041 509.737 401.067 510.004 401.023L510 398.624Z" fill="#D2DBE5"/>
<path d="M510 424.258L509.802 424.353L490.053 414.928C489.184 414.513 488.319 414.026 487.422 413.672C486.483 413.301 485.438 414.05 484.59 414.454L472.795 420.084L463.849 424.353L444.275 415.011C443.357 414.571 442.438 414.07 441.496 413.685C440.578 413.311 439.709 413.95 438.889 414.35L427.257 420.024L418.375 424.354L398.631 414.931C397.762 414.517 396.897 414.03 396 413.676C395.062 413.305 394.016 414.054 393.168 414.458L381.373 420.087L372.428 424.357L352.686 414.928C351.817 414.513 350.952 414.026 350.055 413.672C349.116 413.301 348.071 414.05 347.223 414.454L335.431 420.084L328.184 423.542V426.075C328.368 425.977 328.549 425.881 328.719 425.799L340.515 420.17L349.458 415.901L369.207 425.326C370.077 425.74 370.942 426.228 371.84 426.582C372.778 426.952 373.823 426.203 374.671 425.799L386.467 420.17L395.412 415.901L414.986 425.243L417.807 426.589C417.976 426.671 418.163 426.712 418.351 426.709C418.563 426.725 418.774 426.684 418.963 426.589L438.652 416.992L440.885 415.904L460.629 425.326C461.499 425.74 462.363 426.228 463.261 426.582C464.199 426.952 465.245 426.203 466.092 425.799L477.888 420.17L486.833 415.901L506.581 425.326C507.451 425.74 508.315 426.228 509.213 426.582C509.466 426.676 509.739 426.702 510.006 426.657L510 424.258Z" fill="#D2DBE5"/>
<path d="M510 449.893L509.802 449.987L490.053 440.562C489.184 440.148 488.319 439.66 487.422 439.306C486.483 438.936 485.438 439.685 484.59 440.089L472.795 445.718L463.85 449.987L444.275 440.645C443.357 440.206 442.438 439.705 441.496 439.319C440.578 438.945 439.709 439.585 438.889 439.984L427.257 445.655L418.375 449.984L398.631 440.562C397.762 440.148 396.897 439.66 396 439.306C395.062 438.936 394.016 439.685 393.168 440.089L381.373 445.718L372.428 449.987L352.686 440.562C351.817 440.148 350.952 439.66 350.055 439.306C349.116 438.936 348.071 439.685 347.223 440.089L335.431 445.718L328.184 449.18V451.713C328.368 451.616 328.549 451.519 328.719 451.438L340.515 445.808L349.458 441.535L369.205 450.96C370.075 451.375 370.94 451.862 371.838 452.216C372.776 452.587 373.821 451.838 374.669 451.434L386.465 445.804L395.41 441.535L414.984 450.877L417.805 452.224C417.974 452.306 418.161 452.347 418.349 452.343C418.56 452.359 418.772 452.318 418.961 452.224L438.65 442.627L440.883 441.538L460.626 450.96C461.496 451.375 462.361 451.862 463.259 452.216C464.197 452.587 465.242 451.838 466.09 451.434L477.886 445.804L486.831 441.535L506.578 450.96C507.448 451.375 508.313 451.862 509.211 452.216C509.464 452.31 509.737 452.337 510.004 452.292L510 449.893Z" fill="#D2DBE5"/>
<path d="M510 475.528L509.802 475.622L490.053 466.197C489.184 465.782 488.319 465.295 487.422 464.941C486.483 464.57 485.438 465.319 484.59 465.723L472.795 471.353L463.85 475.622L444.278 466.279C443.36 465.839 442.442 465.338 441.499 464.952C440.581 464.579 439.712 465.218 438.892 465.617L427.26 471.288L418.378 475.618L398.634 466.195C397.765 465.781 396.9 465.294 396.003 464.94C395.065 464.569 394.019 465.318 393.171 465.722L381.376 471.351L372.434 475.622L352.686 466.197C351.817 465.782 350.952 465.295 350.055 464.941C349.116 464.57 348.071 465.319 347.223 465.723L335.431 471.353L328.184 474.812V477.344C328.368 477.247 328.549 477.151 328.719 477.069L340.515 471.439L349.458 467.17L369.205 476.595C370.075 477.01 370.94 477.497 371.838 477.851C372.776 478.222 373.821 477.473 374.669 477.069L386.465 471.439L395.41 467.17L414.984 476.512L417.805 477.859C417.974 477.941 418.161 477.982 418.349 477.978C418.56 477.994 418.772 477.953 418.961 477.859L438.65 468.262L440.883 467.173L460.626 476.595C461.496 477.01 462.361 477.497 463.259 477.851C464.197 478.222 465.242 477.473 466.09 477.069L477.886 471.439L486.831 467.17L506.578 476.595C507.448 477.01 508.313 477.497 509.211 477.851C509.464 477.945 509.737 477.971 510.004 477.927L510 475.528Z" fill="#D2DBE5"/>
</g>
</g>
<path d="M103.142 125.992C109.202 131.926 115.372 137.859 121.432 143.793C128.703 150.935 135.975 157.967 143.246 165C151.069 172.582 158.781 180.163 166.604 187.745C174.316 195.327 182.028 202.799 189.741 210.271C196.792 217.083 203.843 224.006 210.895 230.818C216.734 236.312 222.463 241.916 228.192 247.52C231.608 250.926 235.023 254.223 238.438 257.519C236.786 257.849 235.133 258.069 233.591 258.288C232.048 256.86 230.506 255.322 228.963 253.893C224.887 250.047 220.92 246.092 216.844 242.136C211.225 236.642 205.496 231.148 199.877 225.654C193.156 219.171 186.546 212.688 179.825 206.205C172.663 199.283 165.502 192.25 158.341 185.328C151.289 178.515 144.128 171.593 137.077 164.67C130.576 158.407 124.186 152.144 117.686 145.881C112.287 140.716 106.999 135.552 101.71 130.387C98.0744 126.981 94.5487 123.465 90.9129 119.949C90.0315 119.07 89.1501 118.301 88.3789 117.421C88.5993 115.663 88.8196 114.015 89.0399 112.257C89.3705 112.587 89.5908 112.806 89.9214 113.136C94.3284 117.421 98.7354 121.707 103.142 125.992Z" fill="#D2DBE5"/>
<path d="M96.4227 154.451C107.44 165.11 118.348 175.768 129.365 186.427C141.925 198.733 154.596 211.04 167.266 223.347C177.732 233.566 188.199 243.675 198.666 253.893C200.319 255.542 202.081 257.19 203.734 258.838C201.531 258.618 199.327 258.399 197.123 258.069C193.157 253.894 188.64 249.938 184.563 245.872C175.309 236.972 166.164 228.072 157.019 219.171C146.443 208.952 135.866 198.624 125.289 188.405C116.585 179.944 107.771 171.373 99.0669 162.912C95.7616 159.726 92.3462 156.429 89.0409 153.133C88.6002 150.825 88.3798 148.628 88.0493 146.32C90.8037 149.067 93.5581 151.704 96.4227 154.451Z" fill="#D2DBE5"/>
<path d="M106.779 199.503C110.746 203.349 114.712 207.194 118.788 211.04C126.391 218.402 133.993 225.874 141.595 233.236C144.68 236.203 147.655 239.17 150.739 242.136C150.739 242.136 150.629 242.136 150.629 242.027C138.069 234.665 127.052 225.325 117.466 214.007C113.61 209.502 110.085 204.667 106.779 199.503Z" fill="#D2DBE5"/>
<path d="M284.713 203.678C277.552 196.755 270.28 189.723 263.119 182.69C254.525 174.34 246.041 166.098 237.448 157.748C228.303 148.847 219.158 139.947 210.014 131.047C200.979 122.146 191.835 113.356 182.8 104.565C174.427 96.5441 166.164 88.4129 157.901 80.3916C151.07 73.7988 144.349 67.2059 137.518 60.6131C132.891 56.2178 128.373 51.7127 123.746 47.3175C122.975 46.5483 122.204 45.8891 121.542 45.1199C122.534 44.0211 123.526 43.0321 124.517 42.0432C126.17 43.5815 127.712 45.1199 129.255 46.6582C134.433 51.7127 139.611 56.6574 144.79 61.7119C152.061 68.7442 159.223 75.7766 166.494 82.8089C175.088 91.1599 183.572 99.4009 192.165 107.752C201.31 116.652 210.454 125.553 219.599 134.453C228.633 143.353 237.778 152.144 246.813 160.934C255.186 168.955 263.449 177.087 271.712 185.108C278.543 191.811 285.374 198.403 292.205 204.996C296.832 209.391 301.35 213.897 305.977 218.292C306.748 219.061 307.409 219.72 308.181 220.489L308.07 220.599C307.85 220.709 307.519 220.929 307.299 221.149C306.638 221.918 305.867 222.687 305.096 223.346C303.443 221.808 301.79 220.27 300.248 218.731C295.07 213.677 289.891 208.732 284.713 203.678Z" fill="#D2DBE5"/>
<path d="M300.799 79.183C287.798 66.5467 274.907 54.0203 261.907 41.384C251.22 31.0552 240.533 20.6165 229.845 10.2878C227.862 8.3099 225.879 6.44195 223.896 4.57397C226.1 4.68386 228.413 4.90362 230.617 5.12338C231.829 6.33207 233.041 7.43085 234.252 8.63954C237.337 11.7162 240.533 14.683 243.617 17.7597C253.093 26.8798 262.458 36.1097 271.933 45.2298C282.84 55.8883 293.858 66.5467 304.765 77.2051C313.91 85.9955 322.944 94.786 331.979 103.576C335.394 106.873 338.92 110.279 342.335 113.576C342.666 115.773 342.886 117.971 343.106 120.168C340.132 117.312 337.157 114.565 334.292 111.708C323.054 100.829 311.927 90.0611 300.799 79.183Z" fill="#D2DBE5"/>
<path d="M314.35 50.5044C319.088 56.2182 323.495 62.5913 327.241 69.294C327.461 69.6236 327.572 69.9533 327.792 70.2829C322.503 65.1185 317.215 59.9541 311.927 54.8996C303.774 46.9882 295.621 39.0768 287.468 31.1654C283.061 26.88 278.543 22.5947 274.136 18.1995C275.458 18.8587 276.891 19.6279 278.213 20.3971C292.095 28.1986 304.104 38.1977 314.35 50.5044Z" fill="#D2DBE5"/>
<path d="M327.241 139.837C320.96 133.794 314.791 127.86 308.621 121.817C301.349 114.674 293.967 107.642 286.696 100.5C278.873 92.9181 270.941 85.2264 263.118 77.6447C255.296 70.0629 247.473 62.4811 239.651 54.8993C232.599 48.0867 225.438 41.1643 218.387 34.2418C212.658 28.6379 206.818 22.9241 200.979 17.3201C197.453 13.9138 193.817 10.3977 190.182 6.88147C191.834 6.55183 193.597 6.2222 195.25 6.00244C196.792 7.54077 198.224 8.96922 199.767 10.3977C203.954 14.3534 208.03 18.419 212.107 22.3747C217.836 27.9786 223.565 33.4726 229.294 39.0765C236.015 45.6694 242.846 52.2622 249.566 58.8551C256.838 65.8874 264.11 73.0297 271.381 80.062C278.543 87.0944 285.814 94.0169 292.976 101.049C299.586 107.422 306.087 113.795 312.697 120.169C318.096 125.443 323.495 130.607 328.893 135.881C332.529 139.507 336.165 143.024 339.801 146.54C340.682 147.419 341.453 148.188 342.335 149.067C342.114 150.715 341.894 152.254 341.674 153.902C341.343 153.572 341.012 153.243 340.572 152.913C336.165 148.518 331.758 144.232 327.241 139.837Z" fill="#D2DBE5"/>
<path d="M316.003 164.121C309.172 157.528 302.341 150.825 295.51 144.233C287.467 136.431 279.314 128.52 271.271 120.718C262.567 112.257 253.973 103.906 245.27 95.4456C236.676 87.0947 228.082 78.7437 219.488 70.3928C211.666 62.7012 203.733 55.1194 195.911 47.4277C189.521 41.2744 183.02 35.0112 176.63 28.748C172.223 24.4627 167.926 20.2872 163.519 16.0019C163.299 15.7821 163.189 15.6722 162.968 15.4525C164.401 14.7932 165.833 14.1339 167.375 13.5845C169.028 15.2327 170.791 16.771 172.443 18.5291C177.071 23.1441 181.808 27.6492 186.546 32.2642C193.046 38.6373 199.657 45.0103 206.157 51.3834C213.98 58.8553 221.692 66.4371 229.514 74.0189C237.778 82.15 246.151 90.1713 254.414 98.3025C262.677 106.214 270.83 114.235 279.094 122.256C286.586 129.618 294.188 136.871 301.68 144.233C307.85 150.166 314.019 156.21 320.189 162.143C324.376 166.209 328.563 170.274 332.749 174.34C333.631 175.219 334.622 176.098 335.504 177.087C334.953 178.625 334.402 180.054 333.741 181.482C332.749 180.493 331.758 179.504 330.766 178.515C325.808 173.681 320.96 168.956 316.003 164.121Z" fill="#D2DBE5"/>
<path d="M242.736 232.687C236.236 226.423 229.736 220.05 223.235 213.787C215.523 206.205 207.811 198.733 200.098 191.261C191.835 183.13 183.572 175.109 175.309 167.088C167.156 159.176 158.893 151.155 150.74 143.244C143.248 135.992 135.866 128.739 128.374 121.487C122.314 115.554 116.144 109.62 110.085 103.687C105.898 99.621 101.821 95.6653 97.6348 91.5997C96.7534 90.7207 95.7618 89.8416 94.8804 88.9626C95.4313 87.5341 95.8719 86.1057 96.4228 84.6772C97.4144 85.5563 98.406 86.5452 99.3976 87.4243C104.245 92.1491 109.203 96.9839 114.051 101.709C120.772 108.411 127.603 115.004 134.434 121.597C142.476 129.509 150.519 137.31 158.562 145.112C167.156 153.463 175.749 161.814 184.343 170.164C192.937 178.515 201.42 186.756 210.014 195.107C217.837 202.689 225.659 210.271 233.482 217.853C239.872 224.006 246.262 230.269 252.652 236.423C256.949 240.598 261.356 244.883 265.653 249.059C265.763 249.169 265.984 249.388 266.094 249.498C264.661 250.048 263.229 250.707 261.797 251.256C260.034 249.608 258.381 247.96 256.619 246.312C252.101 241.807 247.364 237.192 242.736 232.687Z" fill="#D2DBE5"/>
<path d="M301.57 185.218C294.518 178.296 287.357 171.373 280.195 164.451C271.712 156.21 263.228 147.969 254.745 139.727C245.6 130.937 236.566 122.037 227.421 113.246C218.497 104.566 209.462 95.7752 200.538 87.0946C192.275 79.1832 184.122 71.1619 175.859 63.1406C169.028 56.5478 162.307 50.0648 155.586 43.472C151.069 39.0768 146.442 34.5717 141.925 30.1764C141.374 29.627 140.823 29.1875 140.272 28.6381C141.484 27.7591 142.696 26.9899 143.908 26.1108C145.56 27.7591 147.323 29.4073 148.976 31.0555C154.044 36.0001 159.112 40.8349 164.18 45.7795C171.231 52.702 178.283 59.5146 185.334 66.3272C193.707 74.4583 201.971 82.4796 210.344 90.6108C219.268 99.2914 228.192 107.972 237.117 116.653C245.931 125.333 254.855 133.904 263.669 142.475C271.712 150.276 279.865 158.187 287.908 165.989C294.518 172.472 301.129 178.845 307.739 185.328C312.257 189.723 316.664 194.009 321.181 198.404C321.952 199.173 322.833 199.942 323.605 200.821C322.833 202.03 322.062 203.129 321.291 204.227C319.859 202.909 318.537 201.59 317.104 200.272C311.926 195.217 306.748 190.273 301.57 185.218Z" fill="#D2DBE5"/>
<path d="M265.211 219.611C258.16 212.798 251.219 205.985 244.168 199.173C235.905 191.151 227.531 183.02 219.268 174.999C210.344 166.318 201.53 157.748 192.605 149.067C183.791 140.496 174.977 131.926 166.163 123.355C158.12 115.553 150.078 107.752 142.035 99.9504C135.424 93.5773 128.814 87.0944 122.203 80.7213C117.796 76.4359 113.279 72.0407 108.872 67.7554C107.99 66.8763 107.109 66.1071 106.228 65.2281C106.999 64.0194 107.77 62.8107 108.541 61.6021C109.863 62.9206 111.296 64.2392 112.618 65.4479C117.796 70.3925 122.864 75.447 128.042 80.3917C135.204 87.3141 142.365 94.3465 149.527 101.269C158.01 109.51 166.494 117.751 174.977 125.992C184.122 134.783 193.156 143.573 202.191 152.364C211.115 161.044 220.149 169.835 229.074 178.515C237.227 186.427 245.49 194.448 253.643 202.359C260.364 208.952 267.084 215.435 273.805 222.028C278.433 226.423 282.95 230.818 287.467 235.214C288.018 235.763 288.569 236.202 289.12 236.752C287.908 237.631 286.696 238.4 285.484 239.279C283.831 237.521 282.068 235.873 280.306 234.225C275.237 229.39 270.28 224.445 265.211 219.611Z" fill="#D2DBE5"/>
<path fill-rule="evenodd" clip-rule="evenodd" d="M35.6177 138.8H129.855V70.3306H35.6177V138.8Z" fill="#D2DBE5"/>
<path fill-rule="evenodd" clip-rule="evenodd" d="M35.6177 172.637H129.855V150.125H35.6177V172.637Z" fill="#D2DBE5"/>
<path fill-rule="evenodd" clip-rule="evenodd" d="M165.474 82.737H0L82.7403 0L165.474 82.737Z" fill="#D2DBE5"/>
<path d="M35.7595 372.4C33.9632 372.4 32.3129 371.411 31.4717 369.823C23.0992 354.043 20.5606 335.837 23.936 315.722C27.1318 296.665 35.4948 276.687 48.7933 256.335C75.8204 214.974 120.377 176.44 174.252 147.834C228.127 119.228 285.003 103.915 334.415 104.695C358.719 105.078 379.955 109.342 397.528 117.37C416.088 125.846 429.741 138.142 438.123 153.927C439.377 156.292 438.478 159.225 436.113 160.48C433.749 161.734 430.816 160.835 429.561 158.471C422.205 144.619 410.074 133.755 393.504 126.186C377.152 118.722 357.221 114.751 334.259 114.368C286.464 113.602 231.252 128.55 178.8 156.376C126.348 184.202 83.0535 221.621 56.9057 261.639C44.3447 280.866 36.4686 299.596 33.495 317.324C30.4789 335.289 32.6819 351.424 40.0379 365.276C40.8334 366.774 40.7879 368.58 39.9179 370.037C39.0479 371.493 37.4799 372.39 35.7832 372.4H35.7595Z" fill="#FF9800"/>
<path opacity="0.33" d="M227.172 420.734C322.844 420.734 400.402 343.176 400.402 247.504C400.402 151.831 322.844 74.2737 227.172 74.2737C131.499 74.2737 53.9414 151.831 53.9414 247.504C53.9414 343.176 131.499 420.734 227.172 420.734Z" fill="#4E5C93"/>
<path d="M343.653 289.555C353.855 262.344 358.961 252.137 343.653 247.509C328.345 242.88 306.235 272.546 285.812 258.235C265.389 243.925 292.615 213.021 284.11 195.331C275.605 177.641 265.398 175.603 270.504 142.175C273.095 125.213 288.795 106.421 303.635 92.0302C279.856 80.3163 253.698 74.2402 227.191 74.2736C220.267 74.2736 213.35 74.6843 206.475 75.5029C220.842 106.988 194.774 129.95 175.273 161.808C151.461 200.739 159.965 224.925 209.288 234.295C258.61 243.665 253.509 303.161 209.288 318.445C165.066 333.729 178.672 270.848 151.461 270.541C124.249 270.234 97.0375 264.045 95.3356 238.559C94.3901 224.107 75.9008 210.591 60.0873 201.6C55.9943 216.559 53.9273 232 53.9415 247.509C53.9415 343.179 131.501 420.739 227.176 420.739C271.535 420.796 314.214 403.778 346.362 373.213C334.174 344.971 336.174 309.5 343.653 289.555Z" fill="#3A76BB"/>
<path d="M95.3352 238.559C97.0371 264.045 124.249 270.234 151.46 270.541C178.672 270.848 165.066 333.776 209.287 318.468C253.508 303.161 258.609 243.665 209.287 234.319C159.965 224.972 151.46 200.753 175.273 161.832C194.755 129.973 220.822 106.993 206.474 75.5264C135.949 83.9035 78.4391 134.653 60.0869 201.6C75.9099 210.591 94.3708 224.107 95.3352 238.559Z" fill="#4E5C93"/>
<path d="M95.3352 238.559C97.0371 264.045 124.249 270.234 151.46 270.541C178.672 270.848 165.066 333.776 209.287 318.468C253.508 303.161 258.609 243.665 209.287 234.319C159.965 224.972 151.46 200.753 175.273 161.832C194.755 129.973 220.822 106.993 206.474 75.5264C135.949 83.9035 78.4391 134.653 60.0869 201.6C75.9099 210.591 94.3708 224.107 95.3352 238.559Z" fill="#EAF0F7"/>
<path d="M400.402 247.509C400.402 179.286 360.965 120.277 303.649 92.0303C288.809 106.421 273.109 125.213 270.518 142.175C265.412 175.603 275.619 177.631 284.124 195.331C292.629 213.031 265.412 243.925 285.812 258.235C306.211 272.546 328.359 242.876 343.653 247.509C358.946 252.142 353.855 262.344 343.653 289.555C336.174 309.501 334.174 344.971 346.362 373.232C380.914 340.55 400.464 295.069 400.402 247.509Z" fill="#071546"/>
<path d="M293.077 376.48C290.849 376.486 288.903 374.97 288.363 372.808C287.824 370.645 288.829 368.393 290.799 367.351C343.274 339.501 386.54 302.111 412.688 262.112C425.273 242.89 433.125 224.136 436.099 206.422C439.115 188.457 436.917 172.322 429.561 158.471C428.306 156.107 429.206 153.173 431.57 151.918C433.934 150.664 436.868 151.563 438.122 153.928C446.499 169.708 449.038 187.909 445.686 208.029C442.486 227.086 434.123 247.064 420.829 267.411C393.802 308.777 349.245 347.306 295.366 375.913C294.661 376.288 293.875 376.483 293.077 376.48Z" fill="#FFB900"/>
<path d="M139.746 441.157C160.902 441.157 178.053 424.006 178.053 402.85C178.053 381.694 160.902 364.543 139.746 364.543C118.589 364.543 101.438 381.694 101.438 402.85C101.438 424.006 118.589 441.157 139.746 441.157Z" fill="#FFB900"/>
<path d="M339.619 500.85C398.351 500.85 445.962 453.238 445.962 394.507C445.962 335.775 398.351 288.164 339.619 288.164C280.887 288.164 233.276 335.775 233.276 394.507C233.276 453.238 280.887 500.85 339.619 500.85Z" fill="#3A76BB"/>
<path d="M339.619 493.254C394.156 493.254 438.366 449.043 438.366 394.507C438.366 339.97 394.156 295.76 339.619 295.76C285.083 295.76 240.872 339.97 240.872 394.507C240.872 449.043 285.083 493.254 339.619 493.254Z" fill="#D2DBE5"/>
<path d="M339.619 489.693C392.189 489.693 434.806 447.077 434.806 394.507C434.806 341.937 392.189 299.32 339.619 299.32C287.049 299.32 244.433 341.937 244.433 394.507C244.433 447.077 287.049 489.693 339.619 489.693Z" fill="white"/>
<path d="M339.619 333.958C341.716 333.958 343.417 335.658 343.417 337.755V391.722H335.821V337.755C335.821 335.658 337.521 333.958 339.619 333.958Z" fill="#071546"/>
<path d="M378.292 394.506C378.292 396.604 376.592 398.304 374.494 398.304H339.619V390.708H374.494C376.592 390.708 378.292 392.409 378.292 394.506Z" fill="#071546"/>
<path d="M339.619 403.289C344.469 403.289 348.402 399.357 348.402 394.507C348.402 389.656 344.469 385.724 339.619 385.724C334.768 385.724 330.836 389.656 330.836 394.507C330.836 399.357 334.768 403.289 339.619 403.289Z" fill="#FFB900"/>
<path d="M343.407 314.749C343.407 312.652 341.707 310.951 339.609 310.951C337.512 310.951 335.812 312.652 335.812 314.749V322.345C335.812 324.443 337.512 326.143 339.609 326.143C341.707 326.143 343.407 324.443 343.407 322.345V314.749Z" fill="#D2DBE5"/>
<path d="M280.529 335.429C282.013 333.946 284.417 333.946 285.9 335.429L291.272 340.8C292.755 342.283 292.755 344.688 291.272 346.171C289.788 347.654 287.384 347.654 285.9 346.171L280.529 340.8C279.046 339.317 279.046 336.912 280.529 335.429Z" fill="#D2DBE5"/>
<path d="M256.064 394.516C256.064 392.419 257.764 390.718 259.862 390.718H267.458C269.555 390.718 271.256 392.419 271.256 394.516C271.256 396.614 269.555 398.314 267.458 398.314H259.862C257.764 398.314 256.064 396.614 256.064 394.516Z" fill="#D2DBE5"/>
<path d="M280.542 453.597C279.059 452.114 279.059 449.709 280.542 448.226L285.914 442.855C287.397 441.371 289.802 441.371 291.285 442.855C292.768 444.338 292.768 446.743 291.285 448.226L285.914 453.597C284.43 455.08 282.026 455.08 280.542 453.597Z" fill="#D2DBE5"/>
<path d="M335.83 474.264C335.83 476.361 337.531 478.062 339.628 478.062C341.726 478.062 343.426 476.361 343.426 474.264V466.668C343.426 464.57 341.726 462.87 339.628 462.87C337.531 462.87 335.83 464.57 335.83 466.668V474.264Z" fill="#D2DBE5"/>
<path d="M398.708 453.582C397.225 455.065 394.82 455.065 393.337 453.582L387.966 448.211C386.483 446.728 386.483 444.323 387.966 442.84C389.449 441.357 391.854 441.357 393.337 442.84L398.708 448.211C400.191 449.694 400.191 452.099 398.708 453.582Z" fill="#D2DBE5"/>
<path d="M423.174 394.497C423.174 396.595 421.474 398.295 419.376 398.295H411.78C409.683 398.295 407.982 396.595 407.982 394.497C407.982 392.399 409.683 390.699 411.78 390.699H419.376C421.474 390.699 423.174 392.399 423.174 394.497Z" fill="#D2DBE5"/>
<path d="M398.696 335.418C400.179 336.902 400.179 339.306 398.696 340.79L393.325 346.161C391.841 347.644 389.437 347.644 387.954 346.161C386.47 344.678 386.47 342.273 387.954 340.79L393.325 335.418C394.808 333.935 397.213 333.935 398.696 335.418Z" fill="#D2DBE5"/>
<path d="M493.807 113.037C493.807 84.8265 470.652 61.7178 442.089 61.7178C413.526 61.7178 390.37 84.8265 390.37 113.037C390.37 124.202 396.371 138.624 406.007 149.257C415.562 159.793 418.283 177.531 418.283 191.675V197.221H465.895V191.721C465.895 177.577 468.617 159.873 478.123 149.303C487.791 138.561 493.807 122.858 493.807 113.037Z" fill="#FFDB7B"/>
<path d="M485.295 112.898C485.295 89.3352 465.957 70.0281 442.089 70.0281C418.222 70.0281 398.888 89.3331 398.888 112.898C398.888 122.233 403.898 134.276 411.95 143.158C419.932 151.961 425.858 166.778 425.858 178.593V183.222H458.322V178.633C458.322 166.816 464.249 152.026 472.192 143.196C480.269 134.223 485.295 121.106 485.295 112.9V112.898Z" fill="#FFB900"/>
<path d="M455.216 223.098H428.963C428.046 223.098 427.209 222.509 426.71 221.541L423.139 212.413H461.045L457.473 221.541C456.973 222.509 456.138 223.098 455.22 223.098H455.216Z" fill="#071546"/>
<path d="M461.592 176.124H422.587C419.69 176.124 417.34 178.444 417.34 181.307V211.159C417.34 214.022 419.69 216.343 422.587 216.343H461.592C464.49 216.343 466.839 214.022 466.839 211.159V181.307C466.839 178.444 464.49 176.124 461.592 176.124Z" fill="#3A76BB"/>
<path d="M445.29 186.9C445.773 186.9 446.164 187.287 446.164 187.764C446.164 188.228 445.793 188.607 445.328 188.627L445.29 188.628H417.404C416.921 188.628 416.53 188.241 416.53 187.764C416.53 187.3 416.901 186.921 417.366 186.901L417.404 186.9H445.29Z" fill="white"/>
<path d="M445.29 204.781C445.773 204.781 446.164 205.168 446.164 205.645C446.164 206.109 445.793 206.488 445.328 206.508L445.29 206.509H417.404C416.921 206.509 416.53 206.122 416.53 205.645C416.53 205.18 416.901 204.802 417.366 204.782L417.404 204.781H445.29Z" fill="white"/>
<path d="M466.679 195.84C467.161 195.84 467.553 196.227 467.553 196.703C467.553 197.168 467.182 197.547 466.717 197.566L466.679 197.567H438.793C438.31 197.567 437.918 197.18 437.918 196.703C437.918 196.239 438.29 195.86 438.755 195.841L438.793 195.84H466.679Z" fill="white"/>
<path d="M445.617 92.4115L426.121 121.75C425.072 123.34 426.201 125.296 428.09 125.296H436.824L426.086 145.334C425.286 146.955 427.35 148.458 428.616 147.177L457.818 118.193C459.307 116.685 458.25 114.108 456.141 114.108H442.936L448.46 93.6909C448.892 91.9483 446.599 90.9258 445.617 92.4115Z" fill="white"/>
<path d="M156.182 427.668H140.078L155.003 412.379V403.655L144.337 392.728L140.078 397.09L150.746 408.018L140.078 418.943V427.668L123.975 427.667C122.996 427.668 122.027 427.467 121.125 427.075C119.366 426.307 117.965 424.871 117.215 423.069C116.832 422.146 116.635 421.153 116.637 420.15V387.16C116.635 386.156 116.831 385.163 117.215 384.24C117.965 382.438 119.366 381.002 121.125 380.233C122.026 379.841 122.996 379.64 123.975 379.641H140.077L125.152 394.931V403.655L135.82 414.582L140.078 410.219L129.412 399.293L132.328 396.305L136.586 391.943L140.078 388.367L140.077 379.641H156.182C157.161 379.64 158.13 379.842 159.032 380.233C160.791 381.002 162.192 382.439 162.942 384.242C163.325 385.165 163.522 386.158 163.52 387.161V420.152C163.522 421.155 163.325 422.148 162.942 423.07C162.192 424.873 160.791 426.308 159.032 427.076C158.131 427.469 157.161 427.67 156.182 427.668Z" fill="#FFB900"/>
<path d="M140.077 379.641L125.152 394.931V403.655L135.82 414.582L140.078 410.219L129.412 399.293L132.328 396.305L136.586 391.943L140.078 388.367L140.077 379.641Z" fill="white"/>
<path d="M140.078 427.668L155.003 412.379V403.655L144.337 392.728L140.078 397.09L150.746 408.018L140.078 418.943V427.668Z" fill="white"/>
<g clip-path="url(#clip1_922_505)">
<path d="M207.016 442.997C207.985 441.122 210.666 441.122 211.635 442.997L217.807 454.934C218.054 455.412 218.444 455.802 218.923 456.049L230.859 462.221C232.734 463.19 232.734 465.871 230.859 466.84L218.923 473.012C218.444 473.259 218.054 473.649 217.807 474.128L211.635 486.064C210.666 487.939 207.985 487.939 207.016 486.064L200.844 474.128C200.597 473.649 200.207 473.259 199.729 473.012L187.792 466.84C185.917 465.871 185.917 463.19 187.792 462.221L199.729 456.049C200.207 455.802 200.597 455.412 200.844 454.934L207.016 442.997Z" fill="#D2DBE5"/>
</g>
<defs>
<clipPath id="clip0_922_505">
<rect width="181.816" height="166.951" fill="white" transform="translate(328.184 311.031)"/>
</clipPath>
<clipPath id="clip1_922_505">
<rect width="45.8796" height="45.8796" fill="white" transform="translate(186.386 441.591)"/>
</clipPath>
</defs>
</svg>
