<svg width="60" height="60" viewBox="0 0 60 60" fill="none" xmlns="http://www.w3.org/2000/svg">
<g id="ux-designers 2" clip-path="url(#clip0_922_347)">
<g id="Group 324">
<path id="Path 369" d="M60.0001 29.699C60.0001 35.5729 58.2407 41.3149 54.9443 46.1989C51.6478 51.0829 46.9625 54.8895 41.4807 57.1373C35.999 59.3852 29.967 59.9733 24.1476 58.8274C18.3283 57.6814 12.9828 54.8529 8.78724 50.6994C4.5917 46.5459 1.73449 41.254 0.576939 35.493C-0.58061 29.732 0.0134892 23.7605 2.2841 18.3337C4.55472 12.9069 8.39986 8.26855 13.3333 5.00519C18.2667 1.74182 24.0669 0 30.0003 0C37.9568 0 45.5873 3.12899 51.2134 8.69864C56.8394 14.2683 60.0001 21.8223 60.0001 29.699Z" fill="#FFBD00"/>
<path id="Path 370" d="M49.8623 51.064H9.83496C9.16913 51.0621 8.53115 50.7994 8.06033 50.3333C7.58952 49.8673 7.32417 49.2356 7.32227 48.5765V17.2848C7.32417 16.6256 7.58949 15.9939 8.06029 15.5278C8.53109 15.0616 9.1691 14.7989 9.83496 14.7969H49.8623C50.5282 14.7989 51.1662 15.0616 51.6371 15.5278C52.108 15.9939 52.3734 16.6256 52.3754 17.2848V48.5765C52.3734 49.2357 52.108 49.8673 51.6371 50.3334C51.1662 50.7995 50.5281 51.0621 49.8623 51.064Z" fill="white"/>
<path id="Path 371" d="M49.8624 50.4673H10.6908C10.3023 50.4908 9.91245 50.483 9.52523 50.4438C9.07908 50.3643 8.67506 50.1329 8.38315 49.7896C8.09124 49.4462 7.92985 49.0126 7.92689 48.5639C7.92407 48.4226 7.92689 48.2806 7.92689 48.1393V21.6985C7.92689 20.2292 7.89513 18.7542 7.92689 17.2877C7.95301 16.0658 8.95535 15.3938 10.0919 15.3938H47.9759C48.5426 15.3938 49.1093 15.3938 49.6759 15.3938C50.8041 15.397 51.7526 16.1219 51.7743 17.3036C51.8029 18.8648 51.7743 20.4289 51.7743 21.9902V48.238C51.7743 48.3502 51.7767 48.4628 51.7743 48.5754C51.7671 49.0749 51.5635 49.5519 51.2069 49.9054C50.8503 50.2588 50.3686 50.4608 49.864 50.4685C49.0896 50.4896 49.0868 51.6836 49.864 51.6621C50.2845 51.6529 50.6991 51.5615 51.0837 51.393C51.4683 51.2245 51.8154 50.9823 52.1051 50.6804C52.3947 50.3785 52.6212 50.0228 52.7713 49.6339C52.9215 49.245 52.9924 48.8305 52.98 48.4143C52.9824 47.7534 52.98 47.0929 52.98 46.432V18.7626C52.98 18.2752 52.9901 17.787 52.98 17.2996C52.9684 16.4736 52.6288 15.6853 52.0346 15.1053C51.4404 14.5252 50.6394 14.2001 49.805 14.2002C48.3203 14.1783 46.8341 14.2002 45.3498 14.2002H10.0754C9.3797 14.1678 8.69203 14.3588 8.11484 14.7448C7.53764 15.1307 7.10181 15.6909 6.87228 16.3419C6.72198 16.952 6.67135 17.582 6.72235 18.208V48.1393C6.72235 49.3278 7.05876 50.4187 8.10532 51.1345C8.79573 51.5457 9.59989 51.73 10.4026 51.6609H49.8653C50.0252 51.6609 50.1785 51.598 50.2916 51.4861C50.4046 51.3742 50.4681 51.2224 50.4681 51.0641C50.4681 50.9058 50.4046 50.754 50.2916 50.6421C50.1785 50.5302 50.0252 50.4673 49.8653 50.4673" fill="#071546"/>
<path id="Rectangle 44" d="M34.5565 49.4084H25.1411V56.7843H34.5565V49.4084Z" fill="white"/>
<path id="Path 372" d="M34.5569 56.1876H25.1414L25.7443 56.7844V49.4086L25.1414 50.0054H34.5569L33.954 49.4086V56.7844C33.954 56.9427 34.0175 57.0945 34.1306 57.2064C34.2436 57.3183 34.397 57.3812 34.5569 57.3812C34.7167 57.3812 34.8701 57.3183 34.9831 57.2064C35.0962 57.0945 35.1597 56.9427 35.1597 56.7844V49.4086C35.1574 49.251 35.0932 49.1005 34.9806 48.9891C34.8681 48.8776 34.716 48.814 34.5569 48.8118H25.1414C24.9823 48.814 24.8303 48.8776 24.7177 48.9891C24.6051 49.1005 24.5409 49.251 24.5386 49.4086V56.7844C24.5409 56.942 24.6051 57.0925 24.7177 57.2039C24.8303 57.3153 24.9823 57.3789 25.1414 57.3812H34.5569C34.7167 57.3812 34.8701 57.3183 34.9831 57.2064C35.0962 57.0945 35.1597 56.9427 35.1597 56.7844C35.1597 56.6261 35.0962 56.4743 34.9831 56.3624C34.8701 56.2505 34.7167 56.1876 34.5569 56.1876Z" fill="#071546"/>
<path id="Path 375" d="M7.32227 49.0043V47.7522H52.3758V49.0043C52.3758 49.5506 52.1566 50.0745 51.7664 50.4608C51.3762 50.8471 50.847 51.0641 50.2951 51.0641H9.40293C8.8511 51.0641 8.32185 50.8471 7.93165 50.4608C7.54145 50.0745 7.32227 49.5506 7.32227 49.0043Z" fill="white"/>
<path id="Path 376" d="M7.92525 49.0043V47.7522L7.32239 48.349H50.532C51.1208 48.3866 51.7115 48.3866 52.3004 48.349C52.3254 48.3474 52.3505 48.3474 52.3755 48.349L51.7727 47.7522C51.7727 48.6912 51.9575 49.886 50.8885 50.3475C50.6246 50.4449 50.3427 50.4856 50.0617 50.4669H10.5802C10.0637 50.5124 9.54363 50.4967 9.03088 50.4203C8.71563 50.3361 8.43689 50.1521 8.23718 49.8963C8.03747 49.6406 7.92779 49.3271 7.92486 49.0039C7.89994 48.2376 6.69382 48.2344 6.71914 49.0039C6.73185 49.705 7.01902 50.3739 7.52016 50.8695C8.02129 51.365 8.69722 51.6487 9.40546 51.6605C9.54814 51.6645 9.69162 51.6605 9.8343 51.6605H49.9287C50.0493 51.6605 50.1727 51.6637 50.2945 51.6605C51.0089 51.6477 51.6898 51.3584 52.1914 50.8547C52.693 50.3509 52.9754 49.6727 52.978 48.9653C52.9885 48.5615 52.978 48.156 52.978 47.7518C52.9757 47.5942 52.9115 47.4437 52.7989 47.3323C52.6863 47.2208 52.5343 47.1572 52.3752 47.155H12.8659C11.0484 47.155 9.21337 47.081 7.39716 47.155C7.37224 47.155 7.34692 47.155 7.322 47.155C7.16282 47.1572 7.01078 47.2208 6.89821 47.3323C6.78565 47.4437 6.72143 47.5942 6.71914 47.7518V49.0039C6.71914 49.1622 6.78265 49.314 6.89571 49.4259C7.00877 49.5378 7.16211 49.6007 7.322 49.6007C7.48189 49.6007 7.63523 49.5378 7.74829 49.4259C7.86135 49.314 7.92486 49.1622 7.92486 49.0039" fill="#071546"/>
<path id="Rectangle 45" d="M47.566 18.6809H11.4629V40.3528H47.566V18.6809Z" fill="white"/>
<path id="Path 377" d="M47.5658 39.7561H12.9325C12.4642 39.7214 11.994 39.7214 11.5258 39.7561C11.5052 39.7577 11.4845 39.7577 11.4639 39.7561L12.0668 40.3529V18.6811L11.4639 19.2779H46.0973C46.5655 19.3126 47.0357 19.3126 47.504 19.2779C47.5246 19.2763 47.5452 19.2763 47.5658 19.2779L46.963 18.6811V40.3529C46.963 40.5112 47.0265 40.663 47.1395 40.775C47.2526 40.8869 47.4059 40.9498 47.5658 40.9498C47.7257 40.9498 47.8791 40.8869 47.9921 40.775C48.1052 40.663 48.1687 40.5112 48.1687 40.3529V18.6811C48.1664 18.5235 48.1022 18.373 47.9896 18.2616C47.8771 18.1501 47.725 18.0865 47.5658 18.0843H15.9307C14.4677 18.0843 12.9863 18.0166 11.5246 18.0843C11.5041 18.0843 11.4844 18.0843 11.4627 18.0843C11.3035 18.0865 11.1515 18.1501 11.0389 18.2616C10.9264 18.373 10.8621 18.5235 10.8599 18.6811V40.3529C10.8621 40.5105 10.9264 40.661 11.0389 40.7725C11.1515 40.8839 11.3035 40.9475 11.4627 40.9498H43.0979C44.5608 40.9498 46.0422 41.0174 47.504 40.9498C47.5245 40.9498 47.5441 40.9498 47.5658 40.9498C47.7257 40.9498 47.8791 40.8869 47.9921 40.775C48.1052 40.663 48.1687 40.5112 48.1687 40.3529C48.1687 40.1947 48.1052 40.0429 47.9921 39.9309C47.8791 39.819 47.7257 39.7561 47.5658 39.7561Z" fill="#071546"/>
<path id="Path 378" d="M15.0847 21.2578C15.0847 21.4093 15.0393 21.5575 14.9543 21.6835C14.8692 21.8095 14.7483 21.9077 14.6069 21.9657C14.4654 22.0237 14.3098 22.0389 14.1596 22.0093C14.0095 21.9798 13.8716 21.9068 13.7633 21.7996C13.6551 21.6925 13.5814 21.5559 13.5515 21.4073C13.5216 21.2586 13.537 21.1045 13.5955 20.9645C13.6541 20.8245 13.7533 20.7048 13.8806 20.6206C14.0079 20.5364 14.1576 20.4915 14.3107 20.4915C14.516 20.4915 14.7129 20.5722 14.858 20.7159C15.0032 20.8596 15.0847 21.0545 15.0847 21.2578Z" fill="white"/>
<path id="Path 379" d="M14.4817 21.2577C14.4813 21.2931 14.4789 21.3284 14.4745 21.3636C14.4818 21.3106 14.489 21.2577 14.4958 21.2044C14.4857 21.2727 14.4671 21.3396 14.4403 21.4033C14.4608 21.3556 14.4805 21.3083 14.501 21.2605C14.4736 21.3217 14.439 21.3794 14.3977 21.4324L14.4918 21.313C14.4537 21.3595 14.4109 21.4019 14.364 21.4396L14.4845 21.3464C14.431 21.3872 14.3727 21.4216 14.3109 21.4487L14.4552 21.3886C14.3908 21.4151 14.3233 21.4336 14.2542 21.4435L14.415 21.4224C14.344 21.4312 14.2722 21.4312 14.2012 21.4224L14.362 21.4435C14.2929 21.4336 14.2254 21.4151 14.161 21.3886L14.3053 21.4487C14.2435 21.4216 14.1852 21.3873 14.1317 21.3464L14.2522 21.4396C14.2053 21.4019 14.1625 21.3595 14.1244 21.313L14.2185 21.4324C14.1773 21.3793 14.1425 21.3216 14.1148 21.2605L14.1759 21.4033C14.1491 21.3396 14.1305 21.2727 14.1204 21.2044C14.1272 21.2573 14.1345 21.3102 14.1417 21.3636C14.1329 21.2933 14.1329 21.2222 14.1417 21.1519C14.1345 21.2048 14.1272 21.2577 14.1204 21.311C14.1305 21.2427 14.1491 21.1759 14.1759 21.1121L14.1148 21.2549C14.1425 21.1939 14.1773 21.1362 14.2185 21.0831L14.1244 21.2024C14.1625 21.156 14.2053 21.1136 14.2522 21.0759L14.1317 21.169C14.1852 21.1282 14.2435 21.0939 14.3053 21.0667L14.161 21.1268C14.2254 21.1003 14.2929 21.0819 14.362 21.0719L14.2012 21.093C14.2722 21.0842 14.344 21.0842 14.415 21.093L14.2542 21.0719C14.3233 21.0819 14.3908 21.1003 14.4552 21.1268L14.3109 21.0667C14.3727 21.0939 14.431 21.1282 14.4845 21.169L14.364 21.0759C14.4109 21.1136 14.4537 21.156 14.4918 21.2024L14.3977 21.0831C14.439 21.1361 14.4736 21.1938 14.501 21.2549L14.4403 21.1121C14.4671 21.1759 14.4857 21.2427 14.4958 21.311C14.489 21.2581 14.4818 21.2052 14.4745 21.1519C14.4789 21.187 14.4813 21.2223 14.4817 21.2577C14.4841 21.4155 14.5472 21.5665 14.6582 21.6799C14.7425 21.7634 14.8499 21.8203 14.9669 21.8433C15.0839 21.8664 15.2051 21.8546 15.3153 21.8094C15.4255 21.7642 15.5197 21.6876 15.5859 21.5894C15.6522 21.4912 15.6875 21.3758 15.6874 21.2577C15.688 20.9899 15.6077 20.728 15.4568 20.5057C15.2827 20.2577 15.0351 20.0693 14.7482 19.9666C14.4927 19.8806 14.2172 19.8713 13.9564 19.9401C13.6957 20.0088 13.4613 20.1525 13.2828 20.353C13.1702 20.4851 13.0807 20.6349 13.018 20.7962C12.9721 20.9206 12.945 21.0511 12.9376 21.1833C12.9192 21.4524 12.9848 21.7206 13.1253 21.9516C13.2583 22.1766 13.4551 22.3579 13.6912 22.4732C13.8528 22.5486 14.0262 22.5961 14.204 22.6137C14.3396 22.6248 14.4762 22.616 14.6091 22.5874C14.7513 22.559 14.8873 22.5062 15.011 22.4315C15.1317 22.362 15.2403 22.2737 15.3326 22.1701C15.5566 21.9173 15.6827 21.594 15.6882 21.2577C15.6882 21.0994 15.6247 20.9476 15.5117 20.8357C15.3986 20.7238 15.2453 20.6609 15.0854 20.6609C14.9255 20.6609 14.7722 20.7238 14.6591 20.8357C14.5461 20.9476 14.4825 21.0994 14.4825 21.2577" fill="#071546"/>
<path id="Path 380" d="M18.4583 21.2578C18.4583 21.4093 18.4129 21.5575 18.3279 21.6835C18.2428 21.8095 18.1219 21.9077 17.9805 21.9657C17.839 22.0237 17.6834 22.0389 17.5332 22.0093C17.3831 21.9798 17.2451 21.9068 17.1369 21.7996C17.0286 21.6925 16.9549 21.5559 16.925 21.4073C16.8952 21.2586 16.9105 21.1045 16.9691 20.9645C17.0277 20.8245 17.1269 20.7048 17.2542 20.6206C17.3815 20.5364 17.5311 20.4915 17.6842 20.4915C17.7859 20.4915 17.8866 20.5113 17.9805 20.5498C18.0744 20.5883 18.1597 20.6447 18.2316 20.7159C18.3035 20.7871 18.3605 20.8715 18.3994 20.9645C18.4383 21.0575 18.4583 21.1571 18.4583 21.2578Z" fill="white"/>
<path id="Path 381" d="M17.8558 21.2577C17.8553 21.2931 17.8529 21.3284 17.8485 21.3636L17.8702 21.2044C17.8598 21.2727 17.841 21.3395 17.8143 21.4033C17.8348 21.3556 17.8545 21.3083 17.875 21.2605C17.8476 21.3217 17.813 21.3794 17.7718 21.4324L17.8658 21.313C17.8277 21.3595 17.7849 21.4019 17.738 21.4395L17.8585 21.3464C17.805 21.3872 17.7467 21.4216 17.6849 21.4487L17.8292 21.3886C17.7648 21.4151 17.6973 21.4336 17.6283 21.4435L17.789 21.4224C17.718 21.4312 17.6462 21.4312 17.5752 21.4224L17.736 21.4435C17.667 21.4335 17.5995 21.4151 17.535 21.3886L17.6793 21.4487C17.6175 21.4216 17.5593 21.3872 17.5057 21.3464L17.6262 21.4395C17.5794 21.4018 17.5365 21.3595 17.4984 21.313L17.5925 21.4324C17.5513 21.3794 17.5166 21.3217 17.4892 21.2605C17.5093 21.3083 17.5294 21.3556 17.5499 21.4033C17.5231 21.3396 17.5045 21.2727 17.4944 21.2044C17.5014 21.2575 17.5085 21.3105 17.5157 21.3636C17.5068 21.2933 17.5068 21.2222 17.5157 21.1519C17.5085 21.2049 17.5014 21.258 17.4944 21.311C17.5045 21.2427 17.5231 21.1759 17.5499 21.1121C17.5294 21.1598 17.5097 21.2072 17.4892 21.2549C17.5166 21.1938 17.5513 21.1361 17.5925 21.0831L17.4984 21.2024C17.5365 21.156 17.5794 21.1136 17.6262 21.0759L17.5057 21.169C17.5593 21.1282 17.6175 21.0939 17.6793 21.0667L17.535 21.1268C17.5995 21.1003 17.667 21.0819 17.736 21.0719L17.5752 21.093C17.6462 21.0842 17.718 21.0842 17.789 21.093L17.6283 21.0719C17.6973 21.0819 17.7648 21.1003 17.8292 21.1268L17.6849 21.0667C17.7467 21.0939 17.805 21.1282 17.8585 21.169L17.738 21.0759C17.7849 21.1136 17.8277 21.156 17.8658 21.2024L17.7718 21.0831C17.813 21.1361 17.8476 21.1938 17.875 21.2549C17.8549 21.2072 17.8348 21.1598 17.8143 21.1121C17.841 21.1759 17.8598 21.2427 17.8702 21.311L17.8485 21.1519C17.8529 21.187 17.8553 21.2223 17.8558 21.2577C17.8581 21.4155 17.9212 21.5665 18.0322 21.6799C18.1165 21.7634 18.2239 21.8203 18.3409 21.8433C18.4579 21.8664 18.5792 21.8546 18.6893 21.8094C18.7995 21.7642 18.8937 21.6876 18.96 21.5894C19.0262 21.4912 19.0615 21.3758 19.0615 21.2577C19.062 20.99 18.9818 20.7281 18.8312 20.5057C18.6569 20.2578 18.4092 20.0694 18.1222 19.9666C17.8667 19.8806 17.5912 19.8713 17.3304 19.9401C17.0696 20.0088 16.8353 20.1525 16.6569 20.353C16.5443 20.4851 16.4547 20.6349 16.392 20.7962C16.3461 20.9206 16.319 21.0511 16.3116 21.1833C16.2933 21.4524 16.3588 21.7206 16.4993 21.9516C16.6324 22.1765 16.8291 22.3578 17.0652 22.4732C17.2268 22.5487 17.4002 22.5962 17.578 22.6137C17.7136 22.6248 17.8502 22.616 17.9832 22.5874C18.1253 22.559 18.2613 22.5062 18.3851 22.4315C18.5057 22.362 18.6143 22.2737 18.7066 22.17C18.9306 21.9173 19.0566 21.5939 19.0623 21.2577C19.0623 21.0994 18.9987 20.9476 18.8857 20.8357C18.7726 20.7238 18.6193 20.6609 18.4594 20.6609C18.2995 20.6609 18.1462 20.7238 18.0331 20.8357C17.92 20.9476 17.8565 21.0994 17.8565 21.2577" fill="#071546"/>
<path id="Path 382" d="M21.8318 21.2578C21.8318 21.4093 21.7864 21.5575 21.7014 21.6835C21.6163 21.8095 21.4954 21.9077 21.354 21.9657C21.2126 22.0237 21.0569 22.0389 20.9068 22.0093C20.7566 21.9798 20.6187 21.9068 20.5104 21.7996C20.4022 21.6925 20.3284 21.5559 20.2986 21.4073C20.2687 21.2586 20.284 21.1045 20.3426 20.9645C20.4012 20.8245 20.5004 20.7048 20.6277 20.6206C20.755 20.5364 20.9047 20.4915 21.0578 20.4915C21.1594 20.4915 21.2601 20.5113 21.354 20.5498C21.4479 20.5883 21.5332 20.6447 21.6051 20.7159C21.677 20.7871 21.734 20.8715 21.7729 20.9645C21.8118 21.0575 21.8318 21.1571 21.8318 21.2578Z" fill="white"/>
<path id="Path 383" d="M21.2292 21.2577C21.2286 21.2931 21.2262 21.3284 21.222 21.3636C21.2292 21.3106 21.2365 21.2577 21.2429 21.2044C21.2329 21.2727 21.2145 21.3395 21.1878 21.4033C21.2083 21.3556 21.228 21.3083 21.2485 21.2605C21.221 21.3217 21.1861 21.3794 21.1448 21.4324L21.2389 21.313C21.201 21.3597 21.1582 21.4021 21.1111 21.4395L21.2317 21.3464C21.1782 21.3873 21.1199 21.4217 21.058 21.4487L21.2023 21.3886C21.1385 21.415 21.0717 21.4334 21.0033 21.4435L21.1641 21.4224C21.0931 21.4312 21.0213 21.4312 20.9503 21.4224L21.1111 21.4435C21.0427 21.4334 20.9759 21.415 20.9121 21.3886L21.0564 21.4487C20.9946 21.4216 20.9363 21.3872 20.8828 21.3464L21.0033 21.4395C20.9563 21.402 20.9135 21.3596 20.8755 21.313L20.9696 21.4324C20.9282 21.3794 20.8935 21.3217 20.8659 21.2605C20.886 21.3083 20.9061 21.3556 20.927 21.4033C20.9002 21.3396 20.8816 21.2727 20.8715 21.2044C20.878 21.2573 20.8856 21.3102 20.8924 21.3636C20.884 21.2932 20.884 21.2222 20.8924 21.1519C20.8856 21.2048 20.878 21.2577 20.8715 21.311C20.8816 21.2427 20.9002 21.1759 20.927 21.1121L20.8659 21.2549C20.8935 21.1938 20.9282 21.1361 20.9696 21.0831L20.8755 21.2024C20.9135 21.1559 20.9563 21.1135 21.0033 21.0759L20.8828 21.169C20.9363 21.1282 20.9946 21.0939 21.0564 21.0667L20.9121 21.1268C20.9759 21.1005 21.0427 21.082 21.1111 21.0719L20.9503 21.093C21.0213 21.0842 21.0931 21.0842 21.1641 21.093L21.0033 21.0719C21.0717 21.082 21.1385 21.1005 21.2023 21.1268L21.058 21.0667C21.1199 21.0938 21.1782 21.1281 21.2317 21.169L21.1111 21.0759C21.1582 21.1134 21.201 21.1558 21.2389 21.2024L21.1448 21.0831C21.1861 21.1361 21.221 21.1938 21.2485 21.2549L21.1878 21.1121C21.2145 21.1759 21.2329 21.2427 21.2429 21.311C21.2365 21.2581 21.2292 21.2052 21.222 21.1519C21.2262 21.187 21.2286 21.2223 21.2292 21.2577C21.2314 21.4156 21.2946 21.5666 21.4057 21.6799C21.49 21.7634 21.5974 21.8203 21.7144 21.8433C21.8314 21.8664 21.9526 21.8546 22.0628 21.8094C22.173 21.7642 22.2672 21.6876 22.3334 21.5894C22.3996 21.4912 22.435 21.3758 22.4349 21.2577C22.4354 20.9898 22.3549 20.728 22.2038 20.5057C22.0299 20.2578 21.7824 20.0694 21.4957 19.9666C21.2402 19.8806 20.9647 19.8713 20.7039 19.9401C20.4431 20.0088 20.2088 20.1525 20.0304 20.353C19.9178 20.4851 19.8281 20.6349 19.7651 20.7962C19.7194 20.9207 19.6923 21.0511 19.6847 21.1833C19.6662 21.4524 19.7315 21.7205 19.872 21.9516C20.0053 22.1765 20.2021 22.3578 20.4383 22.4732C20.5999 22.5487 20.7733 22.5962 20.9511 22.6137C21.0867 22.6248 21.2232 22.616 21.3562 22.5874C21.4983 22.559 21.6344 22.5062 21.7581 22.4315C21.8787 22.3619 21.9873 22.2737 22.0797 22.17C22.3037 21.9173 22.4298 21.594 22.4354 21.2577C22.4354 21.0994 22.3718 20.9476 22.2588 20.8357C22.1457 20.7238 21.9924 20.6609 21.8325 20.6609C21.6726 20.6609 21.5193 20.7238 21.4062 20.8357C21.2932 20.9476 21.2296 21.0994 21.2296 21.2577" fill="#071546"/>
<path id="Path 384" d="M11.4627 24.5198H43.0979C44.5608 24.5198 46.0422 24.5875 47.504 24.5198C47.5245 24.5198 47.5441 24.5198 47.5658 24.5198C47.7257 24.5198 47.8791 24.457 47.9921 24.345C48.1052 24.2331 48.1687 24.0813 48.1687 23.923C48.1687 23.7647 48.1052 23.6129 47.9921 23.501C47.8791 23.3891 47.7257 23.3262 47.5658 23.3262H15.9307C14.4677 23.3262 12.9863 23.2586 11.5246 23.3262C11.5041 23.3262 11.4844 23.3262 11.4627 23.3262C11.3028 23.3262 11.1495 23.3891 11.0364 23.501C10.9234 23.6129 10.8599 23.7647 10.8599 23.923C10.8599 24.0813 10.9234 24.2331 11.0364 24.345C11.1495 24.457 11.3028 24.5198 11.4627 24.5198Z" fill="#071546"/>
<path id="Path 385" fill-rule="evenodd" clip-rule="evenodd" d="M34.8034 34.2905H24.2257C23.9805 34.2905 23.7454 34.1941 23.572 34.0225C23.3987 33.8509 23.3013 33.6181 23.3013 33.3754V30.2943C23.3013 30.0516 23.3987 29.8188 23.572 29.6472C23.7454 29.4756 23.9805 29.3792 24.2257 29.3792H34.8034C35.0486 29.3792 35.2837 29.4756 35.457 29.6472C35.6304 29.8188 35.7278 30.0516 35.7278 30.2943V33.3746C35.7278 33.6173 35.6304 33.8501 35.457 34.0217C35.2837 34.1933 35.0486 34.2897 34.8034 34.2897" fill="white"/>
<path id="Path 386" d="M34.8033 33.6935H25.3513C25.0253 33.6935 24.6978 33.7039 24.3718 33.6935C24.0837 33.6844 23.9189 33.5961 23.9028 33.277C23.8751 32.7175 23.9028 32.1494 23.9028 31.5892C23.8681 31.1582 23.8681 30.7251 23.9028 30.2941C23.9961 29.749 25.3067 29.9758 25.6937 29.9758H34.569C34.8728 29.9758 35.0914 30.012 35.1256 30.3737C35.1835 30.9943 35.1256 31.6469 35.1256 32.2707C35.1256 32.597 35.3161 33.6557 34.8041 33.6931C34.0349 33.7488 34.0288 34.9433 34.8041 34.8868C35.0182 34.8781 35.2282 34.8268 35.4219 34.7361C35.6155 34.6454 35.7887 34.517 35.9312 34.3586C36.0737 34.2003 36.1826 34.0152 36.2513 33.8143C36.32 33.6134 36.3472 33.4009 36.3313 33.1894C36.339 32.5301 36.3313 31.8701 36.3313 31.2108C36.3313 30.643 36.4141 29.9993 36.1002 29.4936C35.9364 29.2539 35.7112 29.0616 35.4477 28.9363C35.1842 28.811 34.8917 28.7573 34.6003 28.7806H26.9083C26.0309 28.7806 25.1471 28.7491 24.2701 28.7806C23.8594 28.779 23.4646 28.9371 23.1704 29.2208C22.8762 29.5045 22.7063 29.8912 22.6971 30.2977C22.6722 30.8233 22.6971 31.3564 22.6971 31.8828C22.6971 32.3778 22.673 32.8775 22.6971 33.374C22.7076 33.7823 22.8803 34.17 23.1778 34.4531C23.4752 34.7361 23.8733 34.8917 24.2858 34.886C25.1877 34.9134 26.0944 34.886 26.9975 34.886H34.8033C34.9632 34.886 35.1165 34.8231 35.2296 34.7112C35.3426 34.5992 35.4061 34.4474 35.4061 34.2892C35.4061 34.1309 35.3426 33.9791 35.2296 33.8671C35.1165 33.7552 34.9632 33.6923 34.8033 33.6923" fill="#071546"/>
<path id="Path 387" fill-rule="evenodd" clip-rule="evenodd" d="M37.9981 44.823L35.1237 40.8637C35.0904 40.8182 35.0666 40.7666 35.0535 40.7119C35.0405 40.6572 35.0385 40.6005 35.0476 40.5451C35.0568 40.4896 35.0769 40.4365 35.1069 40.3888C35.1368 40.341 35.176 40.2996 35.2221 40.2669L36.3985 39.4314C36.4445 39.3984 36.4966 39.3748 36.5519 39.3618C36.6071 39.3489 36.6644 39.3469 36.7205 39.3559C36.7765 39.365 36.8302 39.3849 36.8784 39.4146C36.9266 39.4443 36.9684 39.4831 37.0014 39.5289L39.8758 43.4881C39.9091 43.5336 39.933 43.5852 39.9461 43.6399C39.9592 43.6946 39.9612 43.7513 39.952 43.8068C39.9429 43.8623 39.9228 43.9154 39.8928 43.9632C39.8628 44.0109 39.8235 44.0523 39.7773 44.0849L38.601 44.9205C38.555 44.9534 38.5029 44.977 38.4476 44.9899C38.3924 45.0029 38.3351 45.0048 38.2791 44.9958C38.223 44.9867 38.1694 44.9668 38.1212 44.9371C38.073 44.9075 38.0311 44.8687 37.9981 44.823Z" fill="white"/>
<path id="Path 388" d="M38.5188 44.5224C38.0023 43.811 37.4857 43.0994 36.9691 42.3878L35.9688 41.0095C35.8881 40.8765 35.7964 40.7503 35.6947 40.6323C35.6801 40.609 35.664 40.5867 35.6464 40.5655C35.6187 40.5738 35.669 40.591 35.6376 40.6693C35.6272 40.6956 35.4848 40.8177 35.5596 40.7608C35.7606 40.6073 35.9744 40.466 36.181 40.3188C36.3653 40.2113 36.5394 40.0874 36.701 39.9488C36.7151 40.0116 36.4812 39.825 36.4892 39.8437C36.5114 39.8821 36.5375 39.9181 36.5672 39.9512L36.8698 40.3681L38.9404 43.2205L39.2833 43.6928C39.2901 43.7023 39.3391 43.7847 39.3496 43.7839C39.2821 43.7879 39.5277 43.5245 39.4388 43.5921C39.2017 43.7724 38.9521 43.9383 38.7093 44.1094C38.5885 44.1809 38.4739 44.2625 38.3669 44.3533C38.3597 44.3604 38.3002 44.3907 38.3006 44.4002C38.297 44.3401 38.5795 44.5777 38.4248 44.4002C38.311 44.2896 38.1578 44.2277 37.9984 44.2277C37.8389 44.2277 37.6858 44.2896 37.572 44.4002C37.4618 44.5137 37.4003 44.665 37.4003 44.8224C37.4003 44.9798 37.4618 45.131 37.572 45.2445C37.746 45.4371 37.9866 45.5583 38.2463 45.5841C38.5061 45.61 38.7661 45.5386 38.9754 45.3842C39.2362 45.2055 39.4911 45.0173 39.7491 44.8339C40.076 44.6654 40.3391 44.3969 40.4994 44.0684C40.5519 43.9077 40.5647 43.7368 40.5368 43.5702C40.5088 43.4035 40.4408 43.246 40.3387 43.1107C39.6526 42.1415 38.9428 41.1882 38.2451 40.2273C38.006 39.8975 37.7705 39.564 37.5265 39.2374C37.3765 39.0097 37.1427 38.8489 36.8749 38.7889C36.607 38.729 36.3262 38.7747 36.0918 38.9163C35.8908 39.0424 35.6991 39.1948 35.505 39.3341C35.3108 39.4733 35.1103 39.6102 34.9166 39.7526C34.6874 39.9041 34.5274 40.1385 34.4708 40.4054C34.4141 40.6724 34.4654 40.9506 34.6135 41.1806C34.8406 41.5327 35.1103 41.8646 35.3566 42.2039L37.4763 45.1236C37.56 45.2569 37.6922 45.3535 37.8456 45.3933C37.999 45.4331 38.162 45.4132 38.301 45.3376C38.4381 45.2568 38.5376 45.126 38.578 44.9732C38.6185 44.8205 38.5966 44.6581 38.5172 44.5212" fill="#071546"/>
<path id="Path 389" d="M39.6966 38.8363L33.914 42.9503C33.8191 43.0178 33.7091 43.0614 33.5933 43.0775C33.4776 43.0935 33.3598 43.0814 33.2498 43.0422C33.1399 43.003 33.0412 42.938 32.9623 42.8527C32.8835 42.7673 32.8268 42.6643 32.7971 42.5524L30.2273 32.9728C30.1898 32.833 30.1961 32.6852 30.2453 32.549C30.2946 32.4128 30.3845 32.2947 30.5032 32.2102C30.6219 32.1258 30.7637 32.0791 30.9098 32.0763C31.0559 32.0735 31.1994 32.1147 31.3213 32.1946L39.6733 37.6602C39.7707 37.7239 39.851 37.8101 39.9073 37.9113C39.9636 38.0125 39.9942 38.1258 39.9965 38.2414C39.9988 38.3569 39.9727 38.4713 39.9205 38.5747C39.8682 38.678 39.7914 38.7672 39.6966 38.8347" fill="white"/>
<path id="Path 390" d="M39.392 38.3206L34.3517 41.9066C34.1245 42.0933 33.8844 42.2641 33.6332 42.4179C33.4037 42.5373 33.384 42.4091 33.3313 42.219C33.093 41.3651 32.872 40.5081 32.6425 39.6503L30.8713 33.0483C30.8259 32.8788 30.7246 32.6198 31.0164 32.7093C31.1764 32.7879 31.3259 32.8857 31.4617 33.0006L34.1179 34.7385L37.7712 37.1293L39.0171 37.9458C39.2474 38.0962 39.5395 38.1813 39.2683 38.4121C38.6771 38.911 39.5335 39.7521 40.1211 39.256C40.2793 39.1206 40.4031 38.9504 40.4829 38.7591C40.5627 38.5678 40.5961 38.3606 40.5805 38.1542C40.5649 37.9478 40.5006 37.7479 40.3929 37.5705C40.2852 37.3931 40.1371 37.2431 39.9604 37.1325C39.7333 36.9734 39.4954 36.8285 39.2635 36.6766L35.9678 34.5209L32.5476 32.2824C31.7687 31.7731 30.8166 30.9969 29.9525 31.8985C29.2805 32.5995 29.805 33.7287 30.0184 34.5213C30.3817 35.8772 30.7455 37.2332 31.1096 38.5891C31.4239 39.761 31.7381 40.9326 32.0521 42.104C32.1063 42.3029 32.1505 42.5122 32.2152 42.7103C32.274 42.9099 32.3793 43.093 32.5227 43.2449C32.666 43.3968 32.8434 43.5132 33.0405 43.5849C33.2376 43.6565 33.449 43.6813 33.6575 43.6572C33.8661 43.6332 34.066 43.561 34.2413 43.4464C35.2729 42.8026 36.2407 42.024 37.2306 41.3198L40.0001 39.3491C40.6247 38.9051 40.0234 37.869 39.3916 38.3186" fill="#071546"/>
<path id="Path 373" d="M20.4971 58.5709V56.9138C20.4971 56.6943 20.5851 56.4838 20.7419 56.3286C20.8987 56.1734 21.1113 56.0862 21.333 56.0862H39.1868C39.4085 56.0863 39.6211 56.1735 39.7778 56.3287C39.9346 56.4839 40.0227 56.6943 40.0228 56.9138V58.5709C40.0228 58.7904 39.9347 59.0009 39.778 59.1561C39.6212 59.3113 39.4085 59.3985 39.1868 59.3985H21.333C21.1113 59.3985 20.8987 59.3113 20.7419 59.1561C20.5851 59.0009 20.4971 58.7904 20.4971 58.5709Z" fill="white"/>
<path id="Path 374" d="M20.9015 58.5708V57.4966C20.9015 57.2213 20.7929 56.7653 21.135 56.6825C21.3361 56.661 21.539 56.661 21.7402 56.6825H38.2586C38.4991 56.658 38.7414 56.658 38.982 56.6825C39.2842 56.7514 39.2231 57.0243 39.2231 57.2722C39.2487 57.6829 39.2487 58.0948 39.2231 58.5056C39.1769 58.8637 38.9132 58.8024 38.6307 58.8024H24.097C23.1377 58.8537 22.1763 58.8537 21.2169 58.8024C21.065 58.7857 20.9195 58.7734 20.903 58.5716C20.8412 57.8113 19.6346 57.8045 19.6973 58.5716C19.7067 58.7716 19.7564 58.9677 19.8436 59.1484C19.9308 59.329 20.0537 59.4905 20.2051 59.6233C20.3564 59.7561 20.5331 59.8575 20.7247 59.9215C20.9163 59.9855 21.119 60.0109 21.3207 59.996C21.7571 60 22.194 59.996 22.6305 59.996H38.3646C38.6452 60.0096 38.9264 60.0024 39.2058 59.9746C40.5835 59.7669 40.4288 58.3393 40.4288 57.3152C40.4613 57.0644 40.4406 56.8097 40.368 56.5673C40.2954 56.3249 40.1725 56.1002 40.0072 55.9075C39.7199 55.638 39.3387 55.4886 38.943 55.4901C38.6074 55.4782 38.269 55.4901 37.9334 55.4901H22.1176C21.8001 55.4901 21.4798 55.4778 21.1623 55.4901C20.9352 55.4906 20.7113 55.5427 20.5076 55.6422C20.304 55.7417 20.1261 55.8861 19.9875 56.0642C19.7351 56.4808 19.6326 56.9697 19.6969 57.4512L19.6973 58.5716C19.6973 58.7299 19.7605 58.8817 19.8735 58.9937C19.9866 59.1056 20.1399 59.1685 20.2998 59.1685C20.4597 59.1685 20.613 59.1056 20.7261 58.9937C20.8391 58.8817 20.903 58.7299 20.903 58.5716" fill="#071546"/>
</g>
</g>
<defs>
<clipPath id="clip0_922_347">
<rect width="60" height="60" fill="white"/>
</clipPath>
</defs>
</svg>
