<svg width="439" height="369" viewBox="0 0 439 369" fill="none" xmlns="http://www.w3.org/2000/svg">
<path d="M398.003 174.506C398.091 182.317 403.019 189.601 410.499 192.234C417.978 194.867 426.426 192.585 431.53 186.53C436.633 180.474 437.249 171.435 433.202 164.677C429.154 157.92 420.97 154.322 413.227 155.901C404.427 157.832 398.003 165.643 398.003 174.506C398.003 176.174 395.363 176.174 395.363 174.506C395.451 165.555 401.083 157.393 409.531 154.322C417.978 151.162 427.834 153.883 433.554 160.816C439.273 167.837 440.153 177.841 435.401 185.652C430.738 193.375 421.498 197.412 412.611 195.657C402.579 193.726 395.363 184.599 395.275 174.594C395.363 172.839 398.003 172.839 398.003 174.506Z" fill="white" fill-opacity="0.08"/>
<path d="M346.966 174.506C347.054 182.317 351.982 189.601 359.462 192.234C366.941 194.867 375.389 192.585 380.493 186.53C385.596 180.474 386.212 171.435 382.164 164.677C378.117 157.92 369.933 154.322 362.189 155.901C353.39 157.832 347.054 165.643 346.966 174.506C346.966 176.174 344.326 176.174 344.326 174.506C344.414 165.555 350.046 157.393 358.494 154.322C366.941 151.162 376.797 153.883 382.516 160.816C388.236 167.837 389.116 177.841 384.364 185.652C379.701 193.375 370.461 197.412 361.573 195.657C351.542 193.726 344.326 184.599 344.238 174.594C344.326 172.839 346.966 172.839 346.966 174.506Z" fill="white" fill-opacity="0.08"/>
<path d="M295.928 174.506C296.016 182.317 300.944 189.601 308.423 192.234C315.903 194.867 324.351 192.585 329.454 186.53C334.558 180.474 335.174 171.435 331.126 164.677C327.079 157.92 318.895 154.322 311.151 155.901C302.352 157.832 296.016 165.643 295.928 174.506C295.928 176.174 293.288 176.174 293.288 174.506C293.376 165.555 299.008 157.393 307.456 154.322C315.903 151.162 325.759 153.883 331.478 160.816C337.198 167.837 338.078 177.841 333.326 185.652C328.662 193.375 319.423 197.412 310.535 195.657C300.504 193.726 293.288 184.599 293.2 174.594C293.288 172.839 295.928 172.839 295.928 174.506Z" fill="white" fill-opacity="0.08"/>
<path d="M244.891 174.506C244.979 182.317 249.906 189.601 257.386 192.234C264.866 194.867 273.313 192.585 278.417 186.53C283.521 180.474 284.137 171.435 280.089 164.677C276.041 157.92 267.857 154.322 260.114 155.901C251.314 157.832 244.979 165.643 244.891 174.506C244.891 176.174 242.251 176.174 242.251 174.506C242.339 165.555 247.97 157.393 256.418 154.322C264.866 151.162 274.721 153.883 280.441 160.816C286.16 167.837 287.041 177.841 282.289 185.652C277.625 193.375 268.385 197.412 259.498 195.657C249.466 193.726 242.251 184.599 242.163 174.594C242.251 172.839 244.891 172.839 244.891 174.506Z" fill="white" fill-opacity="0.08"/>
<path d="M346.966 223.652C347.054 231.463 351.982 238.747 359.462 241.379C366.941 244.012 375.389 241.731 380.493 235.675C385.596 229.62 386.212 220.58 382.164 213.823C378.117 207.065 369.933 203.467 362.189 205.047C353.39 206.978 347.054 214.788 346.966 223.652C346.966 225.319 344.326 225.319 344.326 223.652C344.414 214.7 350.046 206.539 358.494 203.467C366.941 200.308 376.797 203.028 382.516 209.961C388.236 216.982 389.116 226.987 384.364 234.797C379.701 242.52 370.461 246.557 361.573 244.802C351.542 242.871 344.326 233.744 344.238 223.74C344.326 221.985 346.966 221.985 346.966 223.652Z" fill="white" fill-opacity="0.08"/>
<path d="M295.928 223.652C296.016 231.463 300.944 238.747 308.423 241.379C315.903 244.012 324.351 241.731 329.454 235.675C334.558 229.62 335.174 220.58 331.126 213.823C327.079 207.065 318.895 203.467 311.151 205.047C302.352 206.978 296.016 214.788 295.928 223.652C295.928 225.319 293.288 225.319 293.288 223.652C293.376 214.7 299.008 206.539 307.456 203.467C315.903 200.308 325.759 203.028 331.478 209.961C337.198 216.982 338.078 226.987 333.326 234.797C328.662 242.52 319.423 246.557 310.535 244.802C300.504 242.871 293.288 233.744 293.2 223.74C293.288 221.985 295.928 221.985 295.928 223.652Z" fill="white" fill-opacity="0.08"/>
<path d="M244.891 223.652C244.979 231.463 249.906 238.747 257.386 241.379C264.866 244.012 273.313 241.731 278.417 235.675C283.521 229.62 284.137 220.58 280.089 213.823C276.041 207.065 267.857 203.467 260.114 205.047C251.314 206.978 244.979 214.788 244.891 223.652C244.891 225.319 242.251 225.319 242.251 223.652C242.339 214.7 247.97 206.539 256.418 203.467C264.866 200.308 274.721 203.028 280.441 209.961C286.16 216.982 287.041 226.987 282.289 234.797C277.625 242.52 268.385 246.557 259.498 244.802C249.466 242.871 242.251 233.744 242.163 223.74C242.251 221.985 244.891 221.985 244.891 223.652Z" fill="white" fill-opacity="0.08"/>
<path d="M398.003 223.652C398.091 231.463 403.019 238.747 410.499 241.379C417.978 244.012 426.426 241.731 431.53 235.675C436.633 229.62 437.249 220.58 433.202 213.823C429.154 207.065 420.97 203.467 413.227 205.047C404.427 206.978 398.003 214.788 398.003 223.652C398.003 225.319 395.363 225.319 395.363 223.652C395.451 214.7 401.083 206.539 409.531 203.467C417.978 200.308 427.834 203.028 433.554 209.961C439.273 216.982 440.153 226.987 435.401 234.797C430.738 242.52 421.498 246.557 412.611 244.802C402.579 242.871 395.363 233.744 395.275 223.74C395.363 221.985 398.003 221.985 398.003 223.652Z" fill="white" fill-opacity="0.08"/>
<path d="M398.003 272.797C398.091 280.608 403.019 287.892 410.499 290.525C417.978 293.157 426.426 290.876 431.53 284.82C436.633 278.765 437.249 269.725 433.202 262.968C429.154 256.21 420.97 252.612 413.227 254.192C404.427 256.035 398.003 263.845 398.003 272.797C398.003 274.464 395.363 274.464 395.363 272.797C395.451 263.845 401.083 255.684 409.531 252.612C417.978 249.453 427.834 252.173 433.554 259.106C439.273 266.127 440.153 276.132 435.401 283.943C430.738 291.665 421.498 295.702 412.611 293.947C402.579 292.016 395.363 282.889 395.275 272.885C395.363 271.13 398.003 271.13 398.003 272.797Z" fill="white" fill-opacity="0.08"/>
<path d="M346.966 272.797C347.054 280.608 351.982 287.892 359.462 290.525C366.941 293.157 375.389 290.876 380.493 284.82C385.596 278.765 386.212 269.725 382.164 262.968C378.117 256.21 369.933 252.612 362.189 254.192C353.39 256.035 347.054 263.845 346.966 272.797C346.966 274.464 344.326 274.464 344.326 272.797C344.414 263.845 350.046 255.684 358.494 252.612C366.941 249.453 376.797 252.173 382.516 259.106C388.236 266.127 389.116 276.132 384.364 283.943C379.701 291.665 370.461 295.702 361.573 293.947C351.542 292.016 344.326 282.889 344.238 272.885C344.326 271.13 346.966 271.13 346.966 272.797Z" fill="white" fill-opacity="0.08"/>
<path d="M295.928 272.797C296.016 280.608 300.944 287.892 308.423 290.525C315.903 293.157 324.351 290.876 329.454 284.82C334.558 278.765 335.174 269.725 331.126 262.968C327.079 256.21 318.895 252.612 311.151 254.192C302.352 256.035 296.016 263.845 295.928 272.797C295.928 274.464 293.288 274.464 293.288 272.797C293.376 263.845 299.008 255.684 307.456 252.612C315.903 249.453 325.759 252.173 331.478 259.106C337.198 266.127 338.078 276.132 333.326 283.943C328.662 291.665 319.423 295.702 310.535 293.947C300.504 292.016 293.288 282.889 293.2 272.885C293.288 271.13 295.928 271.13 295.928 272.797Z" fill="white" fill-opacity="0.08"/>
<path d="M244.891 272.797C244.979 280.608 249.906 287.892 257.386 290.525C264.866 293.157 273.313 290.876 278.417 284.82C283.521 278.765 284.137 269.725 280.089 262.968C276.041 256.21 267.857 252.612 260.114 254.192C251.314 256.035 244.979 263.845 244.891 272.797C244.891 274.464 242.251 274.464 242.251 272.797C242.339 263.845 247.97 255.684 256.418 252.612C264.866 249.453 274.721 252.173 280.441 259.106C286.16 266.127 287.041 276.132 282.289 283.943C277.625 291.665 268.385 295.702 259.498 293.947C249.466 292.016 242.251 282.889 242.163 272.885C242.251 271.13 244.891 271.13 244.891 272.797Z" fill="white" fill-opacity="0.08"/>
<path d="M346.966 125.448C347.054 133.259 351.982 140.543 359.462 143.176C366.941 145.808 375.389 143.527 380.493 137.471C385.596 131.416 386.212 122.377 382.164 115.619C378.117 108.862 369.933 105.263 362.189 106.843C353.39 108.686 347.054 116.497 346.966 125.448C346.966 127.116 344.326 127.116 344.326 125.448C344.414 116.497 350.046 108.335 358.494 105.263C366.941 102.104 376.797 104.825 382.516 111.758C388.236 118.778 389.116 128.783 384.364 136.594C379.701 144.317 370.461 148.354 361.573 146.598C351.542 144.668 344.326 135.541 344.238 125.536C344.326 123.693 346.966 123.693 346.966 125.448Z" fill="white" fill-opacity="0.08"/>
<path d="M295.928 125.448C296.016 133.259 300.944 140.543 308.423 143.176C315.903 145.808 324.351 143.527 329.454 137.471C334.558 131.416 335.174 122.377 331.126 115.619C327.079 108.862 318.895 105.263 311.151 106.843C302.352 108.686 296.016 116.497 295.928 125.448C295.928 127.116 293.288 127.116 293.288 125.448C293.376 116.497 299.008 108.335 307.456 105.263C315.903 102.104 325.759 104.825 331.478 111.758C337.198 118.778 338.078 128.783 333.326 136.594C328.662 144.317 319.423 148.354 310.535 146.598C300.504 144.668 293.288 135.541 293.2 125.536C293.288 123.693 295.928 123.693 295.928 125.448Z" fill="white" fill-opacity="0.08"/>
<path d="M244.891 125.448C244.979 133.259 249.906 140.543 257.386 143.176C264.866 145.809 273.313 143.527 278.417 137.471C283.521 131.416 284.137 122.377 280.089 115.619C276.041 108.862 267.857 105.263 260.114 106.843C251.314 108.686 244.979 116.497 244.891 125.448C244.891 127.116 242.251 127.116 242.251 125.448C242.339 116.497 247.97 108.335 256.418 105.264C264.866 102.104 274.721 104.825 280.441 111.758C286.16 118.779 287.041 128.783 282.289 136.594C277.625 144.317 268.385 148.354 259.498 146.599C249.466 144.668 242.251 135.541 242.163 125.536C242.251 123.693 244.891 123.693 244.891 125.448Z" fill="white" fill-opacity="0.08"/>
<path d="M398.003 125.448C398.091 133.259 403.019 140.543 410.499 143.176C417.978 145.808 426.426 143.527 431.53 137.471C436.633 131.416 437.249 122.377 433.202 115.619C429.154 108.862 420.97 105.263 413.227 106.843C404.427 108.686 398.003 116.497 398.003 125.448C398.003 127.116 395.363 127.116 395.363 125.448C395.451 116.497 401.083 108.335 409.531 105.263C417.978 102.104 427.834 104.825 433.554 111.758C439.273 118.778 440.153 128.783 435.401 136.594C430.738 144.317 421.498 148.354 412.611 146.598C402.579 144.668 395.363 135.541 395.275 125.536C395.363 123.693 398.003 123.693 398.003 125.448Z" fill="white" fill-opacity="0.08"/>
<path fill-rule="evenodd" clip-rule="evenodd" d="M364.773 72.0227H83.7607V46.7898C83.7607 41.3162 88.1892 36.8783 93.6513 36.8783H354.882C360.345 36.8783 364.773 41.3162 364.773 46.7898V72.0227Z" fill="#2C3862"/>
<path fill-rule="evenodd" clip-rule="evenodd" d="M354.882 314.977H93.6513C88.1892 314.977 83.7607 310.54 83.7607 305.066V69.0671H364.773V305.066C364.773 310.54 360.345 314.977 354.882 314.977Z" fill="white"/>
<path fill-rule="evenodd" clip-rule="evenodd" d="M106.597 53.2336C106.597 56.6687 103.818 59.4539 100.39 59.4539C96.9619 59.4539 94.1831 56.6687 94.1831 53.2336C94.1831 49.7984 96.9619 47.0133 100.39 47.0133C103.818 47.0133 106.597 49.7984 106.597 53.2336Z" fill="#FF363C"/>
<path fill-rule="evenodd" clip-rule="evenodd" d="M129.778 53.2336C129.778 56.6687 126.999 59.4539 123.571 59.4539C120.143 59.4539 117.364 56.6687 117.364 53.2336C117.364 49.7984 120.143 47.0133 123.571 47.0133C126.999 47.0133 129.778 49.7984 129.778 53.2336Z" fill="#FF9800"/>
<path fill-rule="evenodd" clip-rule="evenodd" d="M152.959 53.2336C152.959 56.6687 150.18 59.4539 146.752 59.4539C143.324 59.4539 140.545 56.6687 140.545 53.2336C140.545 49.7984 143.324 47.0133 146.752 47.0133C150.18 47.0133 152.959 49.7984 152.959 53.2336Z" fill="#3E863D"/>
<path fill-rule="evenodd" clip-rule="evenodd" d="M114.133 281.528C112.428 281.528 111.047 280.144 111.047 278.438V99.2853C111.047 97.5787 112.428 96.1949 114.133 96.1949H337.471C339.175 96.1949 340.557 97.5787 340.557 99.2853V278.438C340.557 280.144 339.175 281.528 337.471 281.528H114.133Z" fill="#EAF0F7"/>
<path d="M188.612 174.284C189.897 173.184 191.842 173.431 192.815 174.798L192.865 174.871L237.808 242.236L272.572 217.808C272.984 217.519 273.464 217.343 273.964 217.298L274.072 217.291L320.006 214.894C321.588 214.811 322.938 216.027 323.021 217.61C323.102 219.164 321.93 220.495 320.388 220.619L320.305 220.625L275.195 222.978L238.703 248.621C237.408 249.531 235.627 249.219 234.716 247.938L234.666 247.866L189.887 180.747L137.553 225.554C136.371 226.565 134.604 226.449 133.565 225.306L133.507 225.24C132.495 224.058 132.612 222.292 133.754 221.252L133.82 221.194L188.612 174.284Z" fill="#2AB398"/>
<path d="M313.203 133.629C314.085 132.312 315.868 131.961 317.184 132.844C318.476 133.71 318.839 135.444 318.016 136.753L317.969 136.825L277.103 197.762C276.078 199.29 273.907 199.467 272.647 198.148L272.586 198.082L225.876 146.111L193.498 167.957C193.041 168.266 192.506 168.435 191.956 168.447L191.846 168.448L135.639 167.529C134.055 167.503 132.791 166.198 132.817 164.613C132.843 163.056 134.103 161.809 135.65 161.791L135.733 161.791L191.037 162.695L224.737 139.957C225.899 139.173 227.452 139.345 228.415 140.352L228.476 140.418L274.39 191.504L313.203 133.629Z" fill="#FFB900"/>
<path d="M242.408 172.654C243.124 172.028 244.101 171.799 245.018 172.037L245.113 172.063L275.036 180.939L319.139 173.912C320.677 173.667 322.123 174.692 322.41 176.212L322.424 176.294C322.669 177.832 321.644 179.278 320.124 179.565L320.042 179.579L275.296 186.709C274.911 186.77 274.518 186.752 274.141 186.657L274.029 186.626L244.996 178.014L194.548 222.136C193.618 222.949 192.277 223.074 191.216 222.457L191.137 222.409L130.867 184.699C129.524 183.858 129.116 182.088 129.957 180.744C130.782 179.425 132.504 179.008 133.838 179.789L133.911 179.834L192.374 216.413L242.408 172.654Z" fill="#3A76BB"/>
<path fill-rule="evenodd" clip-rule="evenodd" d="M190.661 119.649H134.125C131.81 119.649 129.917 117.751 129.917 115.432C129.917 113.112 131.81 111.215 134.125 111.215H190.661C192.975 111.215 194.869 113.112 194.869 115.432C194.869 117.751 192.975 119.649 190.661 119.649Z" fill="#D2DBE5"/>
<path fill-rule="evenodd" clip-rule="evenodd" d="M157.973 139.537H136.933C134.609 139.537 132.724 137.649 132.724 135.32C132.724 132.991 134.609 131.103 136.933 131.103H157.973C160.298 131.103 162.181 132.991 162.181 135.32C162.181 137.649 160.298 139.537 157.973 139.537Z" fill="#D2DBE5"/>
<path d="M310.419 231.299C300.565 231.299 292.599 239.395 292.599 249.356C292.599 259.316 300.565 267.413 310.419 267.413C320.274 267.413 328.239 259.316 328.239 249.356C328.239 239.395 320.273 231.299 310.419 231.299ZM310.419 238.091C316.497 238.091 321.447 243.122 321.447 249.356C321.447 255.589 316.497 260.62 310.419 260.62C304.341 260.62 299.392 255.589 299.392 249.356C299.392 243.122 304.341 238.091 310.419 238.091Z" fill="#D2DBE5"/>
<path d="M322.271 239.832C323.995 239.094 325.991 239.894 326.729 241.619C327.72 243.935 328.239 246.458 328.239 249.05C328.239 251.172 327.892 253.248 327.219 255.207C326.611 256.981 324.679 257.926 322.905 257.318C321.159 256.719 320.216 254.839 320.766 253.089L320.794 253.003C321.224 251.752 321.447 250.42 321.447 249.05C321.447 247.447 321.142 245.899 320.561 244.476L320.484 244.291C319.746 242.566 320.546 240.57 322.271 239.832Z" fill="#3A76BB"/>
<path fill-rule="evenodd" clip-rule="evenodd" d="M296.864 9.03137C271.373 9.03137 250.709 29.6953 250.709 55.1856C250.709 80.6758 271.373 101.34 296.864 101.34C322.354 101.34 343.018 80.6758 343.018 55.1856C343.018 29.6953 322.354 9.03137 296.864 9.03137Z" fill="#FFB900"/>
<path fill-rule="evenodd" clip-rule="evenodd" d="M289.427 70.8639L286.513 67.9501L314.75 39.6105C315.715 38.6448 317.281 38.6448 318.246 39.6105L319.412 40.7759C320.378 41.7416 320.378 43.3071 319.412 44.2727L292.924 70.8639C291.958 71.8296 290.393 71.8296 289.427 70.8639Z" fill="white"/>
<path fill-rule="evenodd" clip-rule="evenodd" d="M295.832 67.95L292.918 70.8638C291.953 71.8295 290.387 71.8295 289.421 70.8638L277.818 59.2608C276.853 58.2953 276.853 56.7297 277.818 55.7641L278.984 54.5986C279.95 53.633 281.515 53.633 282.481 54.5986L295.832 67.95Z" fill="white"/>
<path fill-rule="evenodd" clip-rule="evenodd" d="M152.095 320.506C152.219 320.506 152.344 320.524 152.466 320.563C152.853 320.686 153.156 320.992 153.274 321.382L159.545 342.145C159.835 343.107 160.682 343.255 160.935 343.278C161.188 343.301 162.047 343.305 162.502 342.41L191.175 286.111C191.458 285.555 191.404 284.924 191.032 284.424C190.659 283.924 190.072 283.693 189.458 283.806L126.388 295.479C125.407 295.661 125.163 296.481 125.112 296.729C125.06 296.976 124.956 297.825 125.783 298.384L144.34 310.939C144.672 311.164 144.874 311.535 144.882 311.936C144.89 312.337 144.704 312.716 144.382 312.954L117.983 332.448C117.708 332.651 117.645 333.031 117.839 333.313L123.626 341.707C123.76 341.902 123.948 341.957 124.049 341.972C124.149 341.987 124.345 341.991 124.532 341.845L151.335 320.769C151.554 320.596 151.823 320.506 152.095 320.506Z" fill="#3A76BB"/>
<path fill-rule="evenodd" clip-rule="evenodd" d="M67 169.325C54.6705 169.325 44.6754 159.329 44.6754 147C44.6754 134.671 54.6705 124.675 67 124.675C79.3295 124.675 89.3246 134.671 89.3246 147C89.3246 159.329 79.3295 169.325 67 169.325ZM134 157.099V136.901L118.082 132.857C116.914 128.63 115.237 124.616 113.119 120.884L121.517 106.765L107.235 92.4829L93.1157 100.881C89.3836 98.7629 85.3695 97.0857 81.1434 95.9181L77.0985 80H56.9012L52.8566 95.9181C48.6302 97.0857 44.6161 98.7629 40.8843 100.881L26.7647 92.4829L12.4829 106.765L20.8807 120.884C18.7632 124.616 17.0857 128.63 15.9181 132.857L0 136.901V157.099L15.9181 161.143C17.0857 165.37 18.7632 169.384 20.8807 173.116L12.4829 187.235L26.7647 201.517L40.8843 193.119C44.6161 195.237 48.6302 196.914 52.8566 198.082L56.9012 214H77.0985L81.1434 198.082C85.3695 196.914 89.3836 195.237 93.1157 193.119L107.235 201.517L121.517 187.235L113.119 173.116C115.237 169.384 116.914 165.37 118.082 161.143L134 157.099Z" fill="white" fill-opacity="0.08"/>
</svg>
