<svg id="Group_191" data-name="Group 191" xmlns="http://www.w3.org/2000/svg" width="150.198" height="150.792" viewBox="0 0 150.198 150.792">
  <path id="Path_429" data-name="Path 429" d="M1577.7,419a74.645,74.645,0,1,1-74.644-74.644A74.644,74.644,0,0,1,1577.7,419" transform="translate(-1428.412 -344.356)" fill="#ffbd00"/>
  <path id="Path_430" data-name="Path 430" d="M1568.7,484.434l-20.423-20.422a3.793,3.793,0,0,1,0-5.344l1.957-1.956a3.79,3.79,0,0,1,5.345,0L1576,477.134a3.789,3.789,0,0,1,0,5.344l-1.956,1.956a3.789,3.789,0,0,1-5.344,0" transform="translate(-1428.412 -344.356)" fill="#fff"/>
  <path id="Path_431" data-name="Path 431" d="M1569.764,483.373c-6.762-6.762-13.665-13.407-20.3-20.3a2.365,2.365,0,0,1-.051-3.424c.9-1,2.187-2.649,3.664-2.54,1.452.108,2.818,2.037,3.759,2.979l13.347,13.346c1.543,1.543,3.118,3.059,4.63,4.631a2.414,2.414,0,0,1-.148,3.622c-1.292,1.324-2.989,3.423-4.9,1.682-1.426-1.3-3.554.82-2.121,2.121a5.391,5.391,0,0,0,7.475-.009c1.229-1.14,2.741-2.46,3.247-4.1.941-3.046-1-5.007-2.913-6.924l-14.428-14.428c-1.435-1.435-2.835-2.918-4.31-4.311a5.385,5.385,0,0,0-5.886-1.174,12.039,12.039,0,0,0-3.851,3.328,5.373,5.373,0,0,0,.246,7.2c.338.364.7.7,1.056,1.056l6.2,6.2,13.166,13.165a1.5,1.5,0,0,0,2.121-2.121" transform="translate(-1428.412 -344.356)" fill="#071546"/>
  <path id="Path_432" data-name="Path 432" d="M1494.722,394.251v-5.389a7.177,7.177,0,0,1,7.156-7.156h2.458a7.177,7.177,0,0,1,7.156,7.156v5.389a7.177,7.177,0,0,1-7.156,7.156h-2.458a7.177,7.177,0,0,1-7.156-7.156" transform="translate(-1428.412 -344.356)" fill="#fff"/>
  <path id="Path_433" data-name="Path 433" d="M1496.222,394.251v-3.728a9.008,9.008,0,0,1,.551-4.093,5.745,5.745,0,0,1,5.105-3.224,12.994,12.994,0,0,1,4.29.306,5.737,5.737,0,0,1,3.764,4.473,25.47,25.47,0,0,1,.06,3.955,13.585,13.585,0,0,1-.265,4.018,5.738,5.738,0,0,1-4.514,3.889,15.877,15.877,0,0,1-2.487.06,8.4,8.4,0,0,1-2.556-.265,5.732,5.732,0,0,1-3.948-5.391c-.037-1.928-3.037-1.934-3,0a8.845,8.845,0,0,0,3.932,7.242c2.023,1.357,4.268,1.414,6.6,1.414a8.717,8.717,0,0,0,9.236-9.055c0-1.618.011-3.235,0-4.853a8.776,8.776,0,0,0-3.013-6.684,9.888,9.888,0,0,0-6.775-2.109c-2.494,0-4.756.33-6.769,1.949a8.9,8.9,0,0,0-3.213,7.106v4.99a1.5,1.5,0,0,0,3,0" transform="translate(-1428.412 -344.356)" fill="#071546"/>
  <path id="Path_434" data-name="Path 434" d="M1535.917,493.644H1470.3a5.3,5.3,0,0,1-5.29-5.29v-85.4a5.3,5.3,0,0,1,5.29-5.29h65.62a5.3,5.3,0,0,1,5.29,5.29v85.4a5.3,5.3,0,0,1-5.29,5.29" transform="translate(-1428.412 -344.356)" fill="#fff"/>
  <path id="Path_435" data-name="Path 435" d="M1535.917,492.144h-64.861c-2.343,0-4.459-1.158-4.549-3.8-.025-.726,0-1.457,0-2.183V410.654c0-2.559-.085-5.134,0-7.692.086-2.606,2.163-3.8,4.49-3.8h62.342c.857,0,1.72-.029,2.577,0,2.536.086,3.791,2.126,3.791,4.426v84.129c0,2.3-1.235,4.343-3.79,4.426-1.926.063-1.934,3.063,0,3a6.934,6.934,0,0,0,6.79-7.065c.009-1.127,0-2.253,0-3.381v-77.29c0-1.319,0-2.637,0-3.956a7.029,7.029,0,0,0-4.413-6.85,11.711,11.711,0,0,0-4.269-.439h-63.084c-3.172,0-6.069,1.549-7.11,4.724a11.418,11.418,0,0,0-.324,3.615v76.3c0,2.617-.151,5.283.011,7.9a6.942,6.942,0,0,0,7.134,6.443c1.426.009,2.851,0,4.276,0h60.989a1.5,1.5,0,0,0,0-3" transform="translate(-1428.412 -344.356)" fill="#071546"/>
  <path id="Path_436" data-name="Path 436" d="M1516.741,403.77h-27.268a4.062,4.062,0,0,1-4.05-4.049v-4.115a4.062,4.062,0,0,1,4.05-4.049h27.268a4.061,4.061,0,0,1,4.049,4.049v4.115a4.061,4.061,0,0,1-4.049,4.049" transform="translate(-1428.412 -344.356)" fill="#fff"/>
  <path id="Path_437" data-name="Path 437" d="M1516.741,402.27h-23.555c-1.389,0-3.606.389-4.9-.3-1.615-.854-1.363-2.657-1.363-4.187,0-1.477-.3-3.278,1.081-4.264,1.221-.872,3.612-.466,5.006-.466h22.613a5.109,5.109,0,0,1,2.182.235c1.862.874,1.485,3.056,1.485,4.74,0,1.886-.053,4.131-2.549,4.238-1.923.083-1.934,3.083,0,3a5.647,5.647,0,0,0,5.534-5.2c.1-1.418.038-2.878.015-4.3a5.683,5.683,0,0,0-3.811-5.431,8.515,8.515,0,0,0-2.751-.282h-19.769c-2.124,0-4.257-.063-6.379,0a5.671,5.671,0,0,0-5.1,3.144c-.776,1.63-.558,3.547-.558,5.3,0,2.081.292,4.037,2,5.462a6.08,6.08,0,0,0,4.04,1.3c2.52.011,5.041,0,7.561,0h19.22a1.5,1.5,0,0,0,0-3" transform="translate(-1428.412 -344.356)" fill="#071546"/>
  <path id="Path_438" data-name="Path 438" d="M1490.554,423.239a8.8,8.8,0,1,1-8.8-8.8,8.8,8.8,0,0,1,8.8,8.8" transform="translate(-1428.412 -344.356)" fill="#fff"/>
  <path id="Path_439" data-name="Path 439" d="M1489.054,423.239a7.3,7.3,0,1,1-6.016-7.2,7.371,7.371,0,0,1,6.016,7.2,1.5,1.5,0,0,0,3,0,10.453,10.453,0,0,0-6.748-9.666,10.3,10.3,0,1,0,6.748,9.666,1.5,1.5,0,0,0-3,0" transform="translate(-1428.412 -344.356)" fill="#071546"/>
  <path id="Path_440" data-name="Path 440" d="M1493.9,414.375l-10.146,10.146-1.444,1.444a1.5,1.5,0,0,0,2.122,2.121l10.145-10.146q.723-.721,1.444-1.444a1.5,1.5,0,0,0-2.121-2.121" transform="translate(-1428.412 -344.356)" fill="#071546"/>
  <path id="Path_441" data-name="Path 441" d="M1484.433,425.964l-5.073-5.073q-.36-.361-.722-.722a1.5,1.5,0,0,0-2.121,2.122l5.073,5.072q.36.361.722.722a1.5,1.5,0,1,0,2.121-2.121" transform="translate(-1428.412 -344.356)" fill="#071546"/>
  <line id="Line_11" data-name="Line 11" x2="30.509" transform="translate(73.911 73.439)" fill="#fff"/>
  <path id="Path_442" data-name="Path 442" d="M1502.323,419.3h30.509a1.5,1.5,0,0,0,0-3h-30.509a1.5,1.5,0,0,0,0,3" transform="translate(-1428.412 -344.356)" fill="#071546"/>
  <line id="Line_12" data-name="Line 12" x2="30.509" transform="translate(73.911 78.273)" fill="#fff"/>
  <path id="Path_443" data-name="Path 443" d="M1502.323,424.129h30.509a1.5,1.5,0,0,0,0-3h-30.509a1.5,1.5,0,0,0,0,3" transform="translate(-1428.412 -344.356)" fill="#071546"/>
  <line id="Line_13" data-name="Line 13" x2="13.101" transform="translate(73.911 83.107)" fill="#fff"/>
  <path id="Path_444" data-name="Path 444" d="M1502.323,428.963h13.1a1.5,1.5,0,0,0,0-3h-13.1a1.5,1.5,0,0,0,0,3" transform="translate(-1428.412 -344.356)" fill="#071546"/>
  <path id="Path_445" data-name="Path 445" d="M1490.554,447.906a8.8,8.8,0,1,1-8.8-8.8,8.8,8.8,0,0,1,8.8,8.8" transform="translate(-1428.412 -344.356)" fill="#fff"/>
  <path id="Path_446" data-name="Path 446" d="M1489.054,447.906a7.3,7.3,0,1,1-6.016-7.2,7.371,7.371,0,0,1,6.016,7.2,1.5,1.5,0,0,0,3,0,10.453,10.453,0,0,0-6.748-9.666,10.3,10.3,0,1,0,6.748,9.666,1.5,1.5,0,0,0-3,0" transform="translate(-1428.412 -344.356)" fill="#071546"/>
  <path id="Path_447" data-name="Path 447" d="M1493.9,439.042l-10.146,10.146-1.444,1.444a1.5,1.5,0,0,0,2.122,2.121l10.145-10.146q.723-.721,1.444-1.444a1.5,1.5,0,0,0-2.121-2.121" transform="translate(-1428.412 -344.356)" fill="#071546"/>
  <path id="Path_448" data-name="Path 448" d="M1484.433,450.631l-5.073-5.073q-.36-.362-.722-.722a1.5,1.5,0,0,0-2.121,2.122l5.073,5.072q.36.361.722.722a1.5,1.5,0,1,0,2.121-2.121" transform="translate(-1428.412 -344.356)" fill="#071546"/>
  <line id="Line_14" data-name="Line 14" x2="30.509" transform="translate(73.911 98.106)" fill="#fff"/>
  <path id="Path_449" data-name="Path 449" d="M1502.323,443.962h30.509a1.5,1.5,0,0,0,0-3h-30.509a1.5,1.5,0,0,0,0,3" transform="translate(-1428.412 -344.356)" fill="#071546"/>
  <line id="Line_15" data-name="Line 15" x2="30.509" transform="translate(73.911 102.94)" fill="#fff"/>
  <path id="Path_450" data-name="Path 450" d="M1502.323,448.8h30.509a1.5,1.5,0,0,0,0-3h-30.509a1.5,1.5,0,0,0,0,3" transform="translate(-1428.412 -344.356)" fill="#071546"/>
  <line id="Line_16" data-name="Line 16" x2="13.101" transform="translate(73.911 107.774)" fill="#fff"/>
  <path id="Path_451" data-name="Path 451" d="M1502.323,453.63h13.1a1.5,1.5,0,0,0,0-3h-13.1a1.5,1.5,0,0,0,0,3" transform="translate(-1428.412 -344.356)" fill="#071546"/>
  <path id="Path_452" data-name="Path 452" d="M1490.554,472.573a8.8,8.8,0,1,1-8.8-8.8,8.8,8.8,0,0,1,8.8,8.8" transform="translate(-1428.412 -344.356)" fill="#fff"/>
  <path id="Path_453" data-name="Path 453" d="M1489.054,472.573a7.3,7.3,0,1,1-6.016-7.2,7.371,7.371,0,0,1,6.016,7.2,1.5,1.5,0,0,0,3,0,10.453,10.453,0,0,0-6.748-9.666,10.3,10.3,0,1,0,6.748,9.666,1.5,1.5,0,0,0-3,0" transform="translate(-1428.412 -344.356)" fill="#071546"/>
  <path id="Path_454" data-name="Path 454" d="M1493.9,463.709l-10.146,10.146-1.444,1.444a1.5,1.5,0,0,0,2.122,2.121l10.145-10.146q.723-.721,1.444-1.444a1.5,1.5,0,0,0-2.121-2.121" transform="translate(-1428.412 -344.356)" fill="#071546"/>
  <path id="Path_455" data-name="Path 455" d="M1484.433,475.3l-5.073-5.073q-.36-.361-.722-.722a1.5,1.5,0,0,0-2.121,2.122l5.073,5.072q.36.361.722.722a1.5,1.5,0,1,0,2.121-2.121" transform="translate(-1428.412 -344.356)" fill="#071546"/>
  <line id="Line_17" data-name="Line 17" x2="30.509" transform="translate(73.911 122.773)" fill="#fff"/>
  <path id="Path_456" data-name="Path 456" d="M1502.323,468.63h30.509a1.5,1.5,0,0,0,0-3h-30.509a1.5,1.5,0,0,0,0,3" transform="translate(-1428.412 -344.356)" fill="#071546"/>
  <line id="Line_18" data-name="Line 18" x2="30.509" transform="translate(73.911 127.607)" fill="#fff"/>
  <path id="Path_457" data-name="Path 457" d="M1502.323,473.463h30.509a1.5,1.5,0,0,0,0-3h-30.509a1.5,1.5,0,0,0,0,3" transform="translate(-1428.412 -344.356)" fill="#071546"/>
  <line id="Line_19" data-name="Line 19" x2="13.101" transform="translate(73.911 132.441)" fill="#fff"/>
  <path id="Path_458" data-name="Path 458" d="M1502.323,478.3h13.1a1.5,1.5,0,0,0,0-3h-13.1a1.5,1.5,0,0,0,0,3" transform="translate(-1428.412 -344.356)" fill="#071546"/>
  <path id="Path_459" data-name="Path 459" d="M1516.749,425.179a25.875,25.875,0,1,0,36.593,0,25.876,25.876,0,0,0-36.593,0m29.293,29.293a15.551,15.551,0,1,1,0-21.992,15.55,15.55,0,0,1,0,21.992" transform="translate(-1428.412 -344.356)" fill="#fff"/>
  <path id="Path_460" data-name="Path 460" d="M1515.689,424.119a27.377,27.377,0,1,0,34.5-3.452,27.694,27.694,0,0,0-34.5,3.452c-1.377,1.358.745,3.479,2.121,2.121a24.376,24.376,0,1,1-3.08,30.716,24.608,24.608,0,0,1,3.08-30.716c1.357-1.376-.763-3.5-2.121-2.121" transform="translate(-1428.412 -344.356)" fill="#071546"/>
  <path id="Path_461" data-name="Path 461" d="M1544.982,453.412a14.051,14.051,0,1,1,1.78-17.7,14.188,14.188,0,0,1-1.78,17.7c-1.352,1.38.767,3.5,2.121,2.121a17.053,17.053,0,1,0-21.6,2.074,17.272,17.272,0,0,0,21.6-2.074c1.382-1.353-.74-3.474-2.121-2.121" transform="translate(-1428.412 -344.356)" fill="#071546"/>
</svg>
