<svg width="29" height="29" viewBox="0 0 29 29" fill="none" xmlns="http://www.w3.org/2000/svg">
    <circle cx="14.5" cy="14.5" r="14.5" fill="white"/>
    <path d="M14.6005 17.2504C15.8399 17.2504 16.8446 16.2454 16.8446 15.0056C16.8446 13.7658 15.8399 12.7607 14.6005 12.7607C13.3611 12.7607 12.3564 13.7658 12.3564 15.0056C12.3564 16.2454 13.3611 17.2504 14.6005 17.2504Z" fill="#071546"/>
    <path d="M14.6006 19.6041C21.251 19.6041 26.6422 17.545 26.6422 15.0049C26.6422 12.4649 21.251 10.4058 14.6006 10.4058C7.95018 10.4058 2.55896 12.4649 2.55896 15.0049C2.55896 17.545 7.95018 19.6041 14.6006 19.6041Z" stroke="#071546"/>
    <path d="M10.6187 17.3053C13.9439 23.0665 18.4222 26.7074 20.6213 25.4374C22.8204 24.1673 21.9074 18.4674 18.5822 12.7061C15.257 6.94484 10.7787 3.30398 8.57966 4.574C6.38061 5.84403 7.29354 11.544 10.6187 17.3053Z" stroke="#071546"/>
    <path d="M10.6189 12.7065C7.29365 18.4678 6.38073 24.1678 8.57978 25.4378C10.7788 26.7078 15.2571 23.067 18.5823 17.3057C21.9075 11.5444 22.8205 5.84446 20.6214 4.57443C18.4224 3.30441 13.9441 6.94527 10.6189 12.7065Z" stroke="#071546"/>
</svg>
