<svg width="30" height="29" viewBox="0 0 30 29" fill="none" xmlns="http://www.w3.org/2000/svg">
    <path d="M15 17.4117C16.4409 17.4117 17.6091 16.2432 17.6091 14.8018C17.6091 13.3604 16.4409 12.1919 15 12.1919C13.559 12.1919 12.3909 13.3604 12.3909 14.8018C12.3909 16.2432 13.559 17.4117 15 17.4117Z" fill="white"/>
    <path d="M15 20.1489C22.732 20.1489 29 17.7549 29 14.8017C29 11.8486 22.732 9.45459 15 9.45459C7.26801 9.45459 1 11.8486 1 14.8017C1 17.7549 7.26801 20.1489 15 20.1489Z" stroke="white" stroke-width="0.7"/>
    <path d="M10.3707 17.4754C14.2367 24.1736 19.4433 28.4066 22 26.93C24.5567 25.4534 23.4953 18.8265 19.6293 12.1282C15.7633 5.42999 10.5567 1.197 7.99997 2.67358C5.44328 4.15016 6.50468 10.7771 10.3707 17.4754Z" stroke="white" stroke-width="0.7"/>
    <path d="M10.3707 12.1282C6.50468 18.8265 5.44328 25.4535 7.99997 26.93C10.5567 28.4066 15.7633 24.1736 19.6293 17.4754C23.4953 10.7772 24.5567 4.15017 22 2.67359C19.4433 1.19701 14.2367 5.43 10.3707 12.1282Z" stroke="white" stroke-width="0.7"/>
</svg>
