<svg width="29" height="29" viewBox="0 0 29 29" fill="none" xmlns="http://www.w3.org/2000/svg">
    <path d="M13.3639 23.9205C12.3668 23.9173 11.4058 23.5421 10.6646 22.8667C9.92343 22.1913 9.45397 21.263 9.34597 20.2592H5.87156C5.67292 20.2592 5.47731 20.2461 5.28295 20.229C5.29711 20.5588 5.33084 20.8874 5.38397 21.2131L7.23292 21.656L7.31244 21.8932C7.38498 22.1082 7.46869 22.3193 7.56321 22.5254L7.65846 22.7334L6.70996 24.4815C7.2416 25.2575 7.90207 25.9343 8.66202 26.4818L10.2021 25.435L10.4367 25.5571C10.6202 25.6527 10.8089 25.7395 11.0029 25.8177L11.2362 25.9115L11.5565 27.7977C12.7293 28.0646 13.9457 28.0674 15.1198 27.8061L15.4501 25.9217L15.6838 25.8292C15.8997 25.7433 16.1109 25.6457 16.3164 25.5368L16.5694 25.4027L18.0041 26.5159C18.7567 25.9822 19.4136 25.3221 19.9466 24.5643L19.0016 22.8387L19.1034 22.6272C19.2216 22.3806 19.3241 22.1266 19.4101 21.8666L19.4909 21.6233L21.3298 21.2158C21.3815 20.8992 21.4149 20.5798 21.4299 20.2592H17.3814C17.2734 21.263 16.804 22.1912 16.0629 22.8666C15.3218 23.542 14.3609 23.9172 13.3639 23.9205ZM29 13.4065C28.9983 14.9831 28.3791 16.4946 27.2782 17.6094C26.1774 18.7242 24.6849 19.3513 23.1281 19.353H13.8772V17.783L16.6109 16.8921L16.6377 15.0318C16.9366 14.9267 17.1891 14.7181 17.3507 14.4427C17.5123 14.1673 17.5726 13.8429 17.5209 13.5269C17.4693 13.2108 17.3089 12.9234 17.0683 12.7155C16.8276 12.5076 16.5221 12.3925 16.2058 12.3906C15.8895 12.3887 15.5827 12.5001 15.3396 12.7052C15.0965 12.9102 14.9328 13.1956 14.8774 13.511C14.8221 13.8264 14.8786 14.1515 15.0369 14.4288C15.1953 14.7061 15.4454 14.9178 15.743 15.0264L15.7257 16.2285L13.8772 16.8309V11.9666C14.1757 11.8597 14.4273 11.6494 14.5875 11.3728C14.7476 11.0962 14.8061 10.7712 14.7525 10.4552C14.699 10.1392 14.5368 9.85253 14.2948 9.64588C14.0527 9.43923 13.7463 9.32591 13.4296 9.32593C13.113 9.32595 12.8066 9.43932 12.5646 9.646C12.3225 9.85268 12.1604 10.1394 12.1069 10.4554C12.0534 10.7714 12.1119 11.0964 12.2721 11.373C12.4323 11.6495 12.6839 11.8598 12.9825 11.9666V15.7086L10.967 15.1409L10.983 13.8852C11.2806 13.774 11.5299 13.5598 11.6867 13.2805C11.8435 13.0012 11.8977 12.6747 11.8397 12.3589C11.7818 12.043 11.6154 11.758 11.3701 11.5544C11.1247 11.3507 10.8161 11.2415 10.4989 11.246C10.1817 11.2505 9.87624 11.3684 9.63659 11.5789C9.39695 11.7895 9.23852 12.079 9.18933 12.3964C9.14015 12.7138 9.20336 13.0386 9.36779 13.3134C9.53223 13.5881 9.7873 13.7952 10.0879 13.8979L10.0635 15.8267L12.9825 16.6493V19.353H5.87156C4.31794 19.3538 2.8274 18.7307 1.72674 17.6203C0.626075 16.5099 0.00512452 15.0028 3.15758e-05 13.4294C-0.00506137 11.8561 0.60612 10.3449 1.69957 9.22716C2.79302 8.10946 4.2795 7.47647 5.83308 7.46699L6.28352 7.46518L6.27871 7.00902C6.27057 6.22316 6.41632 5.44347 6.70755 4.71501C6.99877 3.98656 7.42969 3.32378 7.97539 2.76501C8.52108 2.20624 9.17074 1.76255 9.88679 1.4596C10.6028 1.15665 11.3711 1.00044 12.1471 1C12.9231 0.999566 13.6916 1.15491 14.4079 1.45707C15.1243 1.75922 15.7745 2.20218 16.3208 2.76034C16.8671 3.3185 17.2987 3.98079 17.5907 4.70892C17.8828 5.43705 18.0294 6.21658 18.0221 7.00244L18.0177 7.45993H23.1281C24.6849 7.46168 26.1774 8.08876 27.2782 9.20357C28.3791 10.3184 28.9983 11.8299 29 13.4065ZM11.8199 2.7173C11.3167 2.71724 10.8186 2.81826 10.3542 3.01449C9.88989 3.21072 9.46859 3.49828 9.11472 3.86051C8.76085 4.22275 8.48145 4.65247 8.29267 5.12479C8.1039 5.59712 8.00951 6.10268 8.01496 6.6122L8.90973 6.60247C8.9056 6.21278 8.97782 5.82612 9.12222 5.46488C9.26662 5.10365 9.48032 4.775 9.75097 4.49795C10.0216 4.2209 10.3438 4.00096 10.699 3.85085C11.0541 3.70074 11.4351 3.62345 11.8199 3.62344V2.7173ZM18.9278 8.79613H17.9102V9.70228H18.9278V8.79613ZM20.9209 8.79613H19.9034V9.70228H20.9209V8.79613ZM22.9136 8.79613H21.8965V9.70228H22.9136V8.79613ZM24.9067 8.79613H23.8896V9.70228H24.9067V8.79613ZM13.3561 22.8037C14.0751 22.8025 14.7712 22.5483 15.3255 22.0847C15.8798 21.621 16.2577 20.9767 16.3947 20.262H10.3181C10.455 20.9767 10.8328 21.621 11.387 22.0846C11.9412 22.5483 12.6373 22.8025 13.3561 22.8037Z" fill="white"/>
    <path d="M18.9278 8.79613H17.9102V9.70228H18.9278V8.79613Z" fill="white"/>
    <path d="M20.9209 8.79613H19.9034V9.70228H20.9209V8.79613Z" fill="white"/>
    <path d="M22.9136 8.79613H21.8965V9.70228H22.9136V8.79613Z" fill="white"/>
    <path d="M24.9067 8.79613H23.8896V9.70228H24.9067V8.79613Z" fill="white"/>
</svg>
