<svg width="60" height="60" viewBox="0 0 60 60" fill="none" xmlns="http://www.w3.org/2000/svg">
<g id="technical-product-managers 1" clip-path="url(#clip0_922_329)">
<g id="Group 522">
<path id="Path 359" d="M59.9999 29.7016C60 35.5761 58.2406 41.3187 54.9441 46.2032C51.6477 51.0878 46.9623 54.8948 41.4805 57.1429C35.9986 59.3911 29.9666 59.9793 24.1471 58.8332C18.3276 57.6872 12.982 54.8583 8.78637 50.7044C4.59075 46.5505 1.7335 41.2581 0.575949 35.4964C-0.581602 29.7348 0.0125421 23.7627 2.28324 18.3353C4.55393 12.908 8.39919 8.26918 13.3328 5.00552C18.2663 1.74185 24.0666 -7.86964e-05 30.0001 2.66655e-09C37.9566 2.66656e-09 45.5871 3.12926 51.2132 8.69939C56.8392 14.2695 59.9999 21.8242 59.9999 29.7016Z" fill="#FFBD00"/>
<path id="Path 360" d="M42.8842 25.2705H41.5945C41.3392 24.3777 40.9789 23.5176 40.521 22.708L41.4338 21.8043C41.5247 21.7144 41.5969 21.6075 41.6461 21.4899C41.6953 21.3723 41.7207 21.2462 41.7207 21.1189C41.7207 20.9916 41.6953 20.8656 41.6461 20.748C41.5969 20.6304 41.5247 20.5235 41.4338 20.4335L38.1711 17.2033C38.0802 17.1133 37.9723 17.0418 37.8535 16.9931C37.7347 16.9443 37.6074 16.9192 37.4788 16.9192C37.3502 16.9192 37.2229 16.9443 37.1041 16.9931C36.9853 17.0418 36.8774 17.1133 36.7865 17.2033L35.8734 18.107C35.0557 17.6538 34.1871 17.2971 33.2855 17.0441V15.7673C33.2854 15.5102 33.1822 15.2638 32.9986 15.0821C32.815 14.9004 32.5661 14.7983 32.3065 14.7983H27.6926C27.433 14.7983 27.1841 14.9004 27.0005 15.0821C26.8169 15.2638 26.7137 15.5102 26.7136 15.7673V17.0441C25.812 17.2971 24.9434 17.6538 24.1257 18.107L23.2126 17.2033C23.1217 17.1133 23.0138 17.0418 22.895 16.9931C22.7762 16.9443 22.6489 16.9192 22.5203 16.9192C22.3917 16.9192 22.2644 16.9443 22.1456 16.9931C22.0268 17.0418 21.9189 17.1133 21.828 17.2033L18.5653 20.4335C18.3818 20.6154 18.2788 20.8619 18.2788 21.1189C18.2788 21.376 18.3818 21.6225 18.5653 21.8043L19.4785 22.708C19.0205 23.5176 18.6603 24.3777 18.405 25.2705H17.1153C16.9867 25.2705 16.8594 25.2955 16.7406 25.3442C16.6219 25.3928 16.5139 25.4642 16.423 25.5542C16.3321 25.6442 16.26 25.751 16.2108 25.8686C16.1615 25.9861 16.1362 26.1122 16.1362 26.2394V30.8078C16.1363 31.0648 16.2395 31.3113 16.4231 31.493C16.6067 31.6747 16.8557 31.7767 17.1153 31.7767H18.405C18.6603 32.6696 19.0205 33.5297 19.4785 34.3393L18.5653 35.2429C18.3818 35.4248 18.2787 35.6714 18.2787 35.9285C18.2787 36.1856 18.3818 36.4322 18.5653 36.6141L21.828 39.844C22.0116 40.0257 22.2606 40.1279 22.5203 40.1279C22.78 40.1279 23.029 40.0257 23.2126 39.844L24.1257 38.9395C24.9432 39.3933 25.8118 39.7501 26.7136 40.0027V41.2792C26.7136 41.5363 26.8167 41.7829 27.0003 41.9648C27.1839 42.1466 27.4329 42.2488 27.6926 42.2489H32.3065C32.5662 42.2488 32.8152 42.1466 32.9988 41.9648C33.1824 41.7829 33.2855 41.5363 33.2855 41.2792V40.0027C34.1873 39.7501 35.0559 39.3933 35.8734 38.9395L36.7865 39.844C36.9702 40.0257 37.2192 40.1277 37.4788 40.1277C37.7384 40.1277 37.9874 40.0257 38.1711 39.844L41.4333 36.6141C41.5243 36.5241 41.5965 36.4172 41.6457 36.2996C41.695 36.182 41.7203 36.0559 41.7203 35.9285C41.7203 35.8012 41.695 35.6751 41.6457 35.5575C41.5965 35.4398 41.5243 35.333 41.4333 35.2429L40.521 34.3397C40.9789 33.5301 41.3392 32.67 41.5945 31.7771H42.8842C43.1438 31.7771 43.3928 31.6751 43.5764 31.4934C43.76 31.3117 43.8632 31.0652 43.8633 30.8082V26.2394C43.8633 26.1122 43.8379 25.9861 43.7887 25.8686C43.7395 25.751 43.6674 25.6442 43.5765 25.5542C43.4856 25.4642 43.3776 25.3928 43.2589 25.3442C43.1401 25.2955 43.0128 25.2705 42.8842 25.2705ZM29.9999 33.2466C29.0564 33.2466 28.1341 32.9696 27.3495 32.4506C26.565 31.9316 25.9536 31.194 25.5925 30.3309C25.2314 29.4679 25.1369 28.5182 25.321 27.602C25.5051 26.6858 25.9594 25.8442 26.6266 25.1836C27.2938 24.5231 28.1438 24.0733 29.0692 23.891C29.9946 23.7088 30.9539 23.8023 31.8256 24.1598C32.6973 24.5173 33.4424 25.1227 33.9666 25.8994C34.4908 26.6761 34.7706 27.5893 34.7706 28.5234C34.7706 29.7761 34.2679 30.9775 33.3733 31.8632C32.4786 32.749 31.2652 33.2466 29.9999 33.2466Z" fill="white"/>
<path id="Path 361" d="M42.8842 24.6731H41.5945L42.176 25.1108C41.8993 24.1704 41.5188 23.263 41.0415 22.405L40.9474 23.128C41.4928 22.5881 42.2938 22.0167 42.3211 21.1843C42.3468 20.3976 41.7886 19.9384 41.2822 19.437C40.6587 18.8197 40.0355 18.2027 39.4125 17.586C38.9841 17.1614 38.5167 16.5478 37.9094 16.3819C36.817 16.0827 36.1249 17.0126 35.4477 17.6835L36.1784 17.5899C35.3118 17.1174 34.3953 16.7407 33.4454 16.4666L33.8876 17.0424C33.8876 16.2904 34.0383 15.3668 33.5069 14.7513C32.9756 14.1357 32.2208 14.1994 31.4882 14.1994H28.8468C28.2335 14.1994 27.4466 14.0895 26.8964 14.413C25.9383 14.9769 26.1127 16.1042 26.1127 17.0424C26.2601 16.8506 26.4074 16.6587 26.5548 16.4666C25.6049 16.7406 24.6884 17.1173 23.8218 17.5899L24.5525 17.6835C24.0067 17.1431 23.4296 16.3501 22.5892 16.323C21.7942 16.2975 21.3304 16.8502 20.824 17.3516C20.2011 17.9686 19.5779 18.5856 18.9544 19.2027C18.5259 19.6272 17.9062 20.0896 17.7382 20.6909C17.436 21.7724 18.3752 22.4576 19.0528 23.128C19.0215 22.8869 18.99 22.6459 18.9584 22.405C18.4811 23.263 18.1008 24.1704 17.8242 25.1108L18.4054 24.6731C17.6462 24.6731 16.7129 24.5243 16.0912 25.05C15.4694 25.5756 15.5337 26.3233 15.5337 27.0487V29.6665C15.5337 30.2737 15.4228 31.0528 15.75 31.5976C16.3195 32.5462 17.4581 32.3735 18.4054 32.3735L17.8242 31.9358C18.1008 32.8762 18.4811 33.7836 18.9584 34.6416C18.9903 34.4004 19.0218 34.1593 19.0528 33.9182C18.5074 34.4585 17.706 35.0299 17.6787 35.8624C17.653 36.649 18.2112 37.1082 18.7176 37.6096L20.5877 39.4606C21.0161 39.8848 21.4835 40.4984 22.0904 40.6647C23.1832 40.964 23.8749 40.034 24.5525 39.3632L23.8218 39.4567C24.6884 39.9292 25.6049 40.3058 26.5548 40.5796L26.1127 40.0042C26.1127 40.7558 25.9624 41.6798 26.4933 42.2954C27.0242 42.9109 27.7794 42.8473 28.5121 42.8473H31.1566C31.7699 42.8473 32.5568 42.9571 33.107 42.6332C34.0652 42.0693 33.8903 40.9425 33.8903 40.0042L33.4483 40.5796C34.3981 40.3058 35.3146 39.9292 36.1812 39.4567L35.4509 39.3632C35.9963 39.9035 36.5735 40.6966 37.4143 40.7236C38.2088 40.7491 38.6726 40.1964 39.179 39.695L41.0487 37.8439C41.4775 37.4194 42.0973 36.957 42.2649 36.3558C42.5671 35.2742 41.6278 34.589 40.9506 33.9182L41.0447 34.6416C41.5221 33.7836 41.9025 32.8762 42.1792 31.9358L41.5977 32.3735C42.4979 32.3735 43.5935 32.5466 44.1831 31.7006C44.6075 31.0918 44.4693 30.1886 44.4693 29.4882V26.6957C44.4831 26.4465 44.4729 26.1965 44.4388 25.9492C44.365 25.5937 44.1711 25.2737 43.8892 25.0417C43.6072 24.8098 43.2539 24.6798 42.8874 24.6731C42.1129 24.6214 42.1161 25.8155 42.8874 25.8669C43.4235 25.9027 43.2636 26.7359 43.2636 27.0876V29.4882C43.31 29.9433 43.3077 30.402 43.2567 30.8566C43.1305 31.3962 42.0145 31.1798 41.5977 31.1798C41.4663 31.1818 41.3391 31.2254 41.2345 31.3041C41.1299 31.3829 41.0536 31.4927 41.0165 31.6175C40.7702 32.4586 40.4305 33.2701 40.0037 34.0371C39.9389 34.1517 39.9131 34.284 39.93 34.4142C39.9469 34.5445 40.0058 34.6659 40.0978 34.7605L40.8682 35.5233C41.107 35.7597 41.197 35.961 40.9619 36.2396C40.4892 36.7966 39.8996 37.2912 39.3796 37.8061C38.8796 38.3548 38.3515 38.8777 37.7973 39.3727C37.5159 39.5987 37.3126 39.5164 37.0738 39.28L36.3002 38.5176C36.2047 38.4263 36.0821 38.3679 35.9505 38.3511C35.8189 38.3343 35.6853 38.3599 35.5695 38.4241C34.7948 38.8468 33.9751 39.1833 33.1255 39.4272C32.9995 39.4639 32.8886 39.5395 32.809 39.643C32.7295 39.7465 32.6855 39.8725 32.6834 40.0026C32.6834 40.4678 32.9189 41.5863 32.2626 41.6519C31.5251 41.7256 30.7406 41.6519 30.0003 41.6519C29.26 41.6519 28.4871 41.7168 27.7496 41.6519C27.0769 41.5923 27.3164 40.4777 27.3164 40.0026C27.3144 39.8725 27.2704 39.7465 27.1909 39.643C27.1113 39.5394 27.0004 39.4638 26.8743 39.4272C26.0247 39.1832 25.2051 38.8468 24.4303 38.4241C24.3145 38.36 24.1809 38.3345 24.0494 38.3513C23.9178 38.3681 23.7952 38.4264 23.6997 38.5176L22.9296 39.2804C22.6885 39.5168 22.4875 39.6059 22.2062 39.3731C21.6435 38.9052 21.1439 38.3214 20.6239 37.8065C20.0698 37.3114 19.5416 36.7886 19.0416 36.24C18.8133 35.9614 18.8969 35.7597 19.1352 35.5237L19.9057 34.7609C19.9979 34.6665 20.0569 34.545 20.0739 34.4147C20.0909 34.2844 20.0651 34.1521 20.0001 34.0375C19.5732 33.2705 19.2335 32.459 18.9873 31.6178C18.9501 31.4931 18.8737 31.3833 18.7691 31.3045C18.6644 31.2258 18.5371 31.1822 18.4057 31.1801C17.9359 31.1801 16.8062 31.4133 16.7399 30.7635C16.6655 30.0334 16.7399 29.2563 16.7399 28.5237C16.7399 27.7912 16.6744 27.0256 16.7399 26.2954C16.8002 25.6293 17.9259 25.8665 18.4057 25.8665C18.5372 25.8645 18.6645 25.8209 18.7691 25.7422C18.8737 25.6634 18.9502 25.5536 18.9873 25.4288C19.2334 24.5876 19.5731 23.776 20.0001 23.0091C20.0649 22.8944 20.0906 22.7622 20.0736 22.6319C20.0566 22.5016 19.9978 22.3803 19.9057 22.2857L19.1352 21.5229C18.8965 21.2865 18.8065 21.0852 19.0416 20.8066C19.5142 20.2496 20.1038 19.755 20.6239 19.2401C21.1237 18.6913 21.6519 18.1684 22.2062 17.6735C22.4875 17.4475 22.6913 17.5299 22.9296 17.7662L23.6997 18.529C23.7952 18.6202 23.9178 18.6785 24.0494 18.6953C24.181 18.7121 24.3146 18.6864 24.4303 18.6221C25.2051 18.1996 26.0248 17.8633 26.8743 17.6194C27.0003 17.5827 27.1112 17.507 27.1907 17.4035C27.2703 17.3 27.3143 17.1741 27.3164 17.044C27.3164 16.5789 27.0809 15.4603 27.7376 15.3947C28.4747 15.3211 29.2596 15.3947 29.9995 15.3947C30.7394 15.3947 31.5127 15.3298 32.2502 15.3947C32.9234 15.454 32.6834 16.5689 32.6834 17.044C32.6855 17.1741 32.7295 17.3001 32.809 17.4036C32.8886 17.5071 32.9995 17.5827 33.1255 17.6194C33.9751 17.8632 34.7948 18.1995 35.5695 18.6221C35.6853 18.6863 35.8188 18.712 35.9504 18.6952C36.082 18.6784 36.2046 18.6202 36.3002 18.529L37.0706 17.7662C37.3094 17.5299 37.5127 17.4407 37.7941 17.6735C38.3567 18.1414 38.8567 18.7252 39.3764 19.2401C39.9308 19.7349 40.4589 20.2578 40.9587 20.8066C41.1869 21.0852 41.1037 21.2865 40.865 21.5229L40.0946 22.2857C40.0024 22.3802 39.9435 22.5017 39.9266 22.632C39.9097 22.7623 39.9356 22.8945 40.0005 23.0091C40.4274 23.7761 40.767 24.5876 41.0133 25.4288C41.0504 25.5535 41.1268 25.6633 41.2313 25.742C41.3359 25.8208 41.4631 25.8644 41.5945 25.8665H42.8842C43.0441 25.8665 43.1974 25.8036 43.3105 25.6916C43.4235 25.5797 43.487 25.4279 43.487 25.2696C43.487 25.1113 43.4235 24.9595 43.3105 24.8476C43.1974 24.7356 43.0441 24.6731 42.8842 24.6731Z" fill="#071546"/>
<path id="Path 362" d="M29.9999 32.6497C29.1436 32.6491 28.3083 32.3874 27.6076 31.9002C26.9068 31.4129 26.3747 30.7238 26.0836 29.9265C25.7925 29.1292 25.7565 28.2625 25.9805 27.4442C26.2045 26.626 26.6778 25.8959 27.3357 25.3534C27.9937 24.8108 28.8046 24.4821 29.6579 24.412C30.5113 24.3419 31.3657 24.5337 32.1051 24.9614C32.8444 25.3891 33.4327 26.0319 33.79 26.8024C34.1473 27.5728 34.2561 28.4336 34.1018 29.2675C33.918 30.2136 33.409 31.0676 32.6612 31.6842C31.9134 32.3007 30.9731 32.6419 29.9999 32.6497C29.8401 32.6497 29.6867 32.7126 29.5737 32.8245C29.4606 32.9364 29.3971 33.0883 29.3971 33.2466C29.3971 33.4049 29.4606 33.5567 29.5737 33.6686C29.6867 33.7805 29.8401 33.8434 29.9999 33.8434C31.1065 33.8439 32.1862 33.5062 33.0916 32.8764C33.9971 32.2467 34.6841 31.3556 35.059 30.3249C35.4338 29.2941 35.4782 28.1739 35.1861 27.1173C34.8939 26.0606 34.2795 25.119 33.4267 24.4209C32.5738 23.7229 31.5242 23.3025 30.421 23.2171C29.3179 23.1317 28.215 23.3855 27.2629 23.9439C26.3109 24.5022 25.5561 25.3379 25.1016 26.3367C24.6472 27.3356 24.5152 28.449 24.7237 29.5249C24.9718 30.7336 25.6308 31.8217 26.5909 32.6076C27.551 33.3936 28.7542 33.8301 29.9999 33.8442C30.1598 33.8442 30.3132 33.7813 30.4262 33.6694C30.5393 33.5575 30.6028 33.4057 30.6028 33.2474C30.6028 33.0891 30.5393 32.9372 30.4262 32.8253C30.3132 32.7134 30.1598 32.6505 29.9999 32.6505" fill="#071546"/>
<path id="Rectangle 41" d="M30.0003 35.197H11.4604V59.4035H30.0003V35.197Z" fill="white"/>
<path id="Path 363" d="M29.9997 58.8064H11.4598L12.0626 59.4032V35.1972L11.4598 35.7941H29.9997L29.3968 35.1972V59.4032C29.3968 59.5615 29.4603 59.7134 29.5734 59.8253C29.6864 59.9372 29.8398 60.0001 29.9997 60.0001C30.1596 60.0001 30.3129 59.9372 30.426 59.8253C30.539 59.7134 30.6025 59.5615 30.6025 59.4032V35.1972C30.6003 35.0396 30.5361 34.889 30.4236 34.7775C30.311 34.6661 30.1589 34.6025 29.9997 34.6003H11.4598C11.3006 34.6026 11.1486 34.6662 11.036 34.7777C10.9235 34.8891 10.8592 35.0396 10.8569 35.1972V59.4032C10.8592 59.5608 10.9235 59.7113 11.036 59.8228C11.1486 59.9342 11.3006 59.9978 11.4598 60.0001H29.9997C30.1596 60.0001 30.3129 59.9372 30.426 59.8253C30.539 59.7134 30.6025 59.5615 30.6025 59.4032C30.6025 59.2449 30.539 59.0931 30.426 58.9812C30.3129 58.8693 30.1596 58.8064 29.9997 58.8064Z" fill="#071546"/>
<path id="Rectangle 42" d="M48.5399 35.197H30V59.4035H48.5399V35.197Z" fill="white"/>
<path id="Path 364" d="M48.5402 58.8064H30.0003L30.6032 59.4032V35.1972L30.0003 35.7941H48.5402L47.9373 35.1972V59.4032C47.9373 59.5615 48.0009 59.7134 48.1139 59.8253C48.227 59.9372 48.3803 60.0001 48.5402 60.0001C48.7001 60.0001 48.8534 59.9372 48.9665 59.8253C49.0795 59.7134 49.1431 59.5615 49.1431 59.4032V35.1972C49.1409 35.0396 49.0767 34.889 48.9641 34.7775C48.8515 34.6661 48.6994 34.6025 48.5402 34.6003H30.0003C29.8411 34.6026 29.6891 34.6662 29.5766 34.7777C29.464 34.8891 29.3997 35.0396 29.3975 35.1972V59.4032C29.3997 59.5608 29.464 59.7113 29.5766 59.8228C29.6891 59.9342 29.8411 59.9978 30.0003 60.0001H48.5402C48.7001 60.0001 48.8534 59.9372 48.9665 59.8253C49.0795 59.7134 49.1431 59.5615 49.1431 59.4032C49.1431 59.2449 49.0795 59.0931 48.9665 58.9812C48.8534 58.8693 48.7001 58.8064 48.5402 58.8064Z" fill="#071546"/>
<path id="Path 365" d="M26.0135 44.2476H7.47363L11.4605 35.1975H30.0004L26.0135 44.2476Z" fill="white"/>
<path id="Path 366" d="M26.0133 43.6508H7.47341L7.99589 44.5489C9.15766 41.9107 10.3199 39.2724 11.4824 36.634L11.9828 35.4988L11.4603 35.7944H30.0002L29.4797 34.8968L25.9932 42.8104L25.4932 43.9456C25.1862 44.6428 26.2243 45.2512 26.5342 44.5481L30.0211 36.6332L30.5211 35.498C30.572 35.4068 30.5984 35.3041 30.5975 35.1998C30.5965 35.0955 30.5684 34.9933 30.5159 34.9029C30.4633 34.8126 30.3881 34.7372 30.2974 34.6841C30.2068 34.631 30.1039 34.602 29.9986 34.5999H11.4603C11.3545 34.5983 11.2501 34.6249 11.1582 34.6769C11.0663 34.729 10.9902 34.8045 10.9378 34.8956L7.45092 42.8104C7.28453 43.1889 7.11787 43.5673 6.95094 43.9456C6.90004 44.0367 6.87372 44.1392 6.87453 44.2433C6.87534 44.3474 6.90328 44.4496 6.9556 44.5399C7.00793 44.6301 7.08288 44.7055 7.17324 44.7588C7.26359 44.812 7.36629 44.8413 7.4714 44.8437H26.0113C26.1712 44.8437 26.3245 44.7808 26.4376 44.6689C26.5506 44.557 26.6141 44.4051 26.6141 44.2468C26.6141 44.0885 26.5506 43.9367 26.4376 43.8248C26.3245 43.7129 26.1712 43.65 26.0113 43.65" fill="#071546"/>
<path id="Path 367" d="M33.9865 44.2476H52.5264L48.5399 35.1968H30L33.9865 44.2476Z" fill="white"/>
<path id="Path 368" d="M33.9866 44.8443H52.5265C52.6318 44.8421 52.7347 44.8131 52.8254 44.76C52.916 44.707 52.9912 44.6316 53.0438 44.5412C53.0963 44.4509 53.1244 44.3486 53.1254 44.2444C53.1263 44.1401 53.0999 44.0374 53.049 43.9462L49.56 36.0306L49.0601 34.8965C49.0079 34.8057 48.9321 34.7303 48.8406 34.6784C48.7491 34.6264 48.6451 34.5996 48.5396 34.6009H29.9997C29.8946 34.6033 29.7919 34.6326 29.7016 34.6858C29.6112 34.739 29.5362 34.8144 29.4839 34.9047C29.4316 34.995 29.4037 35.0971 29.4029 35.2012C29.402 35.3053 29.4284 35.4079 29.4793 35.499L32.9662 43.4118C33.1326 43.7903 33.2992 44.1687 33.4662 44.547C33.7756 45.2493 34.8146 44.6425 34.5071 43.9446C33.3448 41.3064 32.1826 38.6682 31.0206 36.0298L30.5202 34.8965L29.9997 35.7946H48.54L48.0195 35.499C49.1813 38.1376 50.3435 40.7759 51.5061 43.4138C51.6727 43.7923 51.8394 44.1707 52.006 44.549L52.5285 43.6509H33.9886C33.8287 43.6509 33.6754 43.7138 33.5623 43.8257C33.4493 43.9377 33.3858 44.0895 33.3858 44.2478C33.3858 44.4061 33.4493 44.5579 33.5623 44.6698C33.6754 44.7818 33.8287 44.8447 33.9886 44.8447" fill="#071546"/>
</g>
</g>
<defs>
<clipPath id="clip0_922_329">
<rect width="60" height="60" fill="white"/>
</clipPath>
</defs>
</svg>
