<svg xmlns="http://www.w3.org/2000/svg" width="149.289" height="150.801" viewBox="0 0 149.289 150.801">
  <g id="Group_324" data-name="Group 324" transform="translate(-1147.899 -3726)">
    <path id="Path_369" data-name="Path 369" d="M1568.418,74.644A74.644,74.644,0,1,1,1493.774,0a74.644,74.644,0,0,1,74.644,74.644" transform="translate(-271.23 3726)" fill="#ffbd00"/>
    <path id="Path_370" data-name="Path 370" d="M1543.194,128.342H1443.6a6.27,6.27,0,0,1-6.252-6.252V43.443a6.271,6.271,0,0,1,6.252-6.253h99.594a6.272,6.272,0,0,1,6.253,6.253V122.09a6.271,6.271,0,0,1-6.253,6.252" transform="translate(-271.23 3726)" fill="#fff"/>
    <path id="Path_371" data-name="Path 371" d="M1543.194,126.842h-97.465a17.814,17.814,0,0,1-2.9-.059,4.833,4.833,0,0,1-3.977-4.725c-.007-.355,0-.712,0-1.067V54.536c0-3.693-.079-7.4,0-11.086.065-3.071,2.559-4.76,5.387-4.76H1538.5c1.41,0,2.82,0,4.23,0,2.807.008,5.167,1.83,5.221,4.8.071,3.924,0,7.855,0,11.779v65.97c0,.282.006.565,0,.848a4.828,4.828,0,0,1-4.753,4.758c-1.927.053-1.934,3.054,0,3a7.931,7.931,0,0,0,7.753-8.163c.006-1.661,0-3.321,0-4.982V47.157c0-1.225.025-2.452,0-3.677a7.9,7.9,0,0,0-7.9-7.79c-3.694-.055-7.392,0-11.085,0h-87.768a8.042,8.042,0,0,0-7.97,5.383,14.78,14.78,0,0,0-.373,4.69v75.228c0,2.987.837,5.729,3.441,7.528a9.493,9.493,0,0,0,5.716,1.323h98.189a1.5,1.5,0,0,0,0-3" transform="translate(-271.23 3726)" fill="#071546"/>
    <rect id="Rectangle_44" data-name="Rectangle 44" width="23.427" height="18.538" transform="translate(1210.454 3850.181)" fill="#fff"/>
    <path id="Path_372" data-name="Path 372" d="M1505.111,141.219h-23.427l1.5,1.5V124.181l-1.5,1.5h23.427l-1.5-1.5v18.538a1.5,1.5,0,0,0,3,0V124.181a1.522,1.522,0,0,0-1.5-1.5h-23.427a1.522,1.522,0,0,0-1.5,1.5v18.538a1.522,1.522,0,0,0,1.5,1.5h23.427a1.5,1.5,0,0,0,0-3" transform="translate(-271.23 3726)" fill="#071546"/>
    <path id="Path_375" data-name="Path 375" d="M1437.348,123.165v-3.147h112.1v3.147a5.177,5.177,0,0,1-5.177,5.177H1442.525a5.177,5.177,0,0,1-5.177-5.177" transform="translate(-271.23 3726)" fill="#fff"/>
    <path id="Path_376" data-name="Path 376" d="M1438.848,123.165v-3.147l-1.5,1.5H1544.86a34.18,34.18,0,0,0,4.4,0,1.459,1.459,0,0,1,.187,0l-1.5-1.5c0,2.36.46,5.363-2.2,6.523a4.942,4.942,0,0,1-2.057.3h-98.236a16.236,16.236,0,0,1-3.855-.117,3.722,3.722,0,0,1-2.752-3.56c-.062-1.926-3.063-1.934-3,0a6.8,6.8,0,0,0,6.684,6.677c.355.01.712,0,1.067,0h99.761c.3,0,.607.008.91,0a6.8,6.8,0,0,0,6.677-6.774c.026-1.015,0-2.034,0-3.05a1.522,1.522,0,0,0-1.5-1.5h-98.305c-4.522,0-9.088-.186-13.607,0-.062,0-.125,0-.187,0a1.522,1.522,0,0,0-1.5,1.5v3.147a1.5,1.5,0,0,0,3,0" transform="translate(-271.23 3726)" fill="#071546"/>
    <rect id="Rectangle_45" data-name="Rectangle 45" width="89.83" height="54.469" transform="translate(1176.42 3772.952)" fill="#fff"/>
    <path id="Path_377" data-name="Path 377" d="M1537.48,99.921h-86.173a23.407,23.407,0,0,0-3.5,0,.988.988,0,0,1-.154,0l1.5,1.5V46.952l-1.5,1.5h86.173a23.407,23.407,0,0,0,3.5,0,.989.989,0,0,1,.154,0l-1.5-1.5v54.469a1.5,1.5,0,0,0,3,0V46.952a1.522,1.522,0,0,0-1.5-1.5h-78.713c-3.64,0-7.326-.17-10.963,0-.051,0-.1,0-.154,0a1.522,1.522,0,0,0-1.5,1.5v54.469a1.522,1.522,0,0,0,1.5,1.5h78.713c3.64,0,7.326.17,10.963,0,.051,0,.1,0,.154,0a1.5,1.5,0,0,0,0-3" transform="translate(-271.23 3726)" fill="#071546"/>
    <path id="Path_378" data-name="Path 378" d="M1456.662,53.428a1.926,1.926,0,1,1-1.926-1.926,1.926,1.926,0,0,1,1.926,1.926" transform="translate(-271.23 3726)" fill="#fff"/>
    <path id="Path_379" data-name="Path 379" d="M1455.162,53.428a2.374,2.374,0,0,1-.018.266c.018-.133.036-.266.053-.4a2.089,2.089,0,0,1-.138.5c.051-.12.1-.239.151-.359a2.112,2.112,0,0,1-.257.432l.234-.3a2.174,2.174,0,0,1-.318.318l.3-.234a2.116,2.116,0,0,1-.432.257l.359-.151a2.089,2.089,0,0,1-.5.138l.4-.053a2.152,2.152,0,0,1-.532,0l.4.053a2.089,2.089,0,0,1-.5-.138l.359.151a2.112,2.112,0,0,1-.432-.257l.3.234a2.168,2.168,0,0,1-.318-.318l.234.3a2.168,2.168,0,0,1-.258-.432l.152.359a2.089,2.089,0,0,1-.138-.5c.017.133.035.266.053.4a2.155,2.155,0,0,1,0-.532c-.018.133-.036.266-.053.4a2.089,2.089,0,0,1,.138-.5l-.152.359a2.168,2.168,0,0,1,.258-.432l-.234.3a2.168,2.168,0,0,1,.318-.318l-.3.234a2.112,2.112,0,0,1,.432-.257l-.359.151a2.089,2.089,0,0,1,.5-.138l-.4.053a2.152,2.152,0,0,1,.532,0l-.4-.053a2.089,2.089,0,0,1,.5.138l-.359-.151a2.116,2.116,0,0,1,.432.257l-.3-.234a2.174,2.174,0,0,1,.318.318l-.234-.3a2.113,2.113,0,0,1,.257.432l-.151-.359a2.089,2.089,0,0,1,.138.5c-.017-.133-.035-.266-.053-.4a2.374,2.374,0,0,1,.018.266,1.559,1.559,0,0,0,.439,1.061,1.5,1.5,0,0,0,2.561-1.061,3.374,3.374,0,0,0-.574-1.89,3.663,3.663,0,0,0-1.763-1.355,3.4,3.4,0,0,0-3.646.971,3.9,3.9,0,0,0-.659,1.114,3.384,3.384,0,0,0-.2.973,3.311,3.311,0,0,0,.467,1.931,3.348,3.348,0,0,0,1.408,1.311,3.9,3.9,0,0,0,1.276.353,3.419,3.419,0,0,0,1.008-.066,3.093,3.093,0,0,0,1-.392,3.227,3.227,0,0,0,.8-.657,3.565,3.565,0,0,0,.885-2.293,1.5,1.5,0,0,0-3,0" transform="translate(-271.23 3726)" fill="#071546"/>
    <path id="Path_380" data-name="Path 380" d="M1465.056,53.428a1.926,1.926,0,1,1-1.926-1.926,1.926,1.926,0,0,1,1.926,1.926" transform="translate(-271.23 3726)" fill="#fff"/>
    <path id="Path_381" data-name="Path 381" d="M1463.556,53.428a2.374,2.374,0,0,1-.018.266l.054-.4a2.144,2.144,0,0,1-.139.5c.051-.12.1-.239.151-.359a2.118,2.118,0,0,1-.257.432l.234-.3a2.175,2.175,0,0,1-.318.318l.3-.234a2.119,2.119,0,0,1-.432.257l.359-.151a2.09,2.09,0,0,1-.5.138l.4-.053a2.152,2.152,0,0,1-.532,0l.4.053a2.1,2.1,0,0,1-.5-.138l.359.151a2.116,2.116,0,0,1-.432-.257l.3.234a2.18,2.18,0,0,1-.318-.318l.234.3a2.118,2.118,0,0,1-.257-.432c.05.12.1.239.151.359a2.089,2.089,0,0,1-.138-.5q.026.2.053.4a2.143,2.143,0,0,1,0-.532q-.027.2-.053.4a2.089,2.089,0,0,1,.138-.5c-.051.12-.1.239-.151.359a2.118,2.118,0,0,1,.257-.432l-.234.3a2.18,2.18,0,0,1,.318-.318l-.3.234a2.116,2.116,0,0,1,.432-.257l-.359.151a2.089,2.089,0,0,1,.5-.138l-.4.053a2.152,2.152,0,0,1,.532,0l-.4-.053a2.09,2.09,0,0,1,.5.138l-.359-.151a2.119,2.119,0,0,1,.432.257l-.3-.234a2.175,2.175,0,0,1,.318.318l-.234-.3a2.118,2.118,0,0,1,.257.432c-.05-.12-.1-.239-.151-.359a2.144,2.144,0,0,1,.139.5l-.054-.4a2.374,2.374,0,0,1,.018.266,1.558,1.558,0,0,0,.439,1.061,1.5,1.5,0,0,0,2.561-1.061,3.382,3.382,0,0,0-.573-1.89,3.67,3.67,0,0,0-1.764-1.355,3.4,3.4,0,0,0-3.646.971,3.9,3.9,0,0,0-.659,1.114,3.387,3.387,0,0,0-.2.973,3.311,3.311,0,0,0,.467,1.931,3.352,3.352,0,0,0,1.408,1.311,3.894,3.894,0,0,0,1.276.353,3.418,3.418,0,0,0,1.008-.066,3.093,3.093,0,0,0,1-.392,3.229,3.229,0,0,0,.8-.657,3.567,3.567,0,0,0,.885-2.293,1.5,1.5,0,0,0-3,0" transform="translate(-271.23 3726)" fill="#071546"/>
    <path id="Path_382" data-name="Path 382" d="M1473.45,53.428a1.926,1.926,0,1,1-1.926-1.926,1.926,1.926,0,0,1,1.926,1.926" transform="translate(-271.23 3726)" fill="#fff"/>
    <path id="Path_383" data-name="Path 383" d="M1471.95,53.428a2.631,2.631,0,0,1-.018.266c.018-.133.036-.266.052-.4a2.092,2.092,0,0,1-.137.5c.051-.12.1-.239.151-.359a2.123,2.123,0,0,1-.258.432l.234-.3a2.077,2.077,0,0,1-.318.318l.3-.234a2.086,2.086,0,0,1-.432.257l.359-.151a2.082,2.082,0,0,1-.495.138l.4-.053a2.152,2.152,0,0,1-.532,0l.4.053a2.082,2.082,0,0,1-.495-.138l.359.151a2.116,2.116,0,0,1-.432-.257l.3.234a2.127,2.127,0,0,1-.318-.318l.234.3a2.123,2.123,0,0,1-.258-.432c.05.12.1.239.152.359a2.089,2.089,0,0,1-.138-.5c.016.133.035.266.052.4a2.255,2.255,0,0,1,0-.532c-.017.133-.036.266-.052.4a2.089,2.089,0,0,1,.138-.5l-.152.359a2.123,2.123,0,0,1,.258-.432l-.234.3a2.127,2.127,0,0,1,.318-.318l-.3.234a2.116,2.116,0,0,1,.432-.257l-.359.151a2.082,2.082,0,0,1,.495-.138l-.4.053a2.152,2.152,0,0,1,.532,0l-.4-.053a2.082,2.082,0,0,1,.495.138l-.359-.151a2.087,2.087,0,0,1,.432.257l-.3-.234a2.077,2.077,0,0,1,.318.318l-.234-.3a2.123,2.123,0,0,1,.258.432l-.151-.359a2.092,2.092,0,0,1,.137.5c-.016-.133-.034-.266-.052-.4a2.631,2.631,0,0,1,.018.266,1.554,1.554,0,0,0,.439,1.061,1.5,1.5,0,0,0,2.561-1.061,3.374,3.374,0,0,0-.575-1.89,3.665,3.665,0,0,0-1.762-1.355,3.4,3.4,0,0,0-3.646.971,3.924,3.924,0,0,0-.66,1.114,3.419,3.419,0,0,0-.2.973,3.309,3.309,0,0,0,.466,1.931,3.356,3.356,0,0,0,1.409,1.311,3.894,3.894,0,0,0,1.276.353,3.418,3.418,0,0,0,1.008-.066,3.093,3.093,0,0,0,1-.392,3.245,3.245,0,0,0,.8-.657,3.565,3.565,0,0,0,.885-2.293,1.5,1.5,0,0,0-3,0" transform="translate(-271.23 3726)" fill="#071546"/>
    <line id="Line_8" data-name="Line 8" x2="89.83" transform="translate(1176.42 3786.127)" fill="#fff"/>
    <path id="Path_384" data-name="Path 384" d="M1447.65,61.627h78.713c3.64,0,7.326.17,10.963,0,.051,0,.1,0,.154,0a1.5,1.5,0,0,0,0-3h-78.713c-3.64,0-7.326-.17-10.963,0-.051,0-.1,0-.154,0a1.5,1.5,0,0,0,0,3" transform="translate(-271.23 3726)" fill="#071546"/>
    <path id="Path_385" data-name="Path 385" d="M1505.725,86.184h-26.319a2.3,2.3,0,0,1-2.3-2.3V76.14a2.3,2.3,0,0,1,2.3-2.3h26.319a2.3,2.3,0,0,1,2.3,2.3v7.742a2.3,2.3,0,0,1-2.3,2.3" transform="translate(-271.23 3726)" fill="#fff" fill-rule="evenodd"/>
    <path id="Path_386" data-name="Path 386" d="M1505.725,84.684h-23.518c-.811,0-1.626.026-2.437,0-.717-.023-1.127-.245-1.167-1.047-.069-1.406,0-2.834,0-4.242a20.45,20.45,0,0,1,0-3.255c.232-1.37,3.493-.8,4.456-.8h22.083c.756,0,1.3.091,1.385,1,.144,1.56,0,3.2,0,4.768,0,.82.474,3.481-.8,3.575-1.914.14-1.929,3.142,0,3a3.974,3.974,0,0,0,3.8-4.266c.019-1.657,0-3.316,0-4.973,0-1.427.206-3.045-.575-4.316a4.107,4.107,0,0,0-3.732-1.792h-19.139c-2.183,0-4.382-.079-6.564,0a3.9,3.9,0,0,0-3.914,3.813c-.062,1.321,0,2.661,0,3.984,0,1.244-.06,2.5,0,3.748a3.9,3.9,0,0,0,3.953,3.8c2.244.069,4.5,0,6.747,0h19.422a1.5,1.5,0,0,0,0-3" transform="translate(-271.23 3726)" fill="#071546"/>
    <path id="Path_387" data-name="Path 387" d="M1513.674,112.656l-7.152-9.951a1.072,1.072,0,0,1,.245-1.5l2.927-2.1a1.071,1.071,0,0,1,1.5.245l7.152,9.951a1.071,1.071,0,0,1-.245,1.5l-2.927,2.1a1.072,1.072,0,0,1-1.5-.245" transform="translate(-271.23 3726)" fill="#fff" fill-rule="evenodd"/>
    <path id="Path_388" data-name="Path 388" d="M1514.969,111.9q-1.928-2.682-3.856-5.365l-2.489-3.464a7.052,7.052,0,0,0-.682-.948,1.589,1.589,0,0,0-.12-.168c-.069.021.056.064-.022.261-.026.066-.38.373-.194.23.5-.386,1.032-.741,1.546-1.111a8.8,8.8,0,0,0,1.294-.93c.035.158-.547-.311-.527-.264a1.6,1.6,0,0,0,.194.27l.753,1.048,5.152,7.169.853,1.187c.017.024.139.231.165.229-.168.01.443-.652.222-.482-.59.453-1.211.87-1.815,1.3a6.207,6.207,0,0,0-.852.613c-.018.018-.166.094-.165.118-.009-.151.694.446.309,0a1.515,1.515,0,0,0-2.122,0,1.531,1.531,0,0,0,0,2.122,2.6,2.6,0,0,0,3.492.351c.649-.449,1.283-.922,1.925-1.383a4.257,4.257,0,0,0,1.867-1.924,2.655,2.655,0,0,0-.4-2.407c-1.707-2.436-3.473-4.832-5.209-7.247-.595-.829-1.181-1.667-1.788-2.488a2.628,2.628,0,0,0-3.57-.807c-.5.317-.977.7-1.46,1.05s-.982.694-1.464,1.052a2.621,2.621,0,0,0-.754,3.589c.565.885,1.236,1.719,1.849,2.572l5.274,7.338a1.542,1.542,0,0,0,2.052.538,1.512,1.512,0,0,0,.538-2.052" transform="translate(-271.23 3726)" fill="#071546"/>
    <path id="Path_389" data-name="Path 389" d="M1517.9,97.609l-14.388,10.34a1.792,1.792,0,0,1-2.779-1l-6.394-24.077a1.793,1.793,0,0,1,2.722-1.956l20.781,13.737a1.793,1.793,0,0,1,.058,2.952" transform="translate(-271.23 3726)" fill="#fff"/>
    <path id="Path_390" data-name="Path 390" d="M1517.142,96.313l-12.541,9.013a15.868,15.868,0,0,1-1.788,1.285c-.571.3-.62-.022-.751-.5-.593-2.146-1.143-4.3-1.714-6.456l-4.407-16.593c-.113-.426-.365-1.077.361-.852a5.384,5.384,0,0,1,1.108.732l6.609,4.368,9.09,6.009,3.1,2.052c.573.378,1.3.592.625,1.172-1.471,1.254.66,3.368,2.122,2.121a3.332,3.332,0,0,0-.4-5.337c-.565-.4-1.157-.764-1.734-1.146l-8.2-5.418-8.51-5.626c-1.938-1.28-4.307-3.231-6.457-.965-1.672,1.762-.367,4.6.164,6.592q1.356,5.112,2.715,10.224,1.173,4.418,2.345,8.834c.135.5.245,1.026.406,1.524a3.336,3.336,0,0,0,5.041,1.85c2.567-1.618,4.975-3.575,7.438-5.345l6.891-4.953c1.554-1.116.058-3.72-1.514-2.59" transform="translate(-271.23 3726)" fill="#071546"/>
    <path id="Path_373" data-name="Path 373" d="M1468.274,147.209v-4.165a2.08,2.08,0,0,1,2.08-2.08h44.423a2.081,2.081,0,0,1,2.08,2.08v4.165a2.08,2.08,0,0,1-2.08,2.08h-44.423a2.08,2.08,0,0,1-2.08-2.08" transform="translate(-269.375 3726)" fill="#fff"/>
    <path id="Path_374" data-name="Path 374" d="M1469.774,147.209v-2.7c0-.692-.27-1.838.581-2.046a7.02,7.02,0,0,1,1.506,0h41.1a8.784,8.784,0,0,1,1.8,0c.752.173.6.859.6,1.482a25.207,25.207,0,0,1,0,3.1c-.115.9-.771.746-1.474.746h-36.162a66.393,66.393,0,0,1-7.166,0c-.378-.042-.74-.073-.781-.58-.154-1.911-3.156-1.928-3,0a3.764,3.764,0,0,0,4.039,3.58c1.086.01,2.173,0,3.259,0h39.149a14.06,14.06,0,0,0,2.093-.054c3.428-.522,3.043-4.11,3.043-6.684a4.569,4.569,0,0,0-1.049-3.538,3.829,3.829,0,0,0-2.648-1.049c-.835-.03-1.677,0-2.512,0H1472.8c-.79,0-1.587-.031-2.377,0a3.7,3.7,0,0,0-2.923,1.443,5.4,5.4,0,0,0-.723,3.486v2.816a1.5,1.5,0,0,0,3,0" transform="translate(-269.869 3726)" fill="#071546"/>
  </g>
</svg>
