<svg width="60" height="61" viewBox="0 0 60 61" fill="none" xmlns="http://www.w3.org/2000/svg">
    <g clip-path="url(#clip0_3067_436)">
        <mask id="mask0_3067_436" style="mask-type:luminance" maskUnits="userSpaceOnUse" x="0" y="0" width="60" height="61">
            <path d="M60 0H0V60.6029H60V0Z" fill="white"/>
        </mask>
        <g mask="url(#mask0_3067_436)">
            <path d="M60 30.0002C60 35.9337 58.2406 41.7339 54.9441 46.6675C51.6476 51.601 46.9622 55.4462 41.4803 57.7168C35.9985 59.9874 29.9664 60.5815 24.147 59.4239C18.3275 58.2663 12.9819 55.409 8.78636 51.2134C4.59077 47.0178 1.73356 41.6722 0.576044 35.8527C-0.581475 30.0332 0.0126862 24.0012 2.28339 18.5193C4.5541 13.0375 8.39936 8.35217 13.3329 5.05575C18.2665 1.75933 24.0668 -7.94868e-05 30.0002 2.69336e-09C37.9567 2.69336e-09 45.5873 3.16068 51.2133 8.78674C56.8394 14.4128 60 22.0438 60 30.0002Z" fill="#FFBD00"/>
            <path d="M46.6954 14.5112H32.916C29.1281 14.5112 26.0571 17.9101 26.0571 22.1028V29.3307C26.0571 33.5233 29.1281 36.9219 32.916 36.9219H42.1136C42.1136 37.4765 42.3488 41.7765 49.4026 41.7765C49.4026 41.7765 46.7673 40.83 46.7408 36.9206C50.5082 36.8941 53.5551 33.5065 53.5551 29.3307V22.1028C53.5551 17.9101 50.4841 14.5112 46.6966 14.5112" fill="white"/>
            <path d="M46.6954 13.9083H33.2979C31.3341 13.8573 29.4301 14.5858 28.002 15.9347C26.242 17.6227 25.4535 19.9734 25.4535 22.3712V27.6325C25.4535 29.5564 25.4728 31.3972 26.33 33.1848C26.9053 34.4292 27.8111 35.4918 28.9487 36.2568C30.0862 37.0219 31.412 37.46 32.7814 37.5234C35.7812 37.5909 38.7891 37.5234 41.7897 37.5234H42.1112L41.5084 36.9205C41.5196 39.26 43.3363 41.0473 45.4286 41.7912C46.7104 42.2074 48.0528 42.4058 49.4002 42.378C49.5434 42.3734 49.6803 42.3182 49.7867 42.2223C49.8931 42.1263 49.962 41.9957 49.9813 41.8538C50.0006 41.7118 49.9689 41.5676 49.892 41.4467C49.815 41.3259 49.6978 41.2362 49.561 41.1936C49.4492 41.1534 49.7105 41.2708 49.5887 41.2049C49.4934 41.1534 49.3966 41.1076 49.3033 41.0517C49.0157 40.8814 48.7562 40.6674 48.5341 40.4175C47.6575 39.4743 47.3625 38.1733 47.342 36.9209L46.7392 37.5238C47.9932 37.4853 49.2169 37.1296 50.2962 36.49C51.3755 35.8505 52.2752 34.9479 52.9112 33.8665C53.9192 32.2074 54.1571 30.386 54.1571 28.489V23.386C54.1571 21.6248 54.0768 19.9449 53.3091 18.3099C52.7301 17.0302 51.803 15.9389 50.6337 15.1607C49.4644 14.3824 48.0995 13.9484 46.6954 13.9083C46.5355 13.9083 46.3826 13.9718 46.2695 14.0848C46.1564 14.1979 46.0929 14.3512 46.0929 14.5111C46.0929 14.671 46.1564 14.8244 46.2695 14.9374C46.3826 15.0505 46.5359 15.114 46.6958 15.114C47.7984 15.1465 48.8726 15.4713 49.8085 16.0552C50.7444 16.6392 51.5084 17.4612 52.0222 18.4373C52.826 19.8878 52.9514 21.4356 52.9514 23.05V27.8029C52.9514 29.2542 52.978 30.6565 52.4623 32.0491C51.5701 34.4569 49.3496 36.2715 46.74 36.3177C46.5808 36.3201 46.4289 36.3844 46.3163 36.4969C46.2038 36.6094 46.1395 36.7614 46.1371 36.9205C46.1721 39.0378 47.0708 41.563 49.2418 42.3575L49.4026 41.1735C47.3529 41.1635 44.9182 40.8367 43.5392 39.1306C43.2129 38.7257 42.9754 38.2567 42.8419 37.7541C42.8102 37.6388 42.7852 37.5226 42.7615 37.4056C42.7531 37.3655 42.7475 37.3273 42.7406 37.2887C42.7109 37.1163 42.7479 37.3739 42.7386 37.2734C42.727 37.1561 42.7169 37.0395 42.7165 36.9218C42.714 36.7626 42.6497 36.6107 42.5372 36.4982C42.4247 36.3857 42.2728 36.3214 42.1137 36.3189H33.3923C32.7642 36.3403 32.136 36.2817 31.5227 36.1445C30.3084 35.8194 29.2217 35.1325 28.4071 34.1751C27.5293 33.1415 26.9563 31.8841 26.752 30.5435C26.6702 29.9052 26.6398 29.2612 26.6612 28.618V23.2702C26.6612 22.7594 26.648 22.2458 26.6697 21.7354C26.7269 20.3771 27.1523 19.06 27.9003 17.9249C28.4587 17.0641 29.2232 16.3563 30.1244 15.8657C31.0256 15.3751 32.0351 15.1173 33.0612 15.1156C34.3038 15.1137 35.5463 15.1137 36.7884 15.1156H46.6954C46.8553 15.1156 47.0086 15.0521 47.1217 14.939C47.2347 14.826 47.2982 14.6726 47.2982 14.5127C47.2982 14.3528 47.2347 14.1995 47.1217 14.0865C47.0086 13.9734 46.8553 13.9099 46.6954 13.9099" fill="#071546"/>
            <path d="M29.9661 22.7683H49.4887C49.6486 22.7683 49.8019 22.7048 49.915 22.5918C50.028 22.4787 50.0915 22.3254 50.0915 22.1655C50.0915 22.0056 50.028 21.8523 49.915 21.7392C49.8019 21.6261 49.6486 21.5626 49.4887 21.5626H29.9661C29.8063 21.5626 29.6529 21.6261 29.5399 21.7392C29.4268 21.8523 29.3633 22.0056 29.3633 22.1655C29.3633 22.3254 29.4268 22.4787 29.5399 22.5918C29.6529 22.7048 29.8063 22.7683 29.9661 22.7683Z" fill="#071546"/>
            <path d="M29.9661 26.5053H49.4887C49.6486 26.5053 49.8019 26.4418 49.915 26.3287C50.028 26.2156 50.0915 26.0623 50.0915 25.9024C50.0915 25.7425 50.028 25.5892 49.915 25.4761C49.8019 25.3631 49.6486 25.2996 49.4887 25.2996H29.9661C29.8063 25.2996 29.6529 25.3631 29.5399 25.4761C29.4268 25.5892 29.3633 25.7425 29.3633 25.9024C29.3633 26.0623 29.4268 26.2156 29.5399 26.3287C29.6529 26.4418 29.8063 26.5053 29.9661 26.5053Z" fill="#071546"/>
            <path d="M29.9661 30.2421H45.5866C45.7465 30.2421 45.8998 30.1786 46.0129 30.0655C46.1259 29.9525 46.1894 29.7991 46.1894 29.6392C46.1894 29.4793 46.1259 29.326 46.0129 29.2129C45.8998 29.0999 45.7465 29.0364 45.5866 29.0364H29.9661C29.8063 29.0364 29.6529 29.0999 29.5399 29.2129C29.4268 29.326 29.3633 29.4793 29.3633 29.6392C29.3633 29.7991 29.4268 29.9525 29.5399 30.0655C29.6529 30.1786 29.8063 30.2421 29.9661 30.2421Z" fill="#071546"/>
            <path d="M15.0136 25.9417H32.2268C36.9589 25.9417 40.7946 30.1874 40.7946 35.4267V44.4551C40.7946 49.6923 36.9589 53.94 32.2268 53.94H20.7384C20.7384 54.6329 20.4446 60.004 11.6328 60.004C11.6328 60.004 14.9244 58.822 14.9574 53.9384C10.2515 53.9051 6.44543 49.6738 6.44543 44.4571V35.4247C6.44543 30.1874 10.2812 25.9397 15.0132 25.9397" fill="white"/>
            <path d="M15.0136 26.5446H31.4484C31.8844 26.5446 32.3237 26.533 32.7586 26.5627C34.3522 26.6875 35.8634 27.3216 37.069 28.3713C39.2393 30.2482 40.1918 32.9598 40.1918 35.7744V42.1558C40.1918 44.3414 40.2686 46.4912 39.3076 48.5308C37.9954 51.312 35.338 53.3135 32.2047 53.3324C28.5072 53.3557 24.8097 53.3324 21.1122 53.3324H20.7384C20.5792 53.3347 20.4272 53.3989 20.3146 53.5115C20.2021 53.624 20.1378 53.7761 20.1355 53.9352C20.1355 54.0385 20.1295 54.1414 20.1207 54.2443C20.117 54.2869 20.0905 54.5047 20.1042 54.4051C20.1162 54.3183 20.0752 54.5735 20.064 54.6305C19.9755 55.0919 19.8221 55.5385 19.6082 55.9568C18.8502 57.3004 17.604 58.3005 16.1281 58.7497C14.675 59.2092 13.1566 59.4281 11.6328 59.3975C11.6864 59.7922 11.74 60.1869 11.7936 60.5815C14.4365 59.617 15.5241 56.5014 15.561 53.9348C15.5587 53.7757 15.4944 53.6237 15.3818 53.5112C15.2693 53.3986 15.1173 53.3344 14.9582 53.332C13.5509 53.2804 12.1827 52.8556 10.9936 52.101C9.80463 51.3465 8.83762 50.2894 8.19171 49.038C7.45879 47.6732 7.06717 46.1513 7.0503 44.6022C7.04307 44.1376 7.0503 43.6726 7.0503 43.208V37.2088C7.0503 35.3435 7.03865 33.539 7.75203 31.7658C8.95172 28.7856 11.7466 26.5723 15.0153 26.5446C15.1751 26.5446 15.3285 26.4811 15.4415 26.368C15.5546 26.255 15.6181 26.1016 15.6181 25.9417C15.6181 25.7819 15.5546 25.6285 15.4415 25.5155C15.3285 25.4024 15.1751 25.3389 15.0153 25.3389C13.4737 25.3755 11.9668 25.8032 10.6358 26.5818C9.30482 27.3603 8.19346 28.4643 7.40599 29.79C6.14923 31.8309 5.84298 34.0839 5.84298 36.4287V42.7502C5.84298 43.3129 5.83977 43.8792 5.84298 44.4438C5.84686 45.9825 6.16911 47.5037 6.78947 48.9118C8.22668 52.1564 11.3652 54.4806 14.9578 54.5385L14.3549 53.9356C14.3316 55.5384 13.9462 57.1983 12.8277 58.4036C12.5428 58.724 12.2108 58.9991 11.843 59.2195C11.7293 59.2882 11.6115 59.3453 11.495 59.4084C11.3101 59.5081 11.5906 59.3766 11.4721 59.4196C11.3353 59.4622 11.218 59.5519 11.1411 59.6728C11.0641 59.7936 11.0325 59.9378 11.0517 60.0798C11.071 60.2218 11.1399 60.3523 11.2463 60.4483C11.3527 60.5443 11.4896 60.5994 11.6328 60.604C15.4417 60.5888 20.1805 59.3947 21.1845 55.1446C21.2819 54.7498 21.3344 54.3454 21.3412 53.9389L20.7384 54.5417H31.876C33.2261 54.5641 34.5642 54.2836 35.7917 53.7209C37.0192 53.1582 38.105 52.3275 38.9692 51.2899C40.0835 49.9459 40.8442 48.3447 41.1821 46.6318C41.3489 45.6644 41.4211 44.683 41.3975 43.7015V36.8547C41.3975 36.1835 41.418 35.5071 41.3814 34.8363C41.2915 33.0289 40.7473 31.2734 39.7991 29.7321C39.0043 28.4161 37.8889 27.323 36.5573 26.5548C35.2256 25.7865 33.721 25.3682 32.1838 25.3389C30.7599 25.33 29.3359 25.3389 27.9124 25.3389H15.0136C14.8538 25.3389 14.7004 25.4024 14.5874 25.5155C14.4743 25.6285 14.4108 25.7819 14.4108 25.9417C14.4108 26.1016 14.4743 26.255 14.5874 26.368C14.7004 26.4811 14.8538 26.5446 15.0136 26.5446Z" fill="#071546"/>
            <path d="M35.9107 34.9003H11.5239C11.364 34.9003 11.2107 34.9638 11.0976 35.0768C10.9845 35.1899 10.921 35.3432 10.921 35.5031C10.921 35.663 10.9845 35.8164 11.0976 35.9294C11.2107 36.0425 11.364 36.106 11.5239 36.106H35.9107C36.0706 36.106 36.2239 36.0425 36.337 35.9294C36.45 35.8164 36.5135 35.663 36.5135 35.5031C36.5135 35.3432 36.45 35.1899 36.337 35.0768C36.2239 34.9638 36.0706 34.9003 35.9107 34.9003Z" fill="#071546"/>
            <path d="M35.9107 39.5684H11.5239C11.364 39.5684 11.2107 39.6319 11.0976 39.7449C10.9845 39.858 10.921 40.0113 10.921 40.1712C10.921 40.3311 10.9845 40.4844 11.0976 40.5975C11.2107 40.7106 11.364 40.7741 11.5239 40.7741H35.9107C36.0706 40.7741 36.2239 40.7106 36.337 40.5975C36.45 40.4844 36.5135 40.3311 36.5135 40.1712C36.5135 40.0113 36.45 39.858 36.337 39.7449C36.2239 39.6319 36.0706 39.5684 35.9107 39.5684Z" fill="#071546"/>
            <path d="M31.0363 44.2361H11.5242C11.3644 44.2361 11.211 44.2996 11.098 44.4127C10.9849 44.5257 10.9214 44.6791 10.9214 44.8389C10.9214 44.9988 10.9849 45.1522 11.098 45.2652C11.211 45.3783 11.3644 45.4418 11.5242 45.4418H31.0363C31.1962 45.4418 31.3496 45.3783 31.4626 45.2652C31.5757 45.1522 31.6392 44.9988 31.6392 44.8389C31.6392 44.6791 31.5757 44.5257 31.4626 44.4127C31.3496 44.2996 31.1962 44.2361 31.0363 44.2361Z" fill="#071546"/>
        </g>
    </g>
    <defs>
        <clipPath id="clip0_3067_436">
            <rect width="60" height="60.6029" fill="white"/>
        </clipPath>
    </defs>
</svg>
