<svg xmlns="http://www.w3.org/2000/svg" width="149.289" height="150.788" viewBox="0 0 149.289 150.788">
  <g id="Group_522" data-name="Group 522" transform="translate(-693.899 -3726)">
    <path id="Path_359" data-name="Path 359" d="M947.114,74.644A74.645,74.645,0,1,1,872.47,0a74.644,74.644,0,0,1,74.644,74.644" transform="translate(-103.926 3726)" fill="#ffbd00"/>
    <path id="Path_360" data-name="Path 360" d="M904.527,63.508h-3.209a29.784,29.784,0,0,0-2.671-6.44l2.271-2.271a2.435,2.435,0,0,0,0-3.445L892.8,43.234a2.435,2.435,0,0,0-3.445,0l-2.272,2.271a29.849,29.849,0,0,0-6.439-2.671V39.625a2.436,2.436,0,0,0-2.436-2.435h-11.48a2.436,2.436,0,0,0-2.436,2.435v3.209a29.848,29.848,0,0,0-6.439,2.671l-2.272-2.271a2.435,2.435,0,0,0-3.445,0l-8.118,8.118a2.437,2.437,0,0,0,0,3.445l2.272,2.271a29.784,29.784,0,0,0-2.671,6.44h-3.209a2.435,2.435,0,0,0-2.436,2.435V77.424a2.436,2.436,0,0,0,2.436,2.435h3.209a29.784,29.784,0,0,0,2.671,6.44l-2.272,2.271a2.438,2.438,0,0,0,0,3.446l8.118,8.117a2.436,2.436,0,0,0,3.445,0l2.272-2.273a29.7,29.7,0,0,0,6.439,2.672v3.208a2.437,2.437,0,0,0,2.436,2.437h11.48a2.437,2.437,0,0,0,2.436-2.437v-3.208a29.7,29.7,0,0,0,6.439-2.672l2.272,2.273a2.437,2.437,0,0,0,3.445,0l8.117-8.117a2.436,2.436,0,0,0,0-3.446L898.647,86.3a29.784,29.784,0,0,0,2.671-6.44h3.209a2.436,2.436,0,0,0,2.436-2.435V65.943a2.435,2.435,0,0,0-2.436-2.435M872.469,83.553a11.87,11.87,0,1,1,11.87-11.87,11.87,11.87,0,0,1-11.87,11.87" transform="translate(-103.926 3726)" fill="#fff"/>
    <path id="Path_361" data-name="Path 361" d="M904.527,62.007h-3.209l1.447,1.1a33.523,33.523,0,0,0-2.823-6.8l-.234,1.817c1.357-1.357,3.35-2.793,3.418-4.885.064-1.977-1.325-3.131-2.585-4.391q-2.327-2.327-4.652-4.652c-1.066-1.067-2.229-2.609-3.74-3.026-2.718-.752-4.44,1.585-6.125,3.271l1.818-.235a33.556,33.556,0,0,0-6.8-2.823l1.1,1.447c0-1.89.375-4.211-.947-5.758s-3.2-1.387-5.023-1.387H869.6c-1.526,0-3.484-.276-4.853.537-2.384,1.417-1.95,4.25-1.95,6.608q.55-.723,1.1-1.447a33.509,33.509,0,0,0-6.8,2.823l1.818.235c-1.358-1.358-2.794-3.351-4.885-3.419-1.978-.064-3.132,1.325-4.392,2.585q-2.325,2.326-4.652,4.652c-1.066,1.067-2.608,2.229-3.026,3.74-.752,2.718,1.585,4.44,3.271,6.125q-.117-.909-.235-1.817a33.523,33.523,0,0,0-2.822,6.8l1.446-1.1c-1.889,0-4.211-.374-5.758.947s-1.387,3.2-1.387,5.023v6.579c0,1.526-.276,3.484.538,4.853,1.417,2.384,4.25,1.95,6.607,1.95l-1.446-1.1a33.523,33.523,0,0,0,2.822,6.8q.119-.909.235-1.818c-1.357,1.358-3.351,2.794-3.419,4.886-.064,1.977,1.325,3.131,2.585,4.391l4.653,4.652c1.066,1.066,2.229,2.608,3.739,3.026,2.719.752,4.44-1.585,6.126-3.271l-1.818.235a33.505,33.505,0,0,0,6.8,2.822l-1.1-1.446c0,1.889-.374,4.211.947,5.758s3.2,1.387,5.023,1.387h6.58c1.526,0,3.484.276,4.853-.538,2.384-1.417,1.949-4.249,1.949-6.607l-1.1,1.446a33.521,33.521,0,0,0,6.8-2.822l-1.817-.235c1.357,1.358,2.793,3.351,4.885,3.419,1.977.064,3.131-1.325,4.391-2.585l4.652-4.652c1.067-1.067,2.609-2.229,3.026-3.74.752-2.718-1.585-4.44-3.27-6.126l.234,1.818a33.523,33.523,0,0,0,2.823-6.8l-1.447,1.1c2.24,0,4.966.435,6.433-1.691,1.056-1.53.712-3.8.712-5.56V67.09a9.881,9.881,0,0,0-.076-1.876,4.016,4.016,0,0,0-3.86-3.207c-1.927-.13-1.919,2.871,0,3,1.334.09.936,2.184.936,3.068v6.033a16.33,16.33,0,0,1-.017,3.439c-.314,1.356-3.091.812-4.128.812a1.532,1.532,0,0,0-1.446,1.1,29.811,29.811,0,0,1-2.52,6.081,1.538,1.538,0,0,0,.234,1.818l1.917,1.917c.594.594.818,1.1.233,1.8-1.176,1.4-2.643,2.643-3.937,3.937a54.158,54.158,0,0,1-3.937,3.937c-.7.568-1.206.361-1.8-.233L888.145,96.8a1.536,1.536,0,0,0-1.818-.235,29.789,29.789,0,0,1-6.081,2.521,1.532,1.532,0,0,0-1.1,1.446c0,1.169.586,3.98-1.047,4.145-1.835.185-3.787,0-5.629,0s-3.765.163-5.6,0c-1.674-.15-1.078-2.951-1.078-4.145a1.531,1.531,0,0,0-1.1-1.446,29.811,29.811,0,0,1-6.081-2.521,1.538,1.538,0,0,0-1.818.235l-1.916,1.917c-.6.594-1.1.818-1.8.233-1.4-1.176-2.643-2.643-3.937-3.937a54.37,54.37,0,0,1-3.937-3.937c-.568-.7-.36-1.207.233-1.8l1.917-1.917a1.535,1.535,0,0,0,.235-1.818,29.752,29.752,0,0,1-2.52-6.081,1.534,1.534,0,0,0-1.447-1.1c-1.169,0-3.98.586-4.145-1.047-.185-1.835,0-3.788,0-5.629s-.163-3.765,0-5.6c.15-1.674,2.951-1.078,4.145-1.078a1.533,1.533,0,0,0,1.447-1.1,29.729,29.729,0,0,1,2.52-6.081,1.538,1.538,0,0,0-.235-1.818l-1.917-1.917c-.594-.594-.818-1.1-.233-1.8,1.176-1.4,2.643-2.643,3.937-3.937a53.967,53.967,0,0,1,3.937-3.937c.7-.568,1.207-.361,1.8.233l1.916,1.917a1.536,1.536,0,0,0,1.818.234,29.808,29.808,0,0,1,6.081-2.52,1.533,1.533,0,0,0,1.1-1.446c0-1.169-.586-3.98,1.048-4.145,1.834-.185,3.787,0,5.628,0s3.765-.163,5.6,0c1.675.149,1.078,2.951,1.078,4.145a1.532,1.532,0,0,0,1.1,1.446,29.786,29.786,0,0,1,6.081,2.52,1.537,1.537,0,0,0,1.818-.234l1.917-1.917c.594-.594,1.1-.818,1.8-.233,1.4,1.176,2.644,2.643,3.937,3.937a53.768,53.768,0,0,1,3.937,3.937c.568.7.361,1.206-.233,1.8l-1.917,1.917a1.536,1.536,0,0,0-.234,1.818,29.787,29.787,0,0,1,2.52,6.081,1.533,1.533,0,0,0,1.446,1.1h3.209a1.5,1.5,0,0,0,0-3" transform="translate(-103.926 3726)" fill="#071546"/>
    <path id="Path_362" data-name="Path 362" d="M872.469,82.053a10.369,10.369,0,1,1,10.206-8.5,10.479,10.479,0,0,1-10.206,8.5,1.5,1.5,0,0,0,0,3A13.373,13.373,0,1,0,859.341,74.2a13.555,13.555,0,0,0,13.128,10.855,1.5,1.5,0,0,0,0-3" transform="translate(-103.926 3726)" fill="#071546"/>
    <rect id="Rectangle_41" data-name="Rectangle 41" width="46.13" height="60.834" transform="translate(722.414 3814.455)" fill="#fff"/>
    <path id="Path_363" data-name="Path 363" d="M872.469,147.788h-46.13l1.5,1.5V88.455l-1.5,1.5h46.13l-1.5-1.5v60.833a1.5,1.5,0,0,0,3,0V88.455a1.521,1.521,0,0,0-1.5-1.5h-46.13a1.522,1.522,0,0,0-1.5,1.5v60.833a1.522,1.522,0,0,0,1.5,1.5h46.13a1.5,1.5,0,0,0,0-3" transform="translate(-103.926 3726)" fill="#071546"/>
    <rect id="Rectangle_42" data-name="Rectangle 42" width="46.13" height="60.834" transform="translate(768.543 3814.455)" fill="#fff"/>
    <path id="Path_364" data-name="Path 364" d="M918.6,147.788h-46.13l1.5,1.5V88.455l-1.5,1.5H918.6l-1.5-1.5v60.833a1.5,1.5,0,0,0,3,0V88.455a1.521,1.521,0,0,0-1.5-1.5h-46.13a1.522,1.522,0,0,0-1.5,1.5v60.833a1.522,1.522,0,0,0,1.5,1.5H918.6a1.5,1.5,0,0,0,0-3" transform="translate(-103.926 3726)" fill="#071546"/>
    <path id="Path_365" data-name="Path 365" d="M862.55,111.2H816.42l9.92-22.744h46.13Z" transform="translate(-103.926 3726)" fill="#fff"/>
    <path id="Path_366" data-name="Path 366" d="M862.55,109.7H816.42l1.3,2.257q4.336-9.945,8.675-19.891l1.245-2.853-1.3.743h46.13L871.175,87.7,862.5,107.588l-1.244,2.853c-.764,1.752,1.819,3.281,2.59,1.514l8.676-19.891,1.244-2.853a1.521,1.521,0,0,0-1.3-2.257H826.34a1.47,1.47,0,0,0-1.3.743l-8.676,19.891q-.621,1.427-1.244,2.853a1.521,1.521,0,0,0,1.295,2.257h46.13a1.5,1.5,0,0,0,0-3" transform="translate(-103.926 3726)" fill="#071546"/>
    <path id="Path_367" data-name="Path 367" d="M882.389,111.2h46.13L918.6,88.454h-46.13Z" transform="translate(-103.926 3726)" fill="#fff"/>
    <path id="Path_368" data-name="Path 368" d="M882.389,112.7h46.13a1.521,1.521,0,0,0,1.3-2.257L921.138,90.55,919.894,87.7a1.469,1.469,0,0,0-1.295-.743h-46.13a1.521,1.521,0,0,0-1.295,2.257L879.85,109.1q.621,1.427,1.244,2.853c.77,1.765,3.355.24,2.59-1.514q-4.338-9.945-8.675-19.891L873.764,87.7l-1.295,2.257H918.6l-1.295-.743q4.336,9.947,8.675,19.891.622,1.427,1.244,2.853l1.3-2.257h-46.13a1.5,1.5,0,0,0,0,3" transform="translate(-103.926 3726)" fill="#071546"/>
  </g>
</svg>
