<svg width="29" height="29" viewBox="0 0 29 29" fill="none" xmlns="http://www.w3.org/2000/svg">
    <path d="M28.3248 2.98051C28.3248 2.44123 27.8835 2 27.3443 2L0.980513 2.00031C0.441231 2.00031 0 2.44155 0 2.98083V6.52048L28.3199 6.52017V2.98051H28.3248ZM2.91212 5.69685C2.12281 5.69685 1.48057 5.05461 1.48057 4.2653C1.48057 3.47599 2.12281 2.83375 2.91212 2.83375C3.70144 2.83375 4.34367 3.47599 4.34367 4.2653C4.34367 5.05461 3.70144 5.69685 2.91212 5.69685ZM6.65769 5.69685C5.86837 5.69685 5.22614 5.05461 5.22614 4.2653C5.22614 3.47599 5.86837 2.83375 6.65769 2.83375C7.447 2.83375 8.08923 3.47599 8.08923 4.2653C8.08923 5.05461 7.447 5.69685 6.65769 5.69685ZM10.4032 5.69685C9.61393 5.69685 8.9717 5.05461 8.9717 4.2653C8.9717 3.47599 9.61393 2.83375 10.4032 2.83375C11.1926 2.83375 11.8348 3.47599 11.8348 4.2653C11.8348 5.05461 11.1926 5.69685 10.4032 5.69685Z" fill="white"/>
    <path d="M2.93666 14.3254H6.29983C6.58908 14.3254 6.8195 14.09 6.8195 13.8057V10.4425C6.8195 10.1533 6.58417 9.92285 6.29983 9.92285H2.93666C2.64741 9.92285 2.41699 10.1582 2.41699 10.4425V13.8057C2.41699 14.09 2.64741 14.3254 2.93666 14.3254Z" fill="white"/>
    <path d="M4.78493 20.2967C4.9124 20.1692 5.09379 20.1251 5.26538 20.1839L6.8195 20.7036V18.2572C6.8195 17.968 6.58417 17.7375 6.29983 17.7375H2.93666C2.64741 17.7375 2.41699 17.9729 2.41699 18.2572V21.6204C2.41699 21.9096 2.65232 22.1401 2.93666 22.1401H5.12811L4.67217 20.7771C4.61824 20.6056 4.66237 20.4193 4.78493 20.2967Z" fill="white"/>
    <path d="M2.91215 4.7557C3.18562 4.7557 3.40731 4.53401 3.40731 4.26054C3.40731 3.98707 3.18562 3.76538 2.91215 3.76538C2.63868 3.76538 2.41699 3.98707 2.41699 4.26054C2.41699 4.53401 2.63868 4.7557 2.91215 4.7557Z" fill="white"/>
    <path d="M6.65776 4.7557C6.93123 4.7557 7.15292 4.53401 7.15292 4.26054C7.15292 3.98707 6.93123 3.76538 6.65776 3.76538C6.38429 3.76538 6.1626 3.98707 6.1626 4.26054C6.1626 4.53401 6.38429 4.7557 6.65776 4.7557Z" fill="white"/>
    <path d="M6.77532 24.1256L7.16262 22.9637C7.21165 22.8215 7.3195 22.7137 7.45678 22.6696L8.60888 22.2872L5.85364 21.3655L6.77532 24.1256Z" fill="white"/>
    <path d="M10.4032 4.7557C10.6767 4.7557 10.8984 4.53401 10.8984 4.26054C10.8984 3.98707 10.6767 3.76538 10.4032 3.76538C10.1298 3.76538 9.90808 3.98707 9.90808 4.26054C9.90808 4.53401 10.1298 4.7557 10.4032 4.7557Z" fill="white"/>
    <path d="M0 7.45692V26.1798C0 26.7191 0.441231 27.1603 0.980513 27.1603L27.3394 27.1602C27.8786 27.1602 28.3199 26.719 28.3199 26.1797V7.45679L0 7.45692ZM1.48057 10.4377C1.48057 9.63366 2.13262 8.98162 2.93664 8.98162H6.2998C7.10382 8.98162 7.75586 9.63366 7.75586 10.4377V13.8008C7.75586 14.6049 7.10382 15.2569 6.2998 15.2569H2.93664C2.13262 15.2569 1.48057 14.6049 1.48057 13.8008V10.4377ZM10.2415 22.7333L7.97648 23.4834L7.22148 25.7533C7.15775 25.9445 6.98126 26.072 6.77535 26.072C6.57434 26.072 6.39295 25.9445 6.32921 25.7533L5.43695 23.0716H2.93664C2.13262 23.0716 1.48057 22.4196 1.48057 21.6155V18.2524C1.48057 17.4484 2.13262 16.7963 2.93664 16.7963H6.2998C7.10382 16.7963 7.75586 17.4484 7.75586 18.2524V21.0125L10.2415 21.8411C10.4327 21.9048 10.5601 22.0813 10.5601 22.2872C10.565 22.4882 10.4327 22.6696 10.2415 22.7333ZM26.165 16.8306C26.165 17.1297 26.1405 17.4336 26.0964 17.7278L27.6456 19.0564C27.8172 19.2035 27.8564 19.4486 27.7485 19.6447L26.469 21.8607C26.3562 22.0568 26.1209 22.145 25.9101 22.0666L23.9834 21.39C23.5127 21.7724 22.993 22.0715 22.4292 22.2872L22.0517 24.2923C22.0125 24.513 21.8164 24.6747 21.5909 24.6747H19.0318C18.8062 24.6747 18.615 24.513 18.5709 24.2923L18.1934 22.2823C17.6345 22.0666 17.1149 21.7675 16.6442 21.3851L14.7175 22.0617C14.5067 22.1352 14.2714 22.047 14.1586 21.8558L12.879 19.6398C12.7663 19.4437 12.8104 19.1986 12.982 19.0515L14.5263 17.7229C14.4822 17.4287 14.4577 17.1297 14.4577 16.8257C14.4577 16.5218 14.4822 16.2227 14.5263 15.9286L12.982 14.6C12.8104 14.4529 12.7712 14.2078 12.8839 14.0117L14.1635 11.8006C14.2763 11.6045 14.5116 11.5212 14.7224 11.5947L16.6442 12.2712C17.11 11.8937 17.6394 11.5898 18.1983 11.3692L18.5758 9.36402C18.6199 9.14341 18.8111 8.98162 19.0367 8.98162H21.5958C21.8213 8.98162 22.0125 9.14341 22.0566 9.36402L22.4341 11.3692C22.9979 11.5849 23.5176 11.8888 23.9883 12.2712L25.915 11.5947C26.1258 11.5212 26.3611 11.6094 26.4739 11.8006L27.7534 14.0117C27.8662 14.2078 27.8221 14.4529 27.6554 14.6L26.1062 15.9286C26.1405 16.2227 26.165 16.5267 26.165 16.8306Z" fill="white"/>
    <path d="M26.165 16.8306C26.165 17.1297 26.1405 17.4336 26.0964 17.7278L27.6456 19.0564C27.8172 19.2035 27.8564 19.4486 27.7485 19.6447L26.469 21.8607C26.3562 22.0568 26.1209 22.145 25.9101 22.0666L23.9834 21.39C23.5127 21.7724 22.993 22.0715 22.4292 22.2872L22.0517 24.2923C22.0125 24.513 21.8164 24.6747 21.5909 24.6747H19.0318C18.8062 24.6747 18.615 24.513 18.5709 24.2923L18.1934 22.2823C17.6345 22.0666 17.1149 21.7675 16.6442 21.3851L14.7175 22.0617C14.5067 22.1352 14.2714 22.047 14.1586 21.8558L12.879 19.6398C12.7663 19.4437 12.8104 19.1986 12.982 19.0515L14.5263 17.7229C14.4822 17.4287 14.4577 17.1297 14.4577 16.8257C14.4577 16.5218 14.4822 16.2227 14.5263 15.9286L12.982 14.6C12.8104 14.4529 12.7712 14.2078 12.8839 14.0117L14.1635 11.8006C14.2763 11.6045 14.5116 11.5212 14.7224 11.5947L16.6442 12.2712C17.11 11.8937 17.6394 11.5898 18.1983 11.3692L18.5758 9.36402C18.6199 9.14341 18.8111 8.98162 19.0367 8.98162H21.5958C21.8213 8.98162 22.0125 9.14341 22.0566 9.36402L22.4341 11.3692C22.9979 11.5849 23.5176 11.8888 23.9883 12.2712L25.915 11.5947C26.1258 11.5212 26.3611 11.6094 26.4739 11.8006L27.7534 14.0117C27.8662 14.2078 27.8221 14.4529 27.6554 14.6L26.1062 15.9286C26.1405 16.2227 26.165 16.5267 26.165 16.8306Z" fill="white"/>
    <path d="M1.48057 10.4377C1.48057 9.63366 2.13262 8.98162 2.93664 8.98162H6.2998C7.10382 8.98162 7.75586 9.63366 7.75586 10.4377V13.8008C7.75586 14.6049 7.10382 15.2569 6.2998 15.2569H2.93664C2.13262 15.2569 1.48057 14.6049 1.48057 13.8008V10.4377Z" fill="white"/>
    <path d="M10.2415 22.7333L7.97648 23.4834L7.22148 25.7533C7.15775 25.9445 6.98126 26.072 6.77535 26.072C6.57434 26.072 6.39295 25.9445 6.32921 25.7533L5.43695 23.0716H2.93664C2.13262 23.0716 1.48057 22.4196 1.48057 21.6155V18.2524C1.48057 17.4484 2.13262 16.7963 2.93664 16.7963H6.2998C7.10382 16.7963 7.75586 17.4484 7.75586 18.2524V21.0125L10.2415 21.8411C10.4327 21.9048 10.5601 22.0813 10.5601 22.2872C10.565 22.4882 10.4327 22.6696 10.2415 22.7333Z" fill="white"/>
    <path d="M12.0317 15.7866H9.18397C9.07844 15.2696 8.78469 14.8102 8.35968 14.4975C7.93467 14.1847 7.40868 14.0409 6.88367 14.094C6.35867 14.147 5.87206 14.3931 5.51819 14.7845C5.16431 15.1759 4.96838 15.6848 4.96838 16.2125C4.96838 16.7402 5.16431 17.249 5.51819 17.6405C5.87206 18.0319 6.35867 18.278 6.88367 18.331C7.40868 18.3841 7.93467 18.2403 8.35968 17.9275C8.78469 17.6148 9.07844 17.1554 9.18397 16.6383H12.0317L13.4856 18.0922V21.7487H11.3563C11.3004 21.7487 11.245 21.7597 11.1933 21.7811C11.1416 21.8024 11.0947 21.8338 11.0551 21.8734C11.0156 21.9129 10.9842 21.9599 10.9628 22.0116C10.9414 22.0632 10.9304 22.1186 10.9305 22.1746V25.5815C10.9304 25.6374 10.9414 25.6928 10.9628 25.7445C10.9842 25.7962 11.0156 25.8431 11.0551 25.8827C11.0947 25.9222 11.1416 25.9536 11.1933 25.975C11.245 25.9964 11.3004 26.0074 11.3563 26.0073H16.4667C16.5226 26.0074 16.578 25.9964 16.6297 25.975C16.6813 25.9536 16.7283 25.9222 16.7679 25.8827C16.8074 25.8431 16.8388 25.7962 16.8602 25.7445C16.8816 25.6928 16.8926 25.6374 16.8925 25.5815V24.3039H20.7253C20.7812 24.3039 20.8366 24.2929 20.8883 24.2715C20.94 24.2501 20.9869 24.2188 21.0265 24.1792C21.066 24.1397 21.0974 24.0927 21.1188 24.041C21.1402 23.9893 21.1512 23.9339 21.1511 23.878V18.2987C21.5281 18.2218 21.8771 18.0442 22.1612 17.7848C22.4452 17.5253 22.6537 17.1938 22.7645 16.8254C22.8752 16.457 22.8841 16.0655 22.7902 15.6924C22.6962 15.3194 22.503 14.9787 22.2309 14.7067C21.9589 14.4347 21.6183 14.2415 21.2452 14.1475C20.8722 14.0536 20.4807 14.0625 20.1123 14.1732C19.7439 14.284 19.4123 14.4925 19.1529 14.7766C18.8935 15.0607 18.7159 15.4097 18.639 15.7866H15.7912L14.3374 14.3327V12.3797H16.4667C16.5226 12.3798 16.578 12.3688 16.6297 12.3474C16.6813 12.326 16.7283 12.2946 16.7679 12.2551C16.8074 12.2155 16.8388 12.1686 16.8602 12.1169C16.8816 12.0652 16.8926 12.0098 16.8925 11.9539V8.54696C16.8926 8.49102 16.8816 8.43563 16.8602 8.38395C16.8388 8.33226 16.8074 8.2853 16.7679 8.24575C16.7283 8.2062 16.6813 8.17483 16.6297 8.15344C16.578 8.13205 16.5226 8.12106 16.4667 8.12109H11.3563C11.3004 8.12106 11.245 8.13205 11.1933 8.15344C11.1416 8.17483 11.0947 8.2062 11.0551 8.24575C11.0156 8.2853 10.9842 8.33226 10.9628 8.38395C10.9414 8.43563 10.9304 8.49102 10.9305 8.54696V11.9539C10.9304 12.0098 10.9414 12.0652 10.9628 12.1169C10.9842 12.1686 11.0156 12.2155 11.0551 12.2551C11.0947 12.2946 11.1416 12.326 11.1933 12.3474C11.245 12.3688 11.3004 12.3798 11.3563 12.3797H13.4856V14.3327L12.0317 15.7866ZM11.7822 8.97282H16.0408V11.528H11.7822V8.97282ZM7.09771 17.4901C6.84503 17.4901 6.59802 17.4151 6.38793 17.2748C6.17783 17.1344 6.01408 16.9348 5.91738 16.7014C5.82068 16.4679 5.79538 16.2111 5.84468 15.9632C5.89398 15.7154 6.01565 15.4878 6.19433 15.3091C6.373 15.1304 6.60064 15.0087 6.84847 14.9594C7.0963 14.9101 7.35318 14.9354 7.58662 15.0321C7.82007 15.1288 8.0196 15.2926 8.15999 15.5027C8.30037 15.7128 8.3753 15.9598 8.3753 16.2125C8.37493 16.5512 8.24021 16.876 8.00069 17.1155C7.76118 17.355 7.43644 17.4897 7.09771 17.4901ZM16.0408 25.1556H11.7822V22.6004H16.0408V25.1556ZM16.8925 23.4522V22.1746C16.8926 22.1186 16.8816 22.0632 16.8602 22.0116C16.8388 21.9599 16.8074 21.9129 16.7679 21.8734C16.7283 21.8338 16.6813 21.8024 16.6297 21.7811C16.578 21.7597 16.5226 21.7487 16.4667 21.7487H14.3374V18.0922L15.7912 16.6383H18.639C18.7232 17.0471 18.9253 17.4222 19.2204 17.7173C19.5155 18.0124 19.8907 18.2145 20.2994 18.2987V23.4522H16.8925ZM20.7253 14.9349C20.978 14.9349 21.225 15.0098 21.4351 15.1502C21.6452 15.2906 21.8089 15.4901 21.9056 15.7236C22.0023 15.957 22.0276 16.2139 21.9783 16.4617C21.929 16.7096 21.8073 16.9372 21.6287 17.1159C21.45 17.2945 21.2223 17.4162 20.9745 17.4655C20.7267 17.5148 20.4698 17.4895 20.2364 17.3928C20.0029 17.2961 19.8034 17.1324 19.663 16.9223C19.5226 16.7122 19.4477 16.4652 19.4477 16.2125C19.4481 15.8738 19.5828 15.549 19.8223 15.3095C20.0618 15.07 20.3865 14.9353 20.7253 14.9349ZM13.9115 17.3138L12.8102 16.2125L13.9115 15.1112L15.0128 16.2125L13.9115 17.3138Z" fill="#071546"/>
</svg>
