<svg xmlns="http://www.w3.org/2000/svg" xmlns:xlink="http://www.w3.org/1999/xlink" width="184.26" height="40.571" viewBox="0 0 184.26 40.571">
  <defs>
    <clipPath id="clip-path">
      <rect id="Rectangle_1" data-name="Rectangle 1" width="184.26" height="40.571" fill="none"/>
    </clipPath>
  </defs>
  <g id="Group_1" data-name="Group 1" clip-path="url(#clip-path)">
    <path id="Path_1" data-name="Path 1" d="M34.22,40.571H20.285L33.2,27.655V20.286L23.97,11.055,20.285,14.74l9.231,9.231L20.285,33.2v7.37H6.35a6.3,6.3,0,0,1-2.466-.5A6.413,6.413,0,0,1,.5,36.686,6.278,6.278,0,0,1,0,34.22V6.351A6.274,6.274,0,0,1,.5,3.885,6.417,6.417,0,0,1,3.884.5,6.277,6.277,0,0,1,6.35,0H20.284L7.369,12.916v7.37l9.231,9.23,3.685-3.685-9.23-9.23,2.523-2.524,3.685-3.685,3.022-3.021V0H34.22a6.3,6.3,0,0,1,2.466.5A6.415,6.415,0,0,1,40.07,3.886a6.27,6.27,0,0,1,.5,2.466v27.87a6.269,6.269,0,0,1-.5,2.465,6.412,6.412,0,0,1-3.384,3.384A6.277,6.277,0,0,1,34.22,40.571Z" transform="translate(0 0)" fill="#3a76bb"/>
    <path id="Path_2" data-name="Path 2" d="M181.931,30.378h2.329V7.8h-2.329v10.63h-.059a6.481,6.481,0,0,0-5.017-2.389,7.039,7.039,0,0,0-7.346,7.346,7.064,7.064,0,0,0,6.987,7.346,6.053,6.053,0,0,0,5.375-2.837h.06Zm0-6.987a4.962,4.962,0,1,1-9.913,0,4.962,4.962,0,1,1,9.913,0Z" transform="translate(0 0)" fill="#1c1f24" fill-rule="evenodd"/>
    <path id="Path_3" data-name="Path 3" d="M156.1,19.719a6.194,6.194,0,0,1,4.15-1.523c2.18,0,3.464,1.045,3.464,3.075v.418h-.9c-3.434,0-8.808.269-8.808,4.9,0,2.718,2.359,4.151,5.195,4.151a5.283,5.283,0,0,0,4.6-2.449h.059a9.949,9.949,0,0,0,.15,2.09h2.239a15.545,15.545,0,0,1-.209-2.418v-6c0-3.942-1.732-5.912-5.852-5.912a7.774,7.774,0,0,0-5.554,2.15Zm7.614,3.941v.9a3.987,3.987,0,0,1-4.121,4.21c-1.761,0-3.075-.657-3.075-2.418,0-1.882,1.911-2.688,4.866-2.688Z" transform="translate(0 0)" fill="#1c1f24" fill-rule="evenodd"/>
    <path id="Path_4" data-name="Path 4" d="M150.4,16.4h-2.329v6.808c0,3.195-1.314,5.374-4.33,5.374-2.179,0-3.195-1.463-3.195-3.792V16.4h-2.329v8.629c0,3.375,1.643,5.7,5.315,5.7a5.077,5.077,0,0,0,4.659-2.658h.059c0,.776.06,1.553.06,2.3h2.209c0-.926-.119-2.03-.119-3.314Z" transform="translate(0 0)" fill="#1c1f24" fill-rule="evenodd"/>
    <path id="Path_5" data-name="Path 5" d="M133.917,16.4h-2.329v2.478h-.059a6.055,6.055,0,0,0-5.375-2.837,7.064,7.064,0,0,0-6.987,7.346,7.039,7.039,0,0,0,7.345,7.346,6.481,6.481,0,0,0,5.017-2.389h.059v8.838h2.329Zm-2.329,6.987a4.962,4.962,0,1,1-9.913,0,4.962,4.962,0,1,1,9.913,0" transform="translate(0 0)" fill="#1c1f24" fill-rule="evenodd"/>
    <path id="Path_6" data-name="Path 6" d="M115.882,11.179A7.253,7.253,0,0,0,109.97,8.7c-3.7,0-7.2,2.03-7.2,6.091,0,3.524,2.269,4.837,5.255,5.823,3.762,1.254,5.524,1.7,5.524,4.3,0,2.418-2.449,3.672-4.6,3.672a5.119,5.119,0,0,1-4.509-2.359L102.3,27.99c1.433,2.12,4.061,2.926,6.509,2.926,3.822,0,7.435-1.97,7.435-6.181,0-4.15-3.045-5.225-6.33-6.27-3.374-1.075-4.449-1.941-4.449-3.882,0-2.508,2.3-3.554,4.509-3.554a4.393,4.393,0,0,1,3.852,1.942Z" transform="translate(0 0)" fill="#1c1f24" fill-rule="evenodd"/>
    <path id="Path_7" data-name="Path 7" d="M101.062,16.016,95.433,30.378H91.586L85.708,16.016H89.66l2.986,7.569a27.643,27.643,0,0,1,.995,3.3,22.934,22.934,0,0,1,.771-2.871l2.971-7.993Z" transform="translate(0 0)" fill="#1c1f24" fill-rule="evenodd"/>
    <path id="Path_8" data-name="Path 8" d="M85.037,24.342H74.248a4.247,4.247,0,0,0,1.329,2.693,3.94,3.94,0,0,0,2.682.926,3.819,3.819,0,0,0,1.866-.463,5.959,5.959,0,0,0,1.723-1.538L84.426,27.9a7.739,7.739,0,0,1-2.753,2.18,8.8,8.8,0,0,1-3.692.707,7.052,7.052,0,0,1-5.459-2.195A7.763,7.763,0,0,1,70.5,23.148a7.554,7.554,0,0,1,11.222-6.574,6.143,6.143,0,0,1,2.5,2.622,9.234,9.234,0,0,1,.846,4.155C85.067,23.565,85.057,23.894,85.037,24.342Zm-3.643-2.553a3.44,3.44,0,0,0-.985-2.5,3.313,3.313,0,0,0-2.429-.941,3.575,3.575,0,0,0-2.468.921,3.975,3.975,0,0,0-1.249,2.518Z" transform="translate(0 0)" fill="#1c1f24" fill-rule="evenodd"/>
    <path id="Path_9" data-name="Path 9" d="M49.519,9.163H55.73a24.118,24.118,0,0,1,5.031.408,10.462,10.462,0,0,1,3.275,1.364,9.417,9.417,0,0,1,2.482,2.319,9.852,9.852,0,0,1,1.523,3.02,11.613,11.613,0,0,1,.5,3.459,10.769,10.769,0,0,1-.712,4.006,10.917,10.917,0,0,1-1.866,3.131,9.451,9.451,0,0,1-2.493,2.095,9.035,9.035,0,0,1-2.115.831,19.463,19.463,0,0,1-4.842.582h-7Zm3.807,17.8h2.523a12.117,12.117,0,0,0,4.534-.682,6.4,6.4,0,0,0,3.1-2.558,7.534,7.534,0,0,0,1.05-4.031,7.3,7.3,0,0,0-1.005-3.857,6.11,6.11,0,0,0-2.807-2.458,12.091,12.091,0,0,0-4.822-.8H53.326Z" transform="translate(0 0)" fill="#1c1f24" fill-rule="evenodd"/>
  </g>
</svg>
